<svg width="129" height="50" viewBox="0 0 129 50" fill="none" xmlns="http://www.w3.org/2000/svg">
<path d="M42.272 33.064C42.272 33.336 42.184 33.56 42.008 33.736C41.832 33.912 41.608 34 41.336 34C41.064 34 40.84 33.912 40.664 33.736C40.488 33.56 40.4 33.336 40.4 33.064V16.192C40.4 15.92 40.488 15.696 40.664 15.52C40.84 15.344 41.064 15.256 41.336 15.256H46.136C47.304 15.256 48.344 15.52 49.256 16.048C50.184 16.56 50.904 17.28 51.416 18.208C51.928 19.12 52.184 20.168 52.184 21.352C52.184 22.52 51.928 23.56 51.416 24.472C50.904 25.384 50.184 26.096 49.256 26.608C48.344 27.12 47.304 27.376 46.136 27.376H42.272V33.064ZM46.136 25.576C46.952 25.576 47.68 25.4 48.32 25.048C48.96 24.68 49.456 24.176 49.808 23.536C50.176 22.896 50.36 22.168 50.36 21.352C50.36 20.52 50.176 19.784 49.808 19.144C49.456 18.488 48.96 17.976 48.32 17.608C47.68 17.24 46.952 17.056 46.136 17.056H42.272V25.576H46.136Z" fill="#2196F3"/>
<path d="M55.2393 21.808C55.2393 21.536 55.3273 21.312 55.5033 21.136C55.6793 20.96 55.9033 20.872 56.1753 20.872C56.4473 20.872 56.6633 20.96 56.8233 21.136C56.9993 21.312 57.0873 21.536 57.0873 21.808V33.064C57.0873 33.336 56.9993 33.56 56.8233 33.736C56.6633 33.912 56.4473 34 56.1753 34C55.9033 34 55.6793 33.912 55.5033 33.736C55.3273 33.56 55.2393 33.336 55.2393 33.064V21.808ZM56.1753 15.76C56.5273 15.76 56.8313 15.88 57.0873 16.12C57.3433 16.36 57.4713 16.672 57.4713 17.056C57.4713 17.424 57.3433 17.736 57.0873 17.992C56.8313 18.248 56.5193 18.376 56.1513 18.376C55.7833 18.376 55.4713 18.248 55.2153 17.992C54.9753 17.736 54.8553 17.424 54.8553 17.056C54.8553 16.672 54.9833 16.36 55.2393 16.12C55.4953 15.88 55.8073 15.76 56.1753 15.76Z" fill="#2196F3"/>
<path d="M67.7688 20.752C69.0168 20.752 70.1448 21.048 71.1528 21.64C72.1768 22.216 72.9768 23.016 73.5528 24.04C74.1448 25.064 74.4408 26.2 74.4408 27.448V33.088C74.4408 33.344 74.3528 33.56 74.1768 33.736C74.0008 33.912 73.7768 34 73.5048 34C73.2328 34 73.0088 33.92 72.8328 33.76C72.6568 33.584 72.5688 33.36 72.5688 33.088V31.648C72.0088 32.416 71.2968 33.024 70.4328 33.472C69.5688 33.904 68.6168 34.12 67.5768 34.12C66.3608 34.12 65.2568 33.832 64.2648 33.256C63.2888 32.664 62.5128 31.864 61.9368 30.856C61.3768 29.832 61.0968 28.696 61.0968 27.448C61.0968 26.2 61.3848 25.064 61.9608 24.04C62.5528 23.016 63.3528 22.216 64.3608 21.64C65.3848 21.048 66.5208 20.752 67.7688 20.752ZM67.7688 32.44C68.6808 32.44 69.5048 32.224 70.2408 31.792C70.9768 31.36 71.5528 30.768 71.9688 30.016C72.4008 29.248 72.6168 28.392 72.6168 27.448C72.6168 26.504 72.4008 25.656 71.9688 24.904C71.5528 24.136 70.9768 23.536 70.2408 23.104C69.5048 22.656 68.6808 22.432 67.7688 22.432C66.8568 22.432 66.0248 22.656 65.2728 23.104C64.5368 23.536 63.9528 24.136 63.5208 24.904C63.1048 25.656 62.8968 26.504 62.8968 27.448C62.8968 28.392 63.1048 29.248 63.5208 30.016C63.9528 30.768 64.5368 31.36 65.2728 31.792C66.0248 32.224 66.8568 32.44 67.7688 32.44Z" fill="#2196F3"/>
<path d="M82.571 20.752C83.627 20.752 84.547 20.936 85.331 21.304C86.115 21.656 86.747 22.152 87.227 22.792C87.355 23 87.419 23.184 87.419 23.344C87.419 23.616 87.291 23.832 87.035 23.992C86.923 24.072 86.771 24.112 86.579 24.112C86.243 24.112 85.963 23.992 85.739 23.752C84.955 22.856 83.883 22.408 82.523 22.408C81.643 22.408 80.939 22.592 80.411 22.96C79.883 23.312 79.619 23.76 79.619 24.304C79.619 24.88 79.867 25.344 80.363 25.696C80.859 26.032 81.739 26.304 83.003 26.512C84.715 26.8 85.939 27.272 86.675 27.928C87.411 28.568 87.779 29.368 87.779 30.328C87.779 31.064 87.555 31.72 87.107 32.296C86.675 32.872 86.067 33.32 85.283 33.64C84.499 33.96 83.611 34.12 82.619 34.12C81.627 34.12 80.675 33.952 79.763 33.616C78.851 33.28 78.115 32.808 77.555 32.2C77.395 32.008 77.315 31.824 77.315 31.648C77.315 31.376 77.443 31.136 77.699 30.928C77.891 30.784 78.091 30.712 78.299 30.712C78.571 30.712 78.803 30.824 78.995 31.048C79.379 31.496 79.883 31.84 80.507 32.08C81.147 32.32 81.851 32.44 82.619 32.44C83.739 32.44 84.579 32.248 85.139 31.864C85.699 31.48 85.987 30.976 86.003 30.352C86.003 29.776 85.723 29.296 85.163 28.912C84.603 28.528 83.715 28.24 82.499 28.048C80.931 27.792 79.755 27.352 78.971 26.728C78.203 26.088 77.819 25.32 77.819 24.424C77.819 23.256 78.267 22.352 79.163 21.712C80.075 21.072 81.211 20.752 82.571 20.752Z" fill="#2196F3"/>
<path d="M96.7565 32.152C97.0125 32.152 97.2205 32.24 97.3805 32.416C97.5405 32.592 97.6205 32.816 97.6205 33.088C97.6205 33.344 97.5245 33.56 97.3325 33.736C97.1405 33.912 96.9005 34 96.6125 34H96.1085C95.2605 34 94.5005 33.8 93.8285 33.4C93.1565 32.984 92.6285 32.432 92.2445 31.744C91.8765 31.04 91.6925 30.248 91.6925 29.368V22.96H90.1325C89.8765 22.96 89.6685 22.888 89.5085 22.744C89.3645 22.584 89.2925 22.392 89.2925 22.168C89.2925 21.928 89.3645 21.736 89.5085 21.592C89.6685 21.432 89.8765 21.352 90.1325 21.352H91.6925V17.632C91.6925 17.36 91.7725 17.136 91.9325 16.96C92.1085 16.784 92.3325 16.696 92.6045 16.696C92.8765 16.696 93.1005 16.784 93.2765 16.96C93.4525 17.136 93.5405 17.36 93.5405 17.632V21.352H96.2525C96.5085 21.352 96.7085 21.432 96.8525 21.592C97.0125 21.736 97.0925 21.928 97.0925 22.168C97.0925 22.392 97.0125 22.584 96.8525 22.744C96.7085 22.888 96.5085 22.96 96.2525 22.96H93.5405V29.368C93.5405 30.184 93.7805 30.856 94.2605 31.384C94.7405 31.896 95.3565 32.152 96.1085 32.152H96.7565Z" fill="#2196F3"/>
<path d="M106.557 20.728C107.229 20.728 107.757 20.816 108.141 20.992C108.541 21.168 108.741 21.416 108.741 21.736C108.741 21.832 108.733 21.904 108.717 21.952C108.653 22.176 108.549 22.328 108.405 22.408C108.277 22.488 108.093 22.528 107.853 22.528C107.709 22.528 107.461 22.512 107.109 22.48C106.981 22.464 106.789 22.456 106.533 22.456C105.333 22.456 104.349 22.776 103.581 23.416C102.829 24.056 102.453 24.888 102.453 25.912V33.088C102.453 33.376 102.373 33.6 102.213 33.76C102.053 33.92 101.829 34 101.541 34C101.253 34 101.029 33.92 100.869 33.76C100.709 33.6 100.629 33.376 100.629 33.088V21.784C100.629 21.496 100.709 21.272 100.869 21.112C101.029 20.952 101.253 20.872 101.541 20.872C101.829 20.872 102.053 20.952 102.213 21.112C102.373 21.272 102.453 21.496 102.453 21.784V22.84C102.917 22.168 103.509 21.648 104.229 21.28C104.949 20.912 105.725 20.728 106.557 20.728Z" fill="#2196F3"/>
<path d="M112.005 21.808C112.005 21.536 112.093 21.312 112.269 21.136C112.445 20.96 112.669 20.872 112.941 20.872C113.213 20.872 113.429 20.96 113.589 21.136C113.765 21.312 113.853 21.536 113.853 21.808V33.064C113.853 33.336 113.765 33.56 113.589 33.736C113.429 33.912 113.213 34 112.941 34C112.669 34 112.445 33.912 112.269 33.736C112.093 33.56 112.005 33.336 112.005 33.064V21.808ZM112.941 15.76C113.293 15.76 113.597 15.88 113.853 16.12C114.109 16.36 114.237 16.672 114.237 17.056C114.237 17.424 114.109 17.736 113.853 17.992C113.597 18.248 113.285 18.376 112.917 18.376C112.549 18.376 112.237 18.248 111.981 17.992C111.741 17.736 111.621 17.424 111.621 17.056C111.621 16.672 111.749 16.36 112.005 16.12C112.261 15.88 112.573 15.76 112.941 15.76Z" fill="#2196F3"/>
<path d="M128.278 32.56C128.454 32.784 128.542 33 128.542 33.208C128.542 33.432 128.454 33.624 128.278 33.784C128.118 33.928 127.934 34 127.726 34C127.534 34 127.374 33.968 127.246 33.904C127.118 33.84 126.998 33.728 126.886 33.568L122.95 28.552L118.87 33.712C118.726 33.904 118.51 34 118.222 34C117.966 34 117.758 33.92 117.598 33.76C117.454 33.6 117.382 33.408 117.382 33.184C117.382 32.928 117.462 32.712 117.622 32.536L121.774 27.352L117.838 22.36C117.678 22.184 117.598 21.968 117.598 21.712C117.598 21.472 117.67 21.272 117.814 21.112C117.958 20.952 118.166 20.872 118.438 20.872C118.71 20.872 118.942 20.968 119.134 21.16L122.998 26.128L126.814 21.304C127.038 21.016 127.302 20.872 127.606 20.872C127.862 20.872 128.062 20.952 128.206 21.112C128.366 21.272 128.446 21.464 128.446 21.688C128.446 21.928 128.358 22.16 128.182 22.384L124.198 27.328L128.278 32.56Z" fill="#2196F3"/>
<path d="M22.6945 20.0956C22.6157 20.1221 22.5329 20.1426 22.4561 20.1773C21.4892 20.5764 20.6878 21.3003 20.1869 22.227C19.686 23.1537 19.5162 24.2266 19.7061 25.2651C19.7303 25.402 19.7546 25.5389 19.7889 25.6737C19.8233 25.8086 19.8657 25.9455 19.9122 26.0824C20.2422 26.998 20.8371 27.7918 21.6196 28.3607C21.6862 28.4056 21.7509 28.4506 21.8216 28.4935C21.9691 28.5858 22.1215 28.6697 22.2783 28.7448C22.3874 28.8 22.4985 28.8531 22.6137 28.9001C23.1539 29.1175 23.7296 29.2305 24.311 29.2331C24.3655 29.2331 24.416 29.2188 24.4686 29.2168V29.2005C25.0826 29.1723 25.6867 29.034 26.2527 28.7918C27.3049 28.3276 28.1499 27.4861 28.625 26.4294C29.1002 25.3727 29.1717 24.1755 28.8259 23.0686C28.4801 21.9617 27.7415 21.0234 26.7522 20.4345C25.763 19.8455 24.5933 19.6477 23.4684 19.879C23.4017 19.8933 23.337 19.9035 23.2663 19.9199C23.0722 19.9658 22.8811 20.0245 22.6945 20.0956Z" fill="#FFD833" stroke="#FFD833"/>
<mask id="mask0" mask-type="alpha" maskUnits="userSpaceOnUse" x="0" y="0" width="31" height="50">
<path d="M20.1107 19.869C18.4687 17.2482 17.5123 14.5292 17.2415 11.7122C14.8532 9.75068 11.0451 8.78761 5.81721 8.82302C5.68831 10.9651 6.00636 13.1107 6.75071 15.1204H6.69818C7.24025 16.4142 7.99594 17.6054 8.93293 18.643C8.93441 18.6631 8.93981 18.6826 8.94883 18.7005C8.95785 18.7184 8.97031 18.7343 8.98547 18.7473C9.31633 19.1146 9.68175 19.4486 10.0766 19.7444C12.376 21.5261 15.1004 22.6295 18.2498 23.0545C18.5403 21.8281 19.1887 20.7182 20.1107 19.869Z" fill="url(#paint0_linear)"/>
<path d="M10.0743 32.2452H10.0218C8.53328 34.5214 7.58092 37.7777 7.16468 42.0141C9.45466 42.3642 11.5668 42.2593 13.5012 41.6995C15.1679 41.1947 16.7084 40.3349 18.0192 39.1781V39.1249L18.3303 38.8103H18.3869C20.4573 36.5954 21.8381 33.8396 22.5291 30.5431C21.5825 30.2578 20.7167 29.7486 20.0034 29.0577C16.8284 31.1514 13.5187 32.2139 10.0743 32.2452Z" fill="url(#paint1_linear)"/>
<path d="M9.03599 21.06C8.69124 20.7811 8.36206 20.483 8.04995 20.1671C5.62527 20.8319 2.94195 22.3548 0 24.7359C1.20099 26.5186 2.78044 28.0076 4.62306 29.0942C6.14699 29.9745 7.85489 30.4786 9.60781 30.5654H10.0746C13.1728 30.5354 16.1363 29.5948 18.9651 27.7436C18.4234 26.8338 18.1202 25.7993 18.0841 24.7379C14.6208 24.2707 11.6048 23.0447 9.03599 21.06Z" fill="url(#paint2_linear)"/>
<path d="M27.6046 19.1864C29.2412 16.6364 30.1667 14.0047 30.3808 11.2912V11.187C30.4165 10.8558 30.434 10.523 30.4334 10.1899C30.4118 8.25021 29.8932 6.34937 28.928 4.67299C27.9622 2.92666 26.529 1.369 24.6283 0H24.6162C22.7114 1.36219 21.2748 2.92053 20.3063 4.67503C19.3412 6.35141 18.8225 8.25225 18.801 10.1919C18.8003 10.525 18.8178 10.8579 18.8535 11.189V11.2932C19.0596 13.91 19.9298 16.4512 21.4641 18.9167C22.4221 18.4153 23.4934 18.1765 24.5712 18.2242C25.6489 18.2719 26.6955 18.6044 27.6066 19.1885L27.6046 19.1864Z" fill="url(#paint3_linear)"/>
<path d="M29.8084 37.7598V37.7067C29.4851 35.1267 28.5887 32.5965 27.1191 30.1159C26.2439 30.5706 25.2741 30.8074 24.2903 30.8065C24.2498 30.8065 24.2094 30.8065 24.169 30.8065C23.412 34.4286 21.8817 37.4642 19.5783 39.9135C19.5712 39.9124 19.5639 39.9131 19.557 39.9154C19.5502 39.9177 19.544 39.9216 19.5389 39.9268C19.5338 39.9319 19.53 39.9382 19.5277 39.9451C19.5254 39.952 19.5247 39.9594 19.5258 39.9666C19.5268 39.9738 19.5261 39.9811 19.5238 39.9881C19.5215 39.995 19.5177 40.0013 19.5126 40.0064C19.5075 40.0116 19.5013 40.0154 19.4945 40.0178C19.4876 40.0201 19.4804 40.0207 19.4732 40.0197C19.9932 42.7155 21.6029 45.7123 24.3024 49.0102C26.0369 47.7573 27.4887 46.1464 28.5617 44.284C29.3227 42.9261 29.8 41.4246 29.964 39.8726C29.8993 39.7805 29.8634 39.6709 29.861 39.5579C29.9312 38.9592 29.9135 38.3533 29.8084 37.7598Z" fill="url(#paint4_linear)"/>
</mask>
<g mask="url(#mask0)">
<rect width="31" height="49" fill="url(#paint5_radial)"/>
</g>
<defs>
<linearGradient id="paint0_linear" x1="6.00002" y1="9" x2="18" y2="21" gradientUnits="userSpaceOnUse">
<stop stop-color="#FF4081"/>
<stop offset="1" stop-color="#FFA73F"/>
</linearGradient>
<linearGradient id="paint1_linear" x1="23" y1="29" x2="7.00001" y2="42" gradientUnits="userSpaceOnUse">
<stop stop-color="#FFA73F"/>
<stop offset="1" stop-color="#FF4081"/>
</linearGradient>
<linearGradient id="paint2_linear" x1="19" y1="27.5" x2="-2.63298e-06" y2="25" gradientUnits="userSpaceOnUse">
<stop stop-color="#FFA73F"/>
<stop offset="1" stop-color="#FF4081"/>
</linearGradient>
<linearGradient id="paint3_linear" x1="24.6172" y1="0" x2="24.6172" y2="19.1885" gradientUnits="userSpaceOnUse">
<stop stop-color="#FF4081"/>
<stop offset="1" stop-color="#FFA73F"/>
</linearGradient>
<linearGradient id="paint4_linear" x1="24.7186" y1="30.1159" x2="24.7186" y2="49.0102" gradientUnits="userSpaceOnUse">
<stop stop-color="#FFA73F"/>
<stop offset="1" stop-color="#FF4081"/>
</linearGradient>
<radialGradient id="paint5_radial" cx="0" cy="0" r="1" gradientUnits="userSpaceOnUse" gradientTransform="translate(23 25) rotate(-180) scale(34 21.5102)">
<stop stop-color="#FFA73F"/>
<stop offset="0.756906" stop-color="#FF4081"/>
</radialGradient>
</defs>
</svg>
