<svg width="122" height="46" viewBox="0 0 122 46" fill="none" xmlns="http://www.w3.org/2000/svg">
<g clip-path="url(#clip0)">
<path d="M54.6213 40.2148C54.2282 40.1445 53.8709 40.039 53.5314 39.828C52.9954 39.5114 52.5487 39.0718 52.1913 38.5795C51.8518 38.1223 51.5659 37.6124 51.3873 37.0848C51.012 35.9595 51.0835 34.711 51.6017 33.6384C52.2806 32.214 53.6565 31.2118 55.1573 30.7018C56.6582 30.1919 58.2842 30.1391 59.8744 30.2622C60.0531 29.594 59.7314 28.8555 59.1597 28.4862C58.5879 28.117 57.7839 28.117 57.1942 28.4862C56.6046 28.8555 56.2473 29.5413 56.2651 30.2095C55.0501 30.227 53.8351 30.227 52.6201 30.2446C52.4951 30.2446 52.37 30.2446 52.2628 30.1919C52.0126 30.0864 51.9233 29.7699 51.9054 29.5061C51.834 28.4159 52.4057 27.3433 53.2455 26.6223C54.0853 25.9014 55.1573 25.4969 56.2473 25.2859C57.7839 24.987 59.392 25.0397 60.9107 25.4618C61.7505 25.6904 62.5903 26.042 63.2156 26.6575C63.841 27.2729 64.1983 28.0994 64.3591 28.9434C64.5378 29.7874 64.5378 30.6666 64.52 31.5283C64.5021 34.3417 64.3949 37.1728 64.9666 39.9159C63.6623 39.9159 62.3758 39.9159 61.0715 39.9159C60.9464 39.9159 60.8214 39.9159 60.7142 39.8455C60.5533 39.7225 60.5533 39.4939 60.4997 39.318C60.4819 39.2477 60.4461 39.1773 60.3747 39.1422C60.2139 39.0543 59.9637 39.3708 59.8386 39.4411C59.4992 39.6697 59.1597 39.8807 58.7666 40.039C58.1412 40.3027 57.4622 40.4434 56.7833 40.4434C56.0507 40.4434 55.3181 40.3379 54.6213 40.2148ZM59.8922 33.4274C58.6594 33.3218 57.5516 33.3922 56.551 33.99C55.9435 34.3593 55.6755 34.922 55.7112 35.6254C55.7291 36.2232 56.0507 36.6277 56.5689 36.8738C57.4801 37.3134 59.0525 37.0145 59.4992 35.8188C59.7672 35.0627 59.8565 34.289 59.8922 33.4274Z" fill="#1427A9"/>
<path d="M93.7513 30.8777C93.4297 28.0818 91.8037 26.0596 89.338 25.3914C88.4089 25.1277 87.4619 25.0925 86.5149 25.1453C83.8705 25.2859 81.9051 26.4817 80.8688 28.9083C79.6895 31.6866 79.7252 34.5 81.0832 37.2255C81.5835 38.2454 82.3518 39.1246 83.3524 39.6697C83.6919 39.8456 84.0313 39.9863 84.3887 40.1093C84.7639 40.2148 85.1391 40.25 85.5144 40.2852C86.2469 40.3204 86.9974 40.3555 87.7299 40.3204C88.4446 40.2852 89.2129 40.25 89.8919 39.9863C90.4637 39.7577 90.9818 39.4236 91.4285 39.0015C92.2147 38.2806 92.7686 37.3662 93.1438 36.3815C93.2868 35.9947 93.394 35.6078 93.4833 35.2034C93.5369 34.9572 93.3404 34.7286 93.0723 34.7286H89.1236V34.7462C89.07 35.2737 88.9807 35.8012 88.7305 36.2408C88.3553 36.8915 87.7121 37.1552 86.9795 37.1552C86.5685 37.1552 86.1397 37.0673 85.7824 36.8563C85.3178 36.5749 85.0141 36.065 84.8711 35.5551C84.7996 35.2913 84.746 35.01 84.7282 34.7462C84.7103 34.6055 84.7103 33.9549 84.7103 33.9549C84.7103 33.9549 85.4071 33.9373 85.5501 33.9373C85.8538 33.9373 86.1397 33.9373 86.4435 33.9373C87.2832 33.9373 88.1409 33.9373 88.9807 33.9373C89.3201 33.9373 89.6596 33.9373 89.9813 33.9373H93.7156C93.8407 32.8471 93.8585 31.8624 93.7513 30.8777ZM84.7996 30.5084C84.746 28.961 85.8717 28.2049 86.9259 28.2225C88.2838 28.2401 88.9807 28.9083 89.0879 30.5084H84.7996Z" fill="#1427A9"/>
<path d="M102.685 40.4786C103.042 40.461 103.382 40.4258 103.704 40.3731C103.9 40.3379 104.097 40.3203 104.293 40.2324C104.4 40.1973 105.151 39.8983 105.151 39.7928C105.151 38.6674 105.151 37.63 105.151 36.5573C104.633 36.6804 104.15 36.8563 103.65 36.909C102.238 37.0849 101.792 36.698 101.774 35.3089C101.774 34.7989 101.774 28.6797 101.774 28.6797C102.9 28.6797 103.936 28.6797 104.936 28.6797C105.097 27.0619 105.026 26.5696 104.651 26.0421C103.918 25.0398 102.774 25.4266 101.756 25.2332C101.756 24.8463 101.756 24.4947 101.756 24.143C101.756 23.7913 101.774 23.4396 101.756 23.0879C101.72 22.156 101.202 21.4702 100.327 21.3295C99.3439 21.1713 98.3433 21.2768 97.2891 21.2768C97.2891 22.6659 97.2891 23.9495 97.2891 25.2332C96.0384 25.2859 94.8055 25.2859 94.8055 25.2859C94.8055 25.2859 94.8055 27.5543 94.8055 28.6972C95.6632 28.6972 96.4493 28.6972 97.307 28.6972C97.307 29.9809 97.307 31.2645 97.307 32.5482C97.307 33.7791 97.2534 35.0275 97.3248 36.2584C97.3785 37.0497 97.5393 37.8586 97.9502 38.5443C98.9329 40.1445 100.916 40.5665 102.685 40.4786Z" fill="#1427A9"/>
<path d="M78.1886 39.9159C76.6699 39.9159 75.2583 39.9159 73.7753 39.9159C73.7753 33.1109 73.7753 26.3058 73.7753 19.4656C74.7402 19.4656 75.6872 19.3953 76.6163 19.4832C77.5633 19.5711 78.1172 20.2393 78.1708 21.224C78.2065 21.8395 78.1886 22.4549 78.1886 23.0703C78.1886 28.3456 78.1886 33.6032 78.1886 38.8784C78.1886 39.1774 78.1886 39.4939 78.1886 39.9159Z" fill="#1427A9"/>
<path d="M71.3096 39.8983C69.7909 39.8983 68.3793 39.8983 66.9321 39.8983C66.9321 33.0757 66.9321 26.2882 66.9321 19.4128C67.9505 19.4128 68.9154 19.3249 69.8802 19.4656C70.6485 19.5887 71.1488 20.0986 71.2739 20.8547C71.3096 21.0833 71.3275 21.3119 71.3275 21.5581C71.3275 27.4664 71.3275 33.3922 71.3275 39.3005C71.3454 39.4939 71.3275 39.6697 71.3096 39.8983Z" fill="#1427A9"/>
<path d="M27.8556 28.4862L29.6781 34.0076C31.179 32.9877 32.519 31.7744 33.6626 30.3677L31.3934 23.5099C30.6251 25.4266 29.4101 27.1147 27.8556 28.4862Z" fill="#F78C02"/>
<path d="M18.9397 0C8.48711 0 0 8.35245 0 18.6391C0 28.9258 8.48711 37.2783 18.9397 37.2783C20.8515 37.2783 22.6919 36.9969 24.425 36.487L25.5507 39.9159H30.7323L24.836 21.9977C24.6216 21.3647 24.0141 20.9251 23.3351 20.9251H19.297L22.7097 31.2997C21.5126 31.6514 20.244 31.8272 18.9397 31.8272C11.5425 31.8272 5.53896 25.919 5.53896 18.6391C5.53896 11.3593 11.5425 5.45107 18.9397 5.45107C26.3369 5.45107 32.3404 11.3593 32.3404 18.6391C32.3404 19.8349 32.1796 20.9954 31.8758 22.0856L34.3237 29.5061C34.7168 28.9786 35.0741 28.4159 35.4136 27.8532C36.039 26.7806 36.5571 25.6376 36.9502 24.4243C37.5577 22.5956 37.8793 20.6437 37.8793 18.6216C37.8793 8.35245 29.3922 0 18.9397 0Z" fill="#F78C02"/>
<path d="M51.012 28.2401L47.1705 39.9159H41.9889L39.3981 31.7569L36.8073 39.9159H31.6257L29.6781 33.9901L27.8556 28.4862L25.372 20.9251H29.4101C30.0891 20.9251 30.6966 21.3647 30.911 21.9977L31.4113 23.4924L33.6805 30.3502L34.6274 33.1988L37.1646 25.3211H40.3808C41.1312 25.3211 41.7923 25.7959 42.0246 26.4992L44.2045 33.2164L46.7774 25.3211H48.8679C50.4045 25.3211 51.4945 26.8158 51.012 28.2401Z" fill="#1427A9"/>
<path d="M106.223 24.8112H110.368C111.154 24.8112 111.833 25.3211 112.048 26.0596L114.228 33.2867C114.353 33.7263 114.442 34.2714 114.478 34.8868H114.585C114.656 34.289 114.764 33.7615 114.907 33.3043L117.515 24.7936H120.213C121.464 24.7936 122.339 26.0245 121.893 27.185L116.854 40.5313C116.086 42.5359 115.157 43.9427 114.049 44.7691C112.941 45.5956 111.494 46 109.707 46C109.01 46 108.313 45.9297 107.581 45.7714V41.7622C108.045 41.8677 108.581 41.9205 109.189 41.9205C109.653 41.9205 110.047 41.8326 110.386 41.6567C110.726 41.4809 111.029 41.2347 111.279 40.9182C111.53 40.6017 111.815 40.0742 112.101 39.3532L106.223 24.8112Z" fill="#1427A9"/>
</g>
<defs>
<clipPath id="clip0">
<rect width="122" height="46" fill="white"/>
</clipPath>
</defs>
</svg>
