<svg width="32" height="32" viewBox="0 0 32 32" fill="none" xmlns="http://www.w3.org/2000/svg">
<g clip-path="url(#clip0)">
<path d="M31.0851 12.2287L29.1995 10.3431L16.0002 23.5424L4.68645 12.2287L6.57207 10.3431H0.915217L0.915217 15.9999L2.80084 14.1143L4.68645 15.9999L0.915217 19.7712L2.80084 21.6568L6.57207 17.8855L14.1145 25.428C15.1516 26.4651 16.8487 26.4651 17.8858 25.428L25.4283 17.8855L27.3139 19.7712L25.4283 21.6568H31.0851V15.9999L29.1995 17.8855L27.3139 15.9999L31.0851 12.2287ZM10.3433 14.1143L16.0002 8.45745L21.657 14.1143L23.5426 12.2287L17.8858 6.57183C16.8487 5.53474 15.1516 5.53474 14.1145 6.57183L8.45769 12.2287L10.3433 14.1143Z" fill="#7FC5E8"/>
</g>
<defs>
<clipPath id="clip0">
<rect width="32" height="32" fill="white"/>
</clipPath>
</defs>
</svg>
