<svg width="62" height="62" viewBox="0 0 62 62" fill="none" xmlns="http://www.w3.org/2000/svg">
<path d="M57 24.8809C57 13.9185 48.0815 5 37.1191 5C28.4502 5 21.0604 10.578 18.3475 18.3329C15.5474 19.3044 12.9806 20.9037 10.8232 23.0611C7.06815 26.8161 5 31.8085 5 37.1191C5 42.4294 7.06815 47.4222 10.8232 51.1768C14.5782 54.9319 19.5706 56.9996 24.8809 56.9996C30.1911 56.9996 35.1835 54.9319 38.9385 51.1768C41.1301 48.9857 42.7011 46.4058 43.6537 43.6572C51.4156 40.9484 57 33.5549 57 24.8809ZM23.2757 53.877C21.2909 53.6905 19.3794 53.1589 17.6112 52.3111L27.5953 42.3278C29.2238 43.22 30.9901 43.8905 32.8535 44.2995L23.2757 53.877ZM29.857 40.066L40.0672 29.8562C40.9254 31.655 41.4474 33.5752 41.6311 35.5215L35.5148 41.6379C33.5061 41.4471 31.5991 40.9023 29.857 40.066ZM23.5514 34.8336L34.8407 23.5443C35.5235 24.0473 36.1733 24.6051 36.7843 25.2157C37.3984 25.8302 37.9554 26.4805 38.4545 27.1601L27.166 38.4482C25.7862 37.4333 24.5663 36.2134 23.5514 34.8336ZM8.12265 38.7243L17.7005 29.1465C18.1095 31.0095 18.7796 32.7758 19.6718 34.4043L9.68814 44.388C8.84073 42.6202 8.30911 40.7087 8.12265 38.7243ZM22.0101 20.5276L20.5315 22.0066C20.6029 21.5932 20.6894 21.1853 20.7906 20.7827C21.1929 20.6831 21.5995 20.5978 22.0101 20.5276ZM20.3621 26.4848L26.486 20.3609C28.4705 20.5474 30.3815 21.079 32.1497 21.9264L21.9336 32.1426C21.0973 30.4005 20.5529 28.4939 20.3621 26.4848ZM41.4594 40.0022C41.3895 40.408 41.3046 40.8119 41.2047 41.2126C40.8063 41.3122 40.4025 41.3975 39.9934 41.4685L41.4594 40.0022ZM12.9774 25.2153C14.3037 23.8894 15.8124 22.8127 17.4466 22.007C17.3101 22.9456 17.2383 23.9049 17.2383 24.8809C17.2383 25.0189 17.2407 25.157 17.2434 25.2946L8.28967 34.2484C8.87088 30.8437 10.4852 27.7079 12.9774 25.2153ZM11.306 47.079L21.377 37.0081C22.4223 38.3617 23.6379 39.5773 24.9915 40.6227L14.9202 50.6936C14.2378 50.1906 13.588 49.6331 12.9774 49.0226C12.3665 48.4116 11.8091 47.7618 11.306 47.079ZM36.7843 49.0226C34.2921 51.5144 31.1559 53.1287 27.7512 53.7103L36.7054 44.7566C36.843 44.7593 36.9807 44.7617 37.1191 44.7617C38.0923 44.7617 39.0488 44.6903 39.9847 44.5546C39.1917 46.1689 38.1252 47.6816 36.7843 49.0226Z" fill="#8AD8FF"/>
</svg>
