<svg width="62" height="62" viewBox="0 0 62 62" fill="none" xmlns="http://www.w3.org/2000/svg">
<path d="M20.6667 20.6667H15.5V38.75C15.5 41.5917 17.825 43.9167 20.6667 43.9167H43.9167V38.75H20.6667V20.6667Z" fill="#8AD8FF"/>
<path d="M51.6663 7.75H30.9997C28.158 7.75 25.833 10.075 25.833 12.9167V28.4167C25.833 31.2583 28.158 33.5833 30.9997 33.5833H51.6663C54.508 33.5833 56.833 31.2583 56.833 28.4167V12.9167C56.833 10.075 54.508 7.75 51.6663 7.75ZM51.6663 28.4167H30.9997V18.0833H51.6663V28.4167Z" fill="#8AD8FF"/>
<path d="M10.3332 31H5.1665V49.0833C5.1665 51.925 7.4915 54.25 10.3332 54.25H33.5832V49.0833H10.3332V31Z" fill="#8AD8FF"/>
</svg>
