<svg width="62" height="62" viewBox="0 0 62 62" fill="none" xmlns="http://www.w3.org/2000/svg">
<path fill-rule="evenodd" clip-rule="evenodd" d="M60.9998 38.7797L51.289 41.8271V25.9289H45.1835V41.8615H51.1795L14.3069 53.433L0.700195 16.3926L49.7191 13.6597L60.9998 38.7797ZM25.7038 31.3367C25.7038 32.2671 25.4712 33.0811 25.0642 33.8371C24.6572 34.5348 24.0757 35.1745 23.3198 35.6397C22.5638 36.1048 21.6335 36.4537 20.5868 36.6863C19.5401 36.9189 18.3772 37.0352 17.0398 37.0352H16.1094V41.8034H10.062V25.9289H17.1561C19.8309 25.9289 21.9242 26.3941 23.4361 27.2663C24.9479 28.1385 25.7038 29.5341 25.7038 31.3367ZM19.889 31.3948C19.889 29.9993 18.8424 29.3015 16.8072 29.3015H16.0512V33.5463H16.749C17.7375 33.5463 18.5516 33.3719 19.0749 33.023C19.5983 32.7322 19.889 32.1508 19.889 31.3948ZM37.5079 42.094C38.729 42.094 39.7757 41.9778 40.706 41.8033C41.3705 41.6787 41.6197 41.6134 42.0468 41.5016L42.0469 41.5016L42.047 41.5016C42.2179 41.4568 42.4172 41.4046 42.6831 41.3381V37.3259C41.9849 37.6481 41.2868 37.8215 40.6345 37.9836L40.4734 38.0237C39.7757 38.1981 39.0197 38.2563 38.322 38.2563C37.6242 38.2563 36.9846 38.14 36.3449 37.9655C35.7053 37.7911 35.182 37.5003 34.7168 37.1515C34.2516 36.8026 33.9027 36.3374 33.612 35.814C33.3212 35.2326 33.2049 34.5929 33.2049 33.8952C33.2049 32.4415 33.612 31.3948 34.4842 30.6389C35.3564 29.9411 36.4612 29.5341 37.8568 29.5341C38.6709 29.5341 39.4849 29.6503 40.2408 29.8829C40.9968 30.0574 41.6946 30.3481 42.276 30.697V26.4522C41.5201 26.1615 41.5201 26.1615 40.5316 25.9289C39.5431 25.7544 38.4383 25.6963 37.2753 25.6963C35.7634 25.6963 34.3679 25.8707 33.0886 26.2778C31.8094 26.6848 30.7046 27.2663 29.7742 27.9641C28.8438 28.72 28.146 29.5922 27.6227 30.5807C27.0994 31.6274 26.8668 32.7322 26.8668 33.9533C26.8668 35.1744 27.0994 36.2792 27.5646 37.3259C28.0297 38.3144 28.7275 39.1866 29.6579 39.8844C30.5883 40.5822 31.6931 41.1055 33.0305 41.5126C34.3097 41.9196 35.8216 42.094 37.5079 42.094ZM50.8821 23.4286C51.5799 22.8471 51.9288 21.9749 51.9288 20.9282C51.9288 19.8234 51.5799 18.9512 50.8821 18.3697C50.1844 17.7301 49.3121 17.4393 48.2655 17.4393C47.2188 17.4393 46.3466 17.7301 45.6488 18.3697C44.951 19.0093 44.6021 19.8234 44.6021 20.9282C44.6021 21.9749 44.951 22.8471 45.6488 23.4286C46.3466 24.0682 47.2188 24.3589 48.2655 24.3589C49.3121 24.3589 50.1844 24.0101 50.8821 23.4286Z" fill="#8AD8FF"/>
</svg>
