<svg width="260" height="260" viewBox="0 0 260 260" fill="none" xmlns="http://www.w3.org/2000/svg">
<path fill-rule="evenodd" clip-rule="evenodd" d="M130 260C201.797 260 260 201.797 260 130C260 58.203 201.797 0 130 0C58.203 0 0 58.203 0 130C0 201.797 58.203 260 130 260ZM93.3551 189.391C104.396 195.13 116.801 198 130.571 198C143.224 198 154.513 195.754 164.438 191.262C174.362 186.771 182.549 180.282 189 171.798L161.274 146.906C153.211 157.137 143.721 162.253 132.804 162.253C123.624 162.253 116.243 159.321 110.661 153.456C105.078 147.467 102.287 139.482 102.287 129.5C102.287 119.518 105.078 111.595 110.661 105.731C116.243 99.7418 123.624 96.7473 132.804 96.7473C143.721 96.7473 153.211 101.863 161.274 112.094L189 87.2022C182.549 78.7177 174.362 72.2295 164.438 67.7377C154.513 63.2459 143.224 61 130.571 61C116.801 61 104.396 63.9321 93.3551 69.7964C82.3144 75.536 73.6307 83.6462 67.304 94.127C61.1013 104.483 58 116.274 58 129.5C58 142.726 61.1013 154.579 67.304 165.06C73.6307 175.416 82.3144 183.526 93.3551 189.391Z" fill="#F7931A"/>
</svg>
