<svg width="16" height="16" viewBox="0 0 16 16" fill="none" xmlns="http://www.w3.org/2000/svg">
<path d="M12 5.33332H11.3333V3.99999C11.3333 2.15999 9.83999 0.666656 7.99999 0.666656C6.15999 0.666656 4.66666 2.15999 4.66666 3.99999V5.33332H3.99999C3.26666 5.33332 2.66666 5.93332 2.66666 6.66666V13.3333C2.66666 14.0667 3.26666 14.6667 3.99999 14.6667H12C12.7333 14.6667 13.3333 14.0667 13.3333 13.3333V6.66666C13.3333 5.93332 12.7333 5.33332 12 5.33332ZM7.99999 11.3333C7.26666 11.3333 6.66666 10.7333 6.66666 9.99999C6.66666 9.26666 7.26666 8.66666 7.99999 8.66666C8.73332 8.66666 9.33332 9.26666 9.33332 9.99999C9.33332 10.7333 8.73332 11.3333 7.99999 11.3333ZM10.0667 5.33332H5.93332V3.99999C5.93332 2.85999 6.85999 1.93332 7.99999 1.93332C9.13999 1.93332 10.0667 2.85999 10.0667 3.99999V5.33332Z" fill="white"/>
</svg>
