<svg width="607" height="255" viewBox="0 0 607 255" fill="none" xmlns="http://www.w3.org/2000/svg">
<path d="M108.703 208.472C106.718 208.472 105.03 207.777 103.641 206.388C102.251 204.998 101.556 203.31 101.556 201.325V163.204H7.14762C5.16217 163.204 3.47454 162.509 2.08472 161.119C0.694908 159.73 0 158.042 0 156.056V135.507C0 132.33 1.092 129.352 3.27599 126.572L91.1322 5.06291C92.1249 3.47454 93.614 2.28327 95.5995 1.48909C97.5849 0.496362 99.7689 0 102.151 0H134.911C137.095 0 138.783 0.694911 139.974 2.08473C141.364 3.276 142.059 4.96363 142.059 7.14762V127.764H168.863C171.047 127.764 172.734 128.459 173.925 129.848C175.315 131.04 176.01 132.727 176.01 134.911V156.056C176.01 158.042 175.315 159.73 173.925 161.119C172.734 162.509 171.047 163.204 168.863 163.204H142.059V201.325C142.059 203.31 141.364 204.998 139.974 206.388C138.783 207.777 137.095 208.472 134.911 208.472H108.703ZM41.9923 128.955H102.449V43.4814L41.9923 128.955Z" fill="#EDEDED"/>
<path d="M506.569 208.472C504.584 208.472 502.896 207.777 501.506 206.388C500.116 204.998 499.422 203.31 499.422 201.325V163.204H405.013C403.028 163.204 401.34 162.509 399.95 161.119C398.561 159.73 397.866 158.042 397.866 156.056V135.507C397.866 132.33 398.958 129.352 401.142 126.572L488.998 5.06291C489.991 3.47454 491.48 2.28327 493.465 1.48909C495.451 0.496362 497.635 0 500.017 0H532.777C534.961 0 536.649 0.694911 537.84 2.08473C539.23 3.276 539.925 4.96363 539.925 7.14762V127.764H566.728C568.912 127.764 570.6 128.459 571.791 129.848C573.181 131.04 573.876 132.727 573.876 134.911V156.056C573.876 158.042 573.181 159.73 571.791 161.119C570.6 162.509 568.912 163.204 566.728 163.204H539.925V201.325C539.925 203.31 539.23 204.998 537.84 206.388C536.649 207.777 534.961 208.472 532.777 208.472H506.569ZM439.858 128.955H500.315V43.4814L439.858 128.955Z" fill="#EDEDED"/>
<g clip-path="url(#clip0)">
<path d="M365.393 192.054H199.453C194.129 192.054 189.732 187.786 189.732 182.366V40.2763C189.732 34.971 194.014 30.7037 199.453 30.7037H365.393C370.716 30.7037 375.113 34.971 375.113 40.3916V182.481C375.113 187.786 370.716 192.054 365.393 192.054Z" fill="#CCCCCC"/>
<path d="M375.692 192.054H209.751C204.428 192.054 200.031 187.786 200.031 182.366V40.2762C200.031 34.971 204.313 30.5883 209.751 30.5883H375.692C381.015 30.5883 385.412 34.8556 385.412 40.2762V182.366C385.412 187.786 381.015 192.054 375.692 192.054Z" fill="#F2F2F2"/>
<path d="M292.953 164.374C322.224 164.374 345.952 140.776 345.952 111.667C345.952 82.5577 322.224 58.9601 292.953 58.9601C263.682 58.9601 239.954 82.5577 239.954 111.667C239.954 140.776 263.682 164.374 292.953 164.374Z" fill="#DEDEDE"/>
<path d="M292.953 58.9601C291.565 58.9601 290.292 59.0754 289.019 59.0754C316.444 61.1514 337.968 83.8718 337.968 111.552C337.968 139.347 316.328 162.067 289.019 164.143C290.292 164.258 291.68 164.258 292.953 164.258C322.23 164.258 345.952 140.615 345.952 111.552C345.837 82.4879 322.114 58.9601 292.953 58.9601Z" fill="#CCCCCC"/>
<path d="M271.777 111.667C271.777 116.165 268.189 119.74 263.676 119.74C259.163 119.74 255.576 116.165 255.576 111.667C255.576 107.169 259.163 103.594 263.676 103.594C268.189 103.594 271.777 107.169 271.777 111.667Z" fill="#808080"/>
<path d="M321.42 111.667C321.42 116.165 317.833 119.74 313.32 119.74C308.807 119.74 305.219 116.165 305.219 111.667C305.219 107.169 308.807 103.594 313.32 103.594C317.717 103.594 321.42 107.169 321.42 111.667Z" fill="#808080"/>
<path d="M263.677 103.594C263.214 103.594 262.635 103.594 262.172 103.709C265.875 104.401 268.768 107.746 268.768 111.667C268.768 115.588 265.875 118.933 262.172 119.625C262.635 119.74 263.214 119.74 263.677 119.74C268.19 119.74 271.777 116.165 271.777 111.667C271.777 107.169 268.19 103.594 263.677 103.594Z" fill="#999999"/>
<path d="M313.32 103.594C312.857 103.594 312.278 103.594 311.815 103.709C315.518 104.401 318.411 107.746 318.411 111.667C318.411 115.588 315.518 118.933 311.815 119.625C312.278 119.74 312.857 119.74 313.32 119.74C317.833 119.74 321.42 116.165 321.42 111.667C321.42 107.169 317.717 103.594 313.32 103.594Z" fill="#999999"/>
</g>
<path d="M446.367 126.018C447.054 125.492 447.952 125.281 448.797 125.439L458.833 127.176C459.625 127.334 460.417 126.755 460.576 125.965L460.628 125.808C460.734 125.808 460.84 125.86 460.998 125.86C461.051 125.86 462.794 126.018 465.329 126.755L467.706 119.596C464.907 118.753 462.741 118.49 461.949 118.385L462.002 118.227C462.16 117.437 461.579 116.648 460.787 116.49L454.501 115.437L454.29 121.333L422.809 121.965L422.281 126.913L440.821 130.124L446.367 126.018Z" fill="#CCCCCC"/>
<path d="M599.07 131.651C593.577 117.332 585.548 104.592 575.882 94.8003C565.424 84.2188 551.645 77.3751 538.863 75.0062L539.505 83.0607C549.646 85.6402 561.938 91.4311 570.494 100.065C579.421 109.119 586.869 120.964 591.992 134.336C603.243 163.764 601.289 194.508 586.974 212.775C571.075 233.043 547.042 240.308 529.664 242.888C506.265 246.309 486.035 242.782 475.841 238.729C468.921 235.991 464.96 232.622 463.586 228.411C460.892 220.093 468.657 207.932 476.105 196.192C482.496 186.19 489.098 175.819 490.736 165.975C493.324 150.34 491.053 137.863 483.922 128.808C474.573 116.963 460.364 115.805 459.783 115.753C457.723 115.595 455.927 117.174 455.769 119.227C455.61 121.28 457.142 123.123 459.255 123.281C459.361 123.281 470.823 124.281 478.059 133.546C483.764 140.811 485.507 151.34 483.288 164.711C481.915 173.029 475.735 182.716 469.766 192.139C460.945 205.984 452.652 219.04 456.403 230.727C458.463 237.149 463.903 242.098 473.041 245.73C482.971 249.679 496.599 251.784 510.755 251.784C517.41 251.784 524.224 251.311 530.774 250.363C549.525 247.626 575.512 239.676 592.943 217.461C601.183 206.984 605.937 193.034 606.729 177.135C607.469 162.342 604.775 146.602 599.07 131.651Z" fill="#EDEDED"/>
<path d="M396.875 109.172C394.867 108.804 392.966 110.172 392.596 112.173C392.226 114.173 393.6 116.068 395.607 116.437L419.904 120.596L421.172 113.331L396.875 109.172Z" fill="#CCCCCC"/>
<path d="M404.956 100.907C402.949 100.538 401.047 101.907 400.678 103.908C400.308 105.908 401.681 107.803 403.688 108.172L423.021 111.488L424.288 104.224L404.956 100.907Z" fill="#CCCCCC"/>
<path d="M415.15 119.753L420.01 120.596L421.278 113.331L416.26 112.489C415.784 115.016 415.414 117.437 415.15 119.753Z" fill="#F2F2F2"/>
<path d="M416.577 110.33L422.598 111.33C423.021 108.751 423.338 106.329 423.602 104.013L418.003 103.065C417.527 105.382 417.052 107.803 416.577 110.33Z" fill="#F2F2F2"/>
<path d="M458.938 113.91L448.903 112.173C448.057 112.015 447.265 111.541 446.79 110.857L434.43 92.9051C433.373 91.3784 431.789 90.3782 429.993 90.0623L425.345 89.2727C423.654 89.0095 420.485 99.3803 418.267 112.489C415.996 125.597 415.573 136.442 417.21 136.705L421.859 137.494C423.654 137.81 425.503 137.389 426.982 136.284L444.624 123.439C445.311 122.912 446.209 122.702 447.054 122.859L457.09 124.597C457.882 124.755 458.674 124.176 458.833 123.386L460.153 115.647C460.312 114.805 459.784 114.068 458.938 113.91Z" fill="#DADADA"/>
<defs>
<clipPath id="clip0">
<rect width="196.386" height="162.72" fill="white" transform="translate(189.732 30.0813)"/>
</clipPath>
</defs>
</svg>
