<?xml version="1.0" encoding="utf-8"?>
<!-- Generator: Adobe Illustrator 23.0.4, SVG Export Plug-In . SVG Version: 6.00 Build 0)  -->
<svg version="1.1" id="Layer_1" xmlns="http://www.w3.org/2000/svg" xmlns:xlink="http://www.w3.org/1999/xlink" x="0px" y="0px"
	 viewBox="0 0 682.8 261.6" style="enable-background:new 0 0 682.8 261.6;" xml:space="preserve">
<style type="text/css">
	.st0{fill:#0269B3;}
	.st1{fill:#F78C02;}
	.st2{fill:#1427A9;}
</style>
<path class="st0" fill="#0269B3" d="M305.7,228.7c-2.2-0.4-4.2-1-6.1-2.2c-3-1.8-5.5-4.3-7.5-7.1c-1.9-2.6-3.5-5.5-4.5-8.5
	c-2.1-6.4-1.7-13.5,1.2-19.6c3.8-8.1,11.5-13.8,19.9-16.7c8.4-2.9,17.5-3.2,26.4-2.5c1-3.8-0.8-8-4-10.1c-3.2-2.1-7.7-2.1-11,0
	s-5.3,6-5.2,9.8c-6.8,0.1-13.6,0.1-20.4,0.2c-0.7,0-1.4,0-2-0.3c-1.4-0.6-1.9-2.4-2-3.9c-0.4-6.2,2.8-12.3,7.5-16.4
	c4.7-4.1,10.7-6.4,16.8-7.6c8.6-1.7,17.6-1.4,26.1,1c4.7,1.3,9.4,3.3,12.9,6.8c3.5,3.5,5.5,8.2,6.4,13c1,4.8,1,9.8,0.9,14.7
	c-0.1,16-0.7,32.1,2.5,47.7c-7.3,0-14.5,0-21.8,0c-0.7,0-1.4,0-2-0.4c-0.9-0.7-0.9-2-1.2-3c-0.1-0.4-0.3-0.8-0.7-1
	c-0.9-0.5-2.3,1.3-3,1.7c-1.9,1.3-3.8,2.5-6,3.4c-3.5,1.5-7.3,2.3-11.1,2.3C313.7,230,309.6,229.4,305.7,228.7z M335.2,190.1
	c-6.9-0.6-13.1-0.2-18.7,3.2c-3.4,2.1-4.9,5.3-4.7,9.3c0.1,3.4,1.9,5.7,4.8,7.1c5.1,2.5,13.9,0.8,16.4-6
	C334.5,199.4,335,195,335.2,190.1z"/>
<path class="st0" fill="#0269B3" d="M524.7,175.6c-1.8-15.9-10.9-27.4-24.7-31.2c-5.2-1.5-10.5-1.7-15.8-1.4c-14.8,0.8-25.8,7.6-31.6,21.4
	c-6.6,15.8-6.4,31.8,1.2,47.3c2.8,5.8,7.1,10.8,12.7,13.9c1.9,1,3.8,1.8,5.8,2.5c2.1,0.6,4.2,0.8,6.3,1c4.1,0.2,8.3,0.4,12.4,0.2
	c4-0.2,8.3-0.4,12.1-1.9c3.2-1.3,6.1-3.2,8.6-5.6c4.4-4.1,7.5-9.3,9.6-14.9c0.8-2.2,1.4-4.4,1.9-6.7c0.3-1.4-0.8-2.7-2.3-2.7h-22.1
	c0,0,0,0.1,0,0.1c-0.3,3-0.8,6-2.2,8.5c-2.1,3.7-5.7,5.2-9.8,5.2c-2.3,0-4.7-0.5-6.7-1.7c-2.6-1.6-4.3-4.5-5.1-7.4
	c-0.4-1.5-0.7-3.1-0.8-4.6c-0.1-0.8-0.1-4.5-0.1-4.5s3.9-0.1,4.7-0.1c1.7,0,3.3,0,5,0c4.7,0,9.5,0,14.2,0c1.9,0,3.8,0,5.6,0h20.9v0
	C525.2,186.8,525.3,181.2,524.7,175.6z M474.6,173.5c-0.3-8.8,6-13.1,11.9-13c7.6,0.1,11.5,3.9,12.1,13H474.6z"/>
<path class="st0" fill="#0269B3" d="M574.7,230.2c2-0.1,3.9-0.3,5.7-0.6c1.1-0.2,2.2-0.3,3.3-0.8c0.6-0.2,4.8-1.9,4.8-2.5c0-6.4,0-12.3,0-18.4
	c-2.9,0.7-5.6,1.7-8.4,2c-7.9,1-10.4-1.2-10.5-9.1c0-2.9,0-37.7,0-37.7c6.3,0,12.1,0,17.7,0c0.9-9.2,0.5-12-1.6-15
	c-4.1-5.7-10.5-3.5-16.2-4.6c0-2.2,0-4.2,0-6.2c0-2,0.1-4,0-6c-0.2-5.3-3.1-9.2-8-10c-5.5-0.9-11.1-0.3-17-0.3c0,7.9,0,15.2,0,22.5
	c-7,0.3-13.9,0.3-13.9,0.3s0,12.9,0,19.4c4.8,0,9.2,0,14,0c0,7.3,0,14.6,0,21.9c0,7-0.3,14.1,0.1,21.1c0.3,4.5,1.2,9.1,3.5,13
	C553.7,228.3,564.8,230.7,574.7,230.2z"/>
<path class="st0" fill="#0269B3" d="M437.6,227c-8.5,0-16.4,0-24.7,0c0-38.7,0-77.4,0-116.3c5.4,0,10.7-0.4,15.9,0.1c5.3,0.5,8.4,4.3,8.7,9.9
	c0.2,3.5,0.1,7,0.1,10.5c0,30,0,59.9,0,89.9C437.6,222.8,437.6,224.6,437.6,227z"/>
<path class="st0" fill="#0269B3" d="M399.1,226.9c-8.5,0-16.4,0-24.5,0c0-38.8,0-77.4,0-116.5c5.7,0,11.1-0.5,16.5,0.3c4.3,0.7,7.1,3.6,7.8,7.9
	c0.2,1.3,0.3,2.6,0.3,4c0,33.6,0,67.3,0,100.9C399.3,224.6,399.2,225.6,399.1,226.9z"/>
<path class="st1" d="M106,0C47.5,0,0,47.5,0,106c0,58.5,47.5,106,106,106c10.7,0,21-1.6,30.7-4.5L143,227h29l-33-101.9
	c-1.2-3.6-4.6-6.1-8.4-6.1H108l19.1,59c-6.7,2-13.8,3-21.1,3c-41.4,0-75-33.6-75-75c0-41.4,33.6-75,75-75s75,33.6,75,75
	c0,6.8-0.9,13.4-2.6,19.6l13.7,42.2c2.2-3,4.2-6.2,6.1-9.4c3.5-6.1,6.4-12.6,8.6-19.5c3.4-10.4,5.2-21.5,5.2-33
	C212,47.5,164.5,0,106,0z"/>
<path class="st0" fill="#0269B3" d="M285.5,160.6L264,227h-29l-14.5-46.4L206,227h-29l-10.9-33.7L155.9,162L142,119h22.6c3.8,0,7.2,2.5,8.4,6.1
	l2.8,8.5l12.7,39l5.3,16.2L208,144h18c4.2,0,7.9,2.7,9.2,6.7l12.2,38.2l14.4-44.9h11.7C282.1,144,288.2,152.5,285.5,160.6z"/>
<path class="st2" d="M323.9,229.1"/>
<path class="st2" d="M323.9,229.1"/>
<path class="st2" d="M524.5,192.9L524.5,192.9l-20.9,0c-1.9,0-3.8,0-5.6,0H524.5z"/>
<path class="st0" fill="#0269B3" d="M594.5,141.1h23.2c4.4,0,8.2,2.9,9.4,7.1l12.2,41.1c0.7,2.5,1.2,5.6,1.4,9.1h0.6c0.4-3.4,1-6.4,1.8-9l14.6-48.4
	h15.1c7,0,11.9,7,9.4,13.6L654,230.5c-4.3,11.4-9.5,19.4-15.7,24.1c-6.2,4.7-14.3,7-24.3,7c-3.9,0-7.8-0.4-11.9-1.3v-22.8
	c2.6,0.6,5.6,0.9,9,0.9c2.6,0,4.8-0.5,6.7-1.5c1.9-1,3.6-2.4,5-4.2c1.4-1.8,3-4.8,4.6-8.9L594.5,141.1z"/>
</svg>
