<svg width="460" height="263" viewBox="0 0 460 263" fill="none" xmlns="http://www.w3.org/2000/svg">
<g opacity="0.03" clip-path="url(#clip0)">
<path d="M205.949 209.117C204.467 208.851 203.12 208.452 201.84 207.654C199.819 206.456 198.134 204.793 196.787 202.931C195.507 201.202 194.429 199.273 193.755 197.277C192.34 193.021 192.61 188.298 194.564 184.241C197.124 178.853 202.311 175.062 207.97 173.133C213.629 171.204 219.76 171.005 225.756 171.47C226.43 168.943 225.217 166.149 223.061 164.752C220.905 163.355 217.874 163.355 215.65 164.752C213.427 166.149 212.08 168.743 212.147 171.271C207.566 171.337 202.985 171.337 198.404 171.404C197.932 171.404 197.461 171.404 197.056 171.204C196.113 170.805 195.776 169.608 195.709 168.61C195.439 164.486 197.595 160.429 200.762 157.702C203.928 154.975 207.97 153.445 212.08 152.647C217.874 151.516 223.937 151.716 229.663 153.312C232.83 154.177 235.996 155.507 238.354 157.835C240.712 160.163 242.059 163.289 242.666 166.482C243.339 169.674 243.339 173 243.272 176.259C243.205 186.901 242.8 197.61 244.956 207.986C240.038 207.986 235.188 207.986 230.27 207.986C229.798 207.986 229.326 207.986 228.922 207.72C228.316 207.254 228.316 206.39 228.114 205.725C228.046 205.459 227.912 205.193 227.642 205.06C227.036 204.727 226.093 205.924 225.621 206.19C224.341 207.055 223.061 207.853 221.579 208.452C219.221 209.449 216.661 209.982 214.101 209.982C211.339 209.982 208.577 209.582 205.949 209.117ZM225.823 183.443C221.175 183.043 216.998 183.31 213.225 185.571C210.935 186.968 209.924 189.096 210.059 191.757C210.126 194.018 211.339 195.548 213.292 196.479C216.728 198.142 222.657 197.011 224.341 192.488C225.352 189.628 225.688 186.702 225.823 183.443Z" fill="#1427A9"/>
<path d="M353.489 173.798C352.276 163.222 346.145 155.573 336.848 153.046C333.345 152.048 329.774 151.915 326.204 152.115C316.233 152.647 308.822 157.17 304.915 166.349C300.469 176.858 300.603 187.5 305.723 197.81C307.61 201.667 310.507 204.993 314.279 207.055C315.559 207.72 316.839 208.252 318.187 208.718C319.602 209.117 321.016 209.25 322.431 209.383C325.193 209.516 328.023 209.649 330.785 209.516C333.48 209.383 336.377 209.25 338.937 208.252C341.093 207.388 343.046 206.124 344.73 204.527C347.695 201.8 349.783 198.342 351.198 194.617C351.737 193.154 352.141 191.69 352.478 190.161C352.68 189.229 351.939 188.365 350.929 188.365H336.04V188.431C335.838 190.427 335.501 192.422 334.558 194.085C333.143 196.546 330.718 197.544 327.955 197.544C326.406 197.544 324.789 197.211 323.442 196.413C321.69 195.349 320.545 193.42 320.006 191.491C319.736 190.493 319.534 189.429 319.467 188.431C319.4 187.899 319.4 185.438 319.4 185.438C319.4 185.438 322.027 185.372 322.566 185.372C323.711 185.372 324.789 185.372 325.934 185.372C329.101 185.372 332.334 185.372 335.501 185.372C336.781 185.372 338.061 185.372 339.274 185.372H353.354C353.825 181.248 353.893 177.523 353.489 173.798ZM319.736 172.401C319.534 166.548 323.779 163.688 327.753 163.755C332.873 163.821 335.501 166.349 335.905 172.401H319.736Z" fill="#1427A9"/>
<path d="M387.173 210.115C388.521 210.048 389.801 209.915 391.013 209.716C391.755 209.583 392.496 209.516 393.237 209.183C393.641 209.05 396.47 207.92 396.47 207.521C396.47 203.264 396.47 199.339 396.47 195.282C394.517 195.748 392.698 196.413 390.811 196.612C385.489 197.278 383.805 195.814 383.738 190.56C383.738 188.631 383.738 165.484 383.738 165.484C387.982 165.484 391.889 165.484 395.662 165.484C396.268 159.365 395.999 157.502 394.584 155.507C391.822 151.716 387.51 153.179 383.67 152.447C383.67 150.984 383.67 149.654 383.67 148.323C383.67 146.993 383.738 145.663 383.67 144.333C383.535 140.807 381.582 138.213 378.281 137.681C374.575 137.083 370.803 137.482 366.828 137.482C366.828 142.736 366.828 147.592 366.828 152.447C362.112 152.647 357.463 152.647 357.463 152.647C357.463 152.647 357.463 161.227 357.463 165.55C360.697 165.55 363.661 165.55 366.895 165.55C366.895 170.406 366.895 175.261 366.895 180.117C366.895 184.773 366.693 189.495 366.963 194.151C367.165 197.144 367.771 200.204 369.32 202.798C373.026 208.851 380.504 210.447 387.173 210.115Z" fill="#1427A9"/>
<path d="M294.81 207.986C289.083 207.986 283.761 207.986 278.169 207.986C278.169 182.245 278.169 156.505 278.169 130.631C281.807 130.631 285.378 130.365 288.881 130.697C292.452 131.03 294.54 133.557 294.742 137.282C294.877 139.61 294.81 141.938 294.81 144.266C294.81 164.22 294.81 184.108 294.81 204.062C294.81 205.193 294.81 206.39 294.81 207.986Z" fill="#1427A9"/>
<path d="M268.872 207.92C263.146 207.92 257.824 207.92 252.367 207.92C252.367 182.112 252.367 156.438 252.367 130.431C256.207 130.431 259.845 130.099 263.483 130.631C266.38 131.096 268.266 133.025 268.738 135.885C268.872 136.75 268.94 137.615 268.94 138.546C268.94 160.895 268.94 183.31 268.94 205.658C269.007 206.39 268.94 207.055 268.872 207.92Z" fill="#1427A9"/>
<path d="M105.029 164.752L111.901 185.638C117.56 181.78 122.613 177.19 126.924 171.869L118.368 145.929C115.472 153.179 110.89 159.564 105.029 164.752Z" fill="#F78C02"/>
<path d="M71.4119 57C32.0006 57 0 88.594 0 127.505C0 166.415 32.0006 198.009 71.4119 198.009C78.6204 198.009 85.5595 196.945 92.0943 195.016L96.3386 207.986H115.876L93.6439 140.209C92.8354 137.814 90.5448 136.151 87.9848 136.151H72.7592L85.6269 175.394C81.1131 176.725 76.3298 177.39 71.4119 177.39C43.5208 177.39 20.8846 155.041 20.8846 127.505C20.8846 99.9679 43.5208 77.6193 71.4119 77.6193C99.3029 77.6193 121.939 99.9679 121.939 127.505C121.939 132.028 121.333 136.417 120.188 140.541L129.417 168.61C130.899 166.615 132.247 164.486 133.527 162.358C135.885 158.3 137.838 153.977 139.32 149.388C141.611 142.47 142.824 135.087 142.824 127.438C142.824 88.594 110.823 57 71.4119 57Z" fill="#F78C02"/>
<path d="M192.34 163.821L177.856 207.986H158.319L148.55 177.124L138.782 207.986H119.244L111.901 185.571L105.029 164.752L95.6649 136.151H110.891C113.451 136.151 115.741 137.814 116.55 140.209L118.436 145.862L126.992 171.803L130.562 182.578L140.129 152.78H152.255C155.085 152.78 157.578 154.576 158.453 157.236L166.673 182.644L176.374 152.78H184.256C190.05 152.78 194.159 158.433 192.34 163.821Z" fill="#1427A9"/>
<path d="M400.513 150.851H416.142C419.107 150.851 421.667 152.78 422.475 155.573L430.694 182.911C431.166 184.573 431.503 186.635 431.637 188.963H432.042C432.311 186.702 432.715 184.706 433.254 182.977L443.09 150.784H453.263C457.979 150.784 461.28 155.44 459.596 159.83L440.597 210.314C437.701 217.897 434.197 223.218 430.02 226.344C425.844 229.47 420.387 231 413.65 231C411.022 231 408.395 230.734 405.633 230.135V214.97C407.384 215.369 409.405 215.569 411.696 215.569C413.448 215.569 414.93 215.236 416.21 214.571C417.49 213.906 418.635 212.975 419.578 211.778C420.521 210.58 421.599 208.585 422.677 205.858L400.513 150.851Z" fill="#1427A9"/>
</g>
<path d="M252.542 263C220.991 263 175.68 263 175.68 263L161.359 251.727L215.543 149.641C221.27 138.852 236.728 138.85 242.455 149.639C266.29 194.544 296.641 251.727 296.641 251.727L282.32 263C282.32 263 269.394 263 252.542 263Z" fill="#5263D7"/>
<path d="M242.456 149.64C239.592 144.245 234.296 141.548 229 141.549V263C237.097 263 245.193 263 252.542 263C269.394 263 282.32 263 282.32 263L296.641 251.727C296.641 251.727 266.29 194.544 242.456 149.64Z" fill="#1427A9"/>
<path d="M169.751 176.507C166.776 173.532 166.776 168.711 169.751 165.736L212.843 122.644C215.818 119.668 220.639 119.668 223.614 122.644C226.589 125.619 226.589 130.44 223.614 133.415L180.522 176.507C177.547 179.482 172.727 179.482 169.751 176.507Z" fill="#A1A7B3"/>
<path d="M229 109.641C224.79 109.641 221.383 106.234 221.383 102.023V41.0859C221.383 36.8757 224.79 33.4688 229 33.4688C233.21 33.4688 236.617 36.8757 236.617 41.0859V102.023C236.617 106.234 233.21 109.641 229 109.641Z" fill="#A1A7B3"/>
<path d="M236.617 102.023V41.0859C236.617 36.8757 233.21 33.4688 229 33.4688V109.641C233.21 109.641 236.617 106.234 236.617 102.023Z" fill="#979CA7"/>
<path d="M229 201.047C224.79 201.047 221.383 197.64 221.383 193.43V132.492C221.383 128.282 224.79 124.875 229 124.875C233.21 124.875 236.617 128.282 236.617 132.492V193.43C236.617 197.64 233.21 201.047 229 201.047Z" fill="#A1A7B3"/>
<path d="M236.617 193.43V132.492C236.617 128.282 233.21 124.875 229 124.875V201.047C233.21 201.047 236.617 197.64 236.617 193.43Z" fill="#979CA7"/>
<path d="M213.766 124.875H152.828C148.618 124.875 145.211 121.468 145.211 117.258C145.211 113.048 148.618 109.641 152.828 109.641H213.766C217.976 109.641 221.383 113.048 221.383 117.258C221.383 121.468 217.976 124.875 213.766 124.875Z" fill="#A1A7B3"/>
<path d="M305.172 124.875H244.234C240.024 124.875 236.617 121.468 236.617 117.258C236.617 113.048 240.024 109.641 244.234 109.641H305.172C309.382 109.641 312.789 113.048 312.789 117.258C312.789 121.468 309.382 124.875 305.172 124.875Z" fill="#979CA7"/>
<path d="M277.478 176.507L234.386 133.415C231.411 130.44 231.411 125.619 234.386 122.644C237.361 119.668 242.182 119.668 245.157 122.644L288.249 165.736C291.224 168.711 291.224 173.532 288.249 176.507C285.273 179.482 280.453 179.482 277.478 176.507Z" fill="#979CA7"/>
<path d="M212.843 111.872L169.751 68.7805C166.776 65.8052 166.776 60.9846 169.751 58.0093C172.727 55.034 177.547 55.034 180.523 58.0093L223.615 101.101C226.59 104.077 226.59 108.897 223.615 111.872C220.639 114.848 215.819 114.848 212.843 111.872Z" fill="#A1A7B3"/>
<path d="M234.385 111.872C231.41 108.897 231.41 104.077 234.385 101.101L277.477 58.0093C280.453 55.034 285.273 55.034 288.249 58.0093C291.224 60.9846 291.224 65.8052 288.249 68.7805L245.157 111.872C242.181 114.848 237.361 114.848 234.385 111.872Z" fill="#979CA7"/>
<path d="M229 79.1719C207.977 79.1719 190.914 96.2344 190.914 117.258C190.914 138.281 207.977 155.344 229 155.344C250.023 155.344 267.086 138.281 267.086 117.258C267.086 96.2344 250.023 79.1719 229 79.1719Z" fill="#D5DCEC"/>
<path d="M229 94.4062C216.355 94.4062 206.148 104.613 206.148 117.258C206.148 129.902 216.355 140.109 229 140.109C241.645 140.109 251.852 129.902 251.852 117.258C251.852 104.613 241.645 94.4062 229 94.4062Z" fill="#7F838C"/>
<path d="M267.086 117.258C267.086 138.281 250.023 155.344 229 155.344V79.1719C250.023 79.1719 267.086 96.2344 267.086 117.258Z" fill="#B8BFCC"/>
<path d="M251.852 117.258C251.852 129.902 241.645 140.109 229 140.109V94.4062C241.645 94.4062 251.852 104.613 251.852 117.258Z" fill="#757982"/>
<path d="M359 255.383C359 259.648 355.649 263 351.383 263H106.617C102.351 263 99 259.648 99 255.383C99 251.117 102.351 247.766 106.617 247.766H351.383C355.649 247.766 359 251.117 359 255.383Z" fill="#87E394"/>
<path d="M229 109.641C224.734 109.641 221.383 112.992 221.383 117.258C221.383 121.523 224.734 124.875 229 124.875C233.266 124.875 236.617 121.523 236.617 117.258C236.617 112.992 233.266 109.641 229 109.641Z" fill="#D5DCEC"/>
<path d="M236.617 117.258C236.617 121.523 233.266 124.875 229 124.875V109.641C233.266 109.641 236.617 112.992 236.617 117.258Z" fill="#B8BFCC"/>
<path d="M229 18.2344C174.308 18.2344 129.977 62.5659 129.977 117.258C129.977 171.949 174.308 216.281 229 216.281C283.692 216.281 328.023 171.949 328.023 117.258C328.023 62.5659 283.692 18.2344 229 18.2344ZM229 201.047C182.688 201.047 145.211 163.57 145.211 117.258C145.211 70.9448 182.688 33.4688 229 33.4688C275.312 33.4688 312.789 70.9448 312.789 117.258C312.789 163.57 275.312 201.047 229 201.047Z" fill="#A1A7B3"/>
<path d="M328.023 117.258C328.023 171.949 283.692 216.281 229 216.281V201.047C275.312 201.047 312.789 163.57 312.789 117.258C312.789 70.9448 275.312 33.4688 229 33.4688V18.2344C283.692 18.2344 328.023 62.5659 328.023 117.258Z" fill="#979CA7"/>
<path d="M137.594 140.109C124.993 140.109 114.742 129.859 114.742 117.258C114.742 104.657 124.993 94.4062 137.594 94.4062C150.195 94.4062 160.445 104.657 160.445 117.258C160.445 129.859 150.195 140.109 137.594 140.109Z" fill="#D5DCEC"/>
<path d="M137.594 140.109C150.195 140.109 160.445 129.859 160.445 117.258H114.742C114.742 129.859 124.993 140.109 137.594 140.109Z" fill="#FFCC8B"/>
<path d="M309.742 165.703C300.906 156.867 286.434 156.867 277.445 165.703C273.028 170.273 270.742 176.215 270.742 182.004C270.742 187.945 273.028 193.582 277.445 198C281.863 202.57 287.805 204.703 293.594 204.703C299.535 204.703 305.325 202.57 309.742 198C314.313 193.583 316.445 187.946 316.445 182.004C316.598 176.215 314.312 170.273 309.742 165.703Z" fill="#ADB3BF"/>
<path d="M320.406 140.109C307.805 140.109 297.555 129.859 297.555 117.258C297.555 104.657 307.805 94.4062 320.406 94.4062C333.007 94.4062 343.258 104.657 343.258 117.258C343.258 129.859 333.007 140.109 320.406 140.109Z" fill="#C9D0DF"/>
<path d="M320.406 140.109C333.007 140.109 343.258 129.859 343.258 117.258H297.555C297.555 129.859 307.805 140.109 320.406 140.109Z" fill="#F78C02"/>
<path d="M316.445 182.004C316.445 187.945 314.312 193.582 309.742 198C305.325 202.57 299.536 204.703 293.594 204.703C287.805 204.703 281.863 202.57 277.445 198C273.028 193.583 270.742 187.946 270.742 182.004H316.445Z" fill="#CF4529"/>
<path d="M309.742 165.703C300.906 156.867 286.434 156.867 277.445 165.703C273.028 170.273 270.742 176.215 270.742 182.004C270.742 187.945 273.028 193.582 277.445 198C281.863 202.57 287.805 204.703 293.594 204.703C299.535 204.703 305.325 202.57 309.742 198C314.313 193.583 316.445 187.946 316.445 182.004C316.598 176.215 314.312 170.273 309.742 165.703Z" fill="#C9D0DF"/>
<path d="M316.445 182.004C316.445 187.945 314.312 193.582 309.742 198C305.325 202.57 299.536 204.703 293.594 204.703C287.805 204.703 281.863 202.57 277.445 198C273.028 193.583 270.742 187.946 270.742 182.004H316.445Z" fill="#F78C02"/>
<path d="M180.25 36.211C171.414 27.3745 156.942 27.3745 147.953 36.211C143.536 40.7813 141.25 46.7227 141.25 52.5117C141.25 58.4531 143.536 64.0899 147.953 68.5078C152.371 73.0781 158.312 75.211 164.102 75.211C170.043 75.211 175.833 73.0781 180.25 68.5078C184.82 64.0904 186.953 58.4537 186.953 52.5117C187.105 46.7227 184.82 40.7808 180.25 36.211Z" fill="#D5DCEC"/>
<path d="M186.953 52.5117C186.953 58.4531 184.82 64.0898 180.25 68.5078C175.833 73.0781 170.043 75.2109 164.102 75.2109C158.312 75.2109 152.371 73.0781 147.953 68.5078C143.535 64.0898 141.25 58.4531 141.25 52.5117H186.953Z" fill="#FFCC8B"/>
<path d="M229 3C216.355 3 206.148 13.2065 206.148 25.8516C206.148 38.4956 216.355 48.7031 229 48.7031C241.645 48.7031 251.852 38.4956 251.852 25.8516C251.852 13.2065 241.645 3 229 3Z" fill="#D5DCEC"/>
<path d="M251.852 25.8516C251.852 38.4956 241.645 48.7031 229 48.7031C216.355 48.7031 206.148 38.4956 206.148 25.8516H251.852Z" fill="#FFCC8B"/>
<path d="M251.852 25.8516C251.852 38.4956 241.645 48.7031 229 48.7031V3C241.645 3 251.852 13.2065 251.852 25.8516Z" fill="#C9D0DF"/>
<path d="M251.852 25.8516C251.852 38.4956 241.645 48.7031 229 48.7031V25.8516H251.852Z" fill="#F78C02"/>
<path d="M229 185.812C216.355 185.812 206.148 196.019 206.148 208.664C206.148 221.308 216.355 232.023 229 232.023C241.645 232.023 251.852 221.308 251.852 208.664C251.852 196.019 241.645 185.812 229 185.812Z" fill="#D5DCEC"/>
<path d="M251.852 208.664C251.852 221.308 241.645 232.023 229 232.023C216.355 232.023 206.148 221.308 206.148 208.664H251.852Z" fill="#FFCC8B"/>
<path d="M251.852 208.664C251.852 221.308 241.645 232.023 229 232.023V185.812C241.645 185.812 251.852 196.019 251.852 208.664Z" fill="#C9D0DF"/>
<path d="M251.852 208.664C251.852 221.308 241.645 232.023 229 232.023V208.664H251.852Z" fill="#F78C02"/>
<path d="M180.555 165.703C171.566 156.867 157.094 156.867 148.258 165.703C143.688 170.273 141.402 176.215 141.555 182.004C141.555 187.945 143.688 193.582 148.258 198C152.675 202.57 158.464 204.703 164.406 204.703C170.195 204.703 176.137 202.57 180.555 198C184.972 193.583 187.258 187.946 187.258 182.004C187.258 176.215 184.973 170.273 180.555 165.703Z" fill="#D5DCEC"/>
<path d="M187.258 182.004C187.258 187.945 184.972 193.582 180.555 198C176.137 202.57 170.195 204.703 164.406 204.703C158.465 204.703 152.675 202.57 148.258 198C143.687 193.583 141.555 187.946 141.555 182.004H187.258Z" fill="#FFCC8B"/>
<path d="M310.047 36.211C301.058 27.3745 286.586 27.3745 277.75 36.211C273.18 40.7813 270.895 46.7227 271.047 52.5117C271.047 58.4531 273.18 64.0899 277.75 68.5078C282.167 73.0781 287.957 75.211 293.898 75.211C299.688 75.211 305.629 73.0781 310.047 68.5078C314.464 64.0904 316.75 58.4537 316.75 52.5117C316.75 46.7227 314.465 40.7808 310.047 36.211Z" fill="#C9D0DF"/>
<path d="M316.75 52.5117C316.75 58.4531 314.464 64.0898 310.047 68.5078C305.629 73.0781 299.688 75.2109 293.898 75.2109C287.957 75.2109 282.167 73.0781 277.75 68.5078C273.18 64.0904 271.047 58.4536 271.047 52.5117H316.75Z" fill="#F78C02"/>
<path d="M359 255.383C359 259.648 355.649 263 351.383 263H229V247.766H351.383C355.649 247.766 359 251.117 359 255.383Z" fill="#4BBD5C"/>
<defs>
<clipPath id="clip0">
<rect width="460" height="174" fill="white" transform="translate(0 57)"/>
</clipPath>
</defs>
</svg>
