<svg width="460" height="262" viewBox="0 0 460 262" fill="none" xmlns="http://www.w3.org/2000/svg">
<g opacity="0.03" clip-path="url(#clip0)">
<path d="M205.949 197.117C204.467 196.851 203.12 196.452 201.84 195.654C199.819 194.456 198.134 192.793 196.787 190.931C195.507 189.202 194.429 187.273 193.755 185.277C192.34 181.021 192.61 176.298 194.564 172.241C197.124 166.853 202.311 163.062 207.97 161.133C213.629 159.204 219.76 159.005 225.756 159.47C226.43 156.943 225.217 154.149 223.061 152.752C220.905 151.355 217.874 151.355 215.65 152.752C213.427 154.149 212.08 156.743 212.147 159.271C207.566 159.337 202.985 159.337 198.404 159.404C197.932 159.404 197.461 159.404 197.056 159.204C196.113 158.805 195.776 157.608 195.709 156.61C195.439 152.486 197.595 148.429 200.762 145.702C203.928 142.975 207.97 141.445 212.08 140.647C217.874 139.516 223.937 139.716 229.663 141.312C232.83 142.177 235.996 143.507 238.354 145.835C240.712 148.163 242.059 151.289 242.666 154.482C243.339 157.674 243.339 161 243.272 164.259C243.205 174.901 242.8 185.61 244.956 195.986C240.038 195.986 235.188 195.986 230.27 195.986C229.798 195.986 229.326 195.986 228.922 195.72C228.316 195.254 228.316 194.39 228.114 193.725C228.046 193.459 227.912 193.193 227.642 193.06C227.036 192.727 226.093 193.924 225.621 194.19C224.341 195.055 223.061 195.853 221.579 196.452C219.221 197.449 216.661 197.982 214.101 197.982C211.339 197.982 208.577 197.582 205.949 197.117ZM225.823 171.443C221.175 171.043 216.998 171.31 213.225 173.571C210.935 174.968 209.924 177.096 210.059 179.757C210.126 182.018 211.339 183.548 213.292 184.479C216.728 186.142 222.657 185.011 224.341 180.488C225.352 177.628 225.688 174.702 225.823 171.443Z" fill="#1427A9"/>
<path d="M353.489 161.798C352.276 151.222 346.145 143.573 336.848 141.046C333.345 140.048 329.774 139.915 326.204 140.115C316.233 140.647 308.822 145.17 304.915 154.349C300.469 164.858 300.603 175.5 305.723 185.81C307.61 189.667 310.507 192.993 314.279 195.055C315.559 195.72 316.839 196.252 318.187 196.718C319.602 197.117 321.016 197.25 322.431 197.383C325.193 197.516 328.023 197.649 330.785 197.516C333.48 197.383 336.377 197.25 338.937 196.252C341.093 195.388 343.046 194.124 344.73 192.527C347.695 189.8 349.783 186.342 351.198 182.617C351.737 181.154 352.141 179.69 352.478 178.161C352.68 177.229 351.939 176.365 350.929 176.365H336.04V176.431C335.838 178.427 335.501 180.422 334.558 182.085C333.143 184.546 330.718 185.544 327.955 185.544C326.406 185.544 324.789 185.211 323.442 184.413C321.69 183.349 320.545 181.42 320.006 179.491C319.736 178.493 319.534 177.429 319.467 176.431C319.4 175.899 319.4 173.438 319.4 173.438C319.4 173.438 322.027 173.372 322.566 173.372C323.711 173.372 324.789 173.372 325.934 173.372C329.101 173.372 332.334 173.372 335.501 173.372C336.781 173.372 338.061 173.372 339.274 173.372H353.354C353.825 169.248 353.893 165.523 353.489 161.798ZM319.736 160.401C319.534 154.548 323.779 151.688 327.753 151.755C332.873 151.821 335.501 154.349 335.905 160.401H319.736Z" fill="#1427A9"/>
<path d="M387.173 198.115C388.521 198.048 389.801 197.915 391.013 197.716C391.755 197.583 392.496 197.516 393.237 197.183C393.641 197.05 396.47 195.92 396.47 195.521C396.47 191.264 396.47 187.339 396.47 183.282C394.517 183.748 392.698 184.413 390.811 184.612C385.489 185.278 383.805 183.814 383.738 178.56C383.738 176.631 383.738 153.484 383.738 153.484C387.982 153.484 391.889 153.484 395.662 153.484C396.268 147.365 395.999 145.502 394.584 143.507C391.822 139.716 387.51 141.179 383.67 140.447C383.67 138.984 383.67 137.654 383.67 136.323C383.67 134.993 383.738 133.663 383.67 132.333C383.535 128.807 381.582 126.213 378.281 125.681C374.575 125.083 370.803 125.482 366.828 125.482C366.828 130.736 366.828 135.592 366.828 140.447C362.112 140.647 357.463 140.647 357.463 140.647C357.463 140.647 357.463 149.227 357.463 153.55C360.697 153.55 363.661 153.55 366.895 153.55C366.895 158.406 366.895 163.261 366.895 168.117C366.895 172.773 366.693 177.495 366.963 182.151C367.165 185.144 367.771 188.204 369.32 190.798C373.026 196.851 380.504 198.447 387.173 198.115Z" fill="#1427A9"/>
<path d="M294.81 195.986C289.083 195.986 283.761 195.986 278.169 195.986C278.169 170.245 278.169 144.505 278.169 118.631C281.807 118.631 285.378 118.365 288.881 118.697C292.452 119.03 294.54 121.557 294.742 125.282C294.877 127.61 294.81 129.938 294.81 132.266C294.81 152.22 294.81 172.108 294.81 192.062C294.81 193.193 294.81 194.39 294.81 195.986Z" fill="#1427A9"/>
<path d="M268.872 195.92C263.146 195.92 257.824 195.92 252.367 195.92C252.367 170.112 252.367 144.438 252.367 118.431C256.207 118.431 259.845 118.099 263.483 118.631C266.38 119.096 268.266 121.025 268.738 123.885C268.872 124.75 268.94 125.615 268.94 126.546C268.94 148.895 268.94 171.31 268.94 193.658C269.007 194.39 268.94 195.055 268.872 195.92Z" fill="#1427A9"/>
<path d="M105.029 152.752L111.901 173.638C117.56 169.78 122.613 165.19 126.924 159.869L118.368 133.929C115.472 141.179 110.89 147.564 105.029 152.752Z" fill="#F78C02"/>
<path d="M71.4119 45C32.0006 45 0 76.594 0 115.505C0 154.415 32.0006 186.009 71.4119 186.009C78.6204 186.009 85.5595 184.945 92.0943 183.016L96.3386 195.986H115.876L93.6439 128.209C92.8354 125.814 90.5448 124.151 87.9848 124.151H72.7592L85.6269 163.394C81.1131 164.725 76.3298 165.39 71.4119 165.39C43.5208 165.39 20.8846 143.041 20.8846 115.505C20.8846 87.9679 43.5208 65.6193 71.4119 65.6193C99.3029 65.6193 121.939 87.9679 121.939 115.505C121.939 120.028 121.333 124.417 120.188 128.541L129.417 156.61C130.899 154.615 132.247 152.486 133.527 150.358C135.885 146.3 137.838 141.977 139.32 137.388C141.611 130.47 142.824 123.087 142.824 115.438C142.824 76.594 110.823 45 71.4119 45Z" fill="#F78C02"/>
<path d="M192.34 151.821L177.856 195.986H158.319L148.55 165.124L138.782 195.986H119.244L111.901 173.571L105.029 152.752L95.6649 124.151H110.891C113.451 124.151 115.741 125.814 116.55 128.209L118.436 133.862L126.992 159.803L130.562 170.578L140.129 140.78H152.255C155.085 140.78 157.578 142.576 158.453 145.236L166.673 170.644L176.374 140.78H184.256C190.05 140.78 194.159 146.433 192.34 151.821Z" fill="#1427A9"/>
<path d="M400.513 138.851H416.142C419.107 138.851 421.667 140.78 422.475 143.573L430.694 170.911C431.166 172.573 431.503 174.635 431.637 176.963H432.042C432.311 174.702 432.715 172.706 433.254 170.977L443.09 138.784H453.263C457.979 138.784 461.28 143.44 459.596 147.83L440.597 198.314C437.701 205.897 434.197 211.218 430.02 214.344C425.844 217.47 420.387 219 413.65 219C411.022 219 408.395 218.734 405.633 218.135V202.97C407.384 203.369 409.405 203.569 411.696 203.569C413.448 203.569 414.93 203.236 416.21 202.571C417.49 201.906 418.635 200.975 419.578 199.778C420.521 198.58 421.599 196.585 422.677 193.858L400.513 138.851Z" fill="#1427A9"/>
</g>
<path d="M109.508 95.3538H230.296V225.604H109.508V95.3538Z" fill="#1427A9"/>
<path d="M109.508 95.3538H169.902V225.604H109.508V95.3538Z" fill="#5263D7"/>
<path d="M230.296 85.866C230.296 76.7373 222.871 69.3105 213.742 69.3105H126.061C116.933 69.3105 109.508 76.7373 109.508 85.866V100.95H230.296V85.866Z" fill="#5163DD"/>
<path d="M109.508 220.008V243.447C109.508 252.575 116.933 260 126.061 260H213.744C222.871 260 230.298 252.575 230.298 243.447V220.008H109.508Z" fill="#5163DD"/>
<path d="M361.337 36.2531C365.544 36.2531 368.954 32.8432 368.954 28.6359V21.6753C368.954 15.1749 363.666 9.88449 357.164 9.88449H347.134V7.61719C347.134 3.40988 343.724 0 339.517 0C335.312 0 331.9 3.40988 331.9 7.61719V9.88449H321.871C315.37 9.88449 310.082 15.1749 310.082 21.6753V34.7137C310.082 38.1316 312.357 41.1308 315.648 42.0493L331.9 46.5938V58.6801H325.316V54.2665C325.316 50.0592 321.904 46.6493 317.699 46.6493C313.492 46.6493 310.082 50.0592 310.082 54.2665V62.1257C310.082 68.6261 315.37 73.9145 321.871 73.9145H331.9V76.7154C331.9 80.9227 335.312 84.3326 339.517 84.3326C343.724 84.3326 347.134 80.9227 347.134 76.7154V73.9145H357.164C363.666 73.9145 368.954 68.6261 368.954 62.1257V46.9131C368.954 43.4953 366.679 40.4961 363.388 39.5776L347.134 35.0331V25.1189H353.72V28.6359C353.72 32.8432 357.13 36.2531 361.337 36.2531ZM353.72 52.6935V58.6801H347.134V50.8527L353.72 52.6935ZM331.9 30.7762L325.316 28.9354V25.1189H331.9V30.7762Z" fill="#4BBD5C"/>
<path d="M268.215 158.628C259.61 158.628 251.146 157.249 243.057 154.532C239.067 153.191 236.923 148.87 238.262 144.883C239.603 140.896 243.923 138.752 247.911 140.091C254.433 142.283 261.264 143.396 268.215 143.396C297.347 143.396 322.724 123.708 329.924 95.5184C330.966 91.442 335.117 88.9842 339.19 90.0237C343.264 91.0651 345.726 95.2129 344.685 99.2893C335.76 134.227 304.313 158.628 268.215 158.628Z" fill="#F78C02"/>
<path d="M201.719 61.5188C200.803 61.5188 199.871 61.3522 198.964 61.0011C195.042 59.4796 193.097 55.066 194.62 51.1443C200.315 36.4713 210.176 23.9427 223.133 14.9091C236.399 5.66141 251.989 0.771729 268.213 0.771729C280.151 0.771729 291.622 3.37228 302.312 8.5C306.105 10.321 307.705 14.8695 305.884 18.6642C304.065 22.4569 299.517 24.0557 295.722 22.2367C287.105 18.1028 277.852 16.0061 268.213 16.0061C255.119 16.0061 242.543 19.9496 231.843 27.4061C221.379 34.7019 213.417 44.8165 208.821 56.6569C207.651 59.674 204.77 61.5188 201.719 61.5188Z" fill="#F78C02"/>
<path d="M331.9 7.61719V9.88449H321.871C315.37 9.88449 310.082 15.1749 310.082 21.6753V34.7137C310.082 38.1316 312.357 41.1308 315.648 42.0493L331.9 46.5938V58.6801H325.316V54.2665C325.316 50.0592 321.904 46.6493 317.699 46.6493C313.492 46.6493 310.082 50.0592 310.082 54.2665V62.1257C310.082 68.6261 315.37 73.9145 321.871 73.9145H331.9V76.7154C331.9 80.9227 335.312 84.3326 339.517 84.3326V0C335.312 0 331.9 3.40988 331.9 7.61719ZM331.9 30.7762L325.316 28.9354V25.1189H331.9V30.7762Z" fill="#87E394"/>
<path d="M126.061 69.3105C116.933 69.3105 109.508 76.7373 109.508 85.866V100.95H169.902V69.3105H126.061Z" fill="#909FFF"/>
<path d="M109.508 243.447C109.508 252.575 116.933 260 126.061 260H169.902V220.008H109.508V243.447Z" fill="#919FFF"/>
<path d="M176.702 240.796C176.702 237.043 173.657 234.002 169.902 234.002C166.147 234.002 163.104 237.043 163.104 240.796C163.104 244.549 166.147 247.59 169.902 247.59C173.657 247.59 176.702 244.549 176.702 240.796Z" fill="#1427A9"/>
<path d="M163.104 240.796C163.104 244.547 166.147 247.59 169.902 247.59V234.002C166.147 234.002 163.104 237.043 163.104 240.796Z" fill="#5263D7"/>
<defs>
<clipPath id="clip0">
<rect width="460" height="174" fill="white" transform="translate(0 45)"/>
</clipPath>
</defs>
</svg>
