<svg width="460" height="260" viewBox="0 0 460 260" fill="none" xmlns="http://www.w3.org/2000/svg">
<g opacity="0.03" clip-path="url(#clip0)">
<path d="M205.949 209.117C204.467 208.851 203.12 208.452 201.84 207.654C199.819 206.456 198.134 204.793 196.787 202.931C195.507 201.202 194.429 199.273 193.755 197.277C192.34 193.021 192.61 188.298 194.564 184.241C197.124 178.853 202.311 175.062 207.97 173.133C213.629 171.204 219.76 171.005 225.756 171.47C226.43 168.943 225.217 166.149 223.061 164.752C220.905 163.355 217.874 163.355 215.65 164.752C213.427 166.149 212.08 168.743 212.147 171.271C207.566 171.337 202.985 171.337 198.404 171.404C197.932 171.404 197.461 171.404 197.056 171.204C196.113 170.805 195.776 169.608 195.709 168.61C195.439 164.486 197.595 160.429 200.762 157.702C203.928 154.975 207.97 153.445 212.08 152.647C217.874 151.516 223.937 151.716 229.663 153.312C232.83 154.177 235.996 155.507 238.354 157.835C240.712 160.163 242.059 163.289 242.666 166.482C243.339 169.674 243.339 173 243.272 176.259C243.205 186.901 242.8 197.61 244.956 207.986C240.038 207.986 235.188 207.986 230.27 207.986C229.798 207.986 229.326 207.986 228.922 207.72C228.316 207.254 228.316 206.39 228.114 205.725C228.046 205.459 227.912 205.193 227.642 205.06C227.036 204.727 226.093 205.924 225.621 206.19C224.341 207.055 223.061 207.853 221.579 208.452C219.221 209.449 216.661 209.982 214.101 209.982C211.339 209.982 208.577 209.582 205.949 209.117ZM225.823 183.443C221.175 183.043 216.998 183.31 213.225 185.571C210.935 186.968 209.924 189.096 210.059 191.757C210.126 194.018 211.339 195.548 213.292 196.479C216.728 198.142 222.657 197.011 224.341 192.488C225.352 189.628 225.688 186.702 225.823 183.443Z" fill="#1427A9"/>
<path d="M353.489 173.798C352.276 163.222 346.145 155.573 336.848 153.046C333.345 152.048 329.774 151.915 326.204 152.115C316.233 152.647 308.822 157.17 304.915 166.349C300.469 176.858 300.603 187.5 305.723 197.81C307.61 201.667 310.507 204.993 314.279 207.055C315.559 207.72 316.839 208.252 318.187 208.718C319.602 209.117 321.016 209.25 322.431 209.383C325.193 209.516 328.023 209.649 330.785 209.516C333.48 209.383 336.377 209.25 338.937 208.252C341.093 207.388 343.046 206.124 344.73 204.527C347.695 201.8 349.783 198.342 351.198 194.617C351.737 193.154 352.141 191.69 352.478 190.161C352.68 189.229 351.939 188.365 350.929 188.365H336.04V188.431C335.838 190.427 335.501 192.422 334.558 194.085C333.143 196.546 330.718 197.544 327.955 197.544C326.406 197.544 324.789 197.211 323.442 196.413C321.69 195.349 320.545 193.42 320.006 191.491C319.736 190.493 319.534 189.429 319.467 188.431C319.4 187.899 319.4 185.438 319.4 185.438C319.4 185.438 322.027 185.372 322.566 185.372C323.711 185.372 324.789 185.372 325.934 185.372C329.101 185.372 332.334 185.372 335.501 185.372C336.781 185.372 338.061 185.372 339.274 185.372H353.354C353.825 181.248 353.893 177.523 353.489 173.798ZM319.736 172.401C319.534 166.548 323.779 163.688 327.753 163.755C332.873 163.821 335.501 166.349 335.905 172.401H319.736Z" fill="#1427A9"/>
<path d="M387.173 210.115C388.521 210.048 389.801 209.915 391.013 209.716C391.755 209.583 392.496 209.516 393.237 209.183C393.641 209.05 396.47 207.92 396.47 207.521C396.47 203.264 396.47 199.339 396.47 195.282C394.517 195.748 392.698 196.413 390.811 196.612C385.489 197.278 383.805 195.814 383.738 190.56C383.738 188.631 383.738 165.484 383.738 165.484C387.982 165.484 391.889 165.484 395.662 165.484C396.268 159.365 395.999 157.502 394.584 155.507C391.822 151.716 387.51 153.179 383.67 152.447C383.67 150.984 383.67 149.654 383.67 148.323C383.67 146.993 383.738 145.663 383.67 144.333C383.535 140.807 381.582 138.213 378.281 137.681C374.575 137.083 370.803 137.482 366.828 137.482C366.828 142.736 366.828 147.592 366.828 152.447C362.112 152.647 357.463 152.647 357.463 152.647C357.463 152.647 357.463 161.227 357.463 165.55C360.697 165.55 363.661 165.55 366.895 165.55C366.895 170.406 366.895 175.261 366.895 180.117C366.895 184.773 366.693 189.495 366.963 194.151C367.165 197.144 367.771 200.204 369.32 202.798C373.026 208.851 380.504 210.447 387.173 210.115Z" fill="#1427A9"/>
<path d="M294.81 207.986C289.083 207.986 283.761 207.986 278.169 207.986C278.169 182.245 278.169 156.505 278.169 130.631C281.807 130.631 285.378 130.365 288.881 130.697C292.452 131.03 294.54 133.557 294.742 137.282C294.877 139.61 294.81 141.938 294.81 144.266C294.81 164.22 294.81 184.108 294.81 204.062C294.81 205.193 294.81 206.39 294.81 207.986Z" fill="#1427A9"/>
<path d="M268.872 207.92C263.146 207.92 257.824 207.92 252.367 207.92C252.367 182.112 252.367 156.438 252.367 130.431C256.207 130.431 259.845 130.099 263.483 130.631C266.38 131.096 268.266 133.025 268.738 135.885C268.872 136.75 268.94 137.615 268.94 138.546C268.94 160.895 268.94 183.31 268.94 205.658C269.007 206.39 268.94 207.055 268.872 207.92Z" fill="#1427A9"/>
<path d="M105.029 164.752L111.901 185.638C117.56 181.78 122.613 177.19 126.924 171.869L118.368 145.929C115.472 153.179 110.89 159.564 105.029 164.752Z" fill="#F78C02"/>
<path d="M71.4119 57C32.0006 57 0 88.594 0 127.505C0 166.415 32.0006 198.009 71.4119 198.009C78.6204 198.009 85.5595 196.945 92.0943 195.016L96.3386 207.986H115.876L93.6439 140.209C92.8354 137.814 90.5448 136.151 87.9848 136.151H72.7592L85.6269 175.394C81.1131 176.725 76.3298 177.39 71.4119 177.39C43.5208 177.39 20.8846 155.041 20.8846 127.505C20.8846 99.9679 43.5208 77.6193 71.4119 77.6193C99.3029 77.6193 121.939 99.9679 121.939 127.505C121.939 132.028 121.333 136.417 120.188 140.541L129.417 168.61C130.899 166.615 132.247 164.486 133.527 162.358C135.885 158.3 137.838 153.977 139.32 149.388C141.611 142.47 142.824 135.087 142.824 127.438C142.824 88.594 110.823 57 71.4119 57Z" fill="#F78C02"/>
<path d="M192.34 163.821L177.856 207.986H158.319L148.55 177.124L138.782 207.986H119.244L111.901 185.571L105.029 164.752L95.6649 136.151H110.891C113.451 136.151 115.741 137.814 116.55 140.209L118.436 145.862L126.992 171.803L130.562 182.578L140.129 152.78H152.255C155.085 152.78 157.578 154.576 158.453 157.236L166.673 182.644L176.374 152.78H184.256C190.05 152.78 194.159 158.433 192.34 163.821Z" fill="#1427A9"/>
<path d="M400.513 150.851H416.142C419.107 150.851 421.667 152.78 422.475 155.573L430.694 182.911C431.166 184.573 431.503 186.635 431.637 188.963H432.042C432.311 186.702 432.715 184.706 433.254 182.977L443.09 150.784H453.263C457.979 150.784 461.28 155.44 459.596 159.83L440.597 210.314C437.701 217.897 434.197 223.218 430.02 226.344C425.844 229.47 420.387 231 413.65 231C411.022 231 408.395 230.734 405.633 230.135V214.97C407.384 215.369 409.405 215.569 411.696 215.569C413.448 215.569 414.93 215.236 416.21 214.571C417.49 213.906 418.635 212.975 419.578 211.778C420.521 210.58 421.599 208.585 422.677 205.858L400.513 150.851Z" fill="#1427A9"/>
</g>
<g clip-path="url(#clip1)">
<path d="M327.52 173.626C320.532 192.566 309.963 209.034 296.103 222.569C280.327 237.974 259.669 250.215 234.703 258.947C233.884 259.233 233.029 259.467 232.17 259.639C231.035 259.863 229.881 259.984 228.736 260H228.512C227.292 260 226.066 259.877 224.85 259.639C223.992 259.467 223.149 259.233 222.333 258.953C197.337 250.235 176.654 238 160.862 222.595C146.996 209.06 136.43 192.602 129.451 173.662C116.762 139.226 117.484 101.291 118.065 70.8062L118.075 70.338C118.192 67.8208 118.267 65.1766 118.309 62.2567C118.521 47.9209 129.919 36.0606 144.257 35.2612C174.151 33.593 197.276 23.8434 217.035 4.58418L217.208 4.42549C220.488 1.4163 224.622 -0.0595263 228.736 0.00196691C232.704 0.0535418 236.655 1.52739 239.819 4.42549L239.988 4.58418C259.751 23.8434 282.876 33.593 312.77 35.2612C327.107 36.0606 338.505 47.9209 338.718 62.2567C338.759 65.1964 338.835 67.8366 338.952 70.338L338.958 70.5364C339.537 101.079 340.255 139.089 327.52 173.626Z" fill="#FFCC8B"/>
<path d="M327.519 173.626C320.531 192.566 309.962 209.034 296.103 222.569C280.327 237.974 259.669 250.215 234.703 258.947C233.884 259.233 233.029 259.467 232.17 259.639C231.035 259.863 229.881 259.984 228.736 260V0.00195312C232.703 0.053528 236.655 1.52737 239.819 4.42548L239.987 4.58417C259.75 23.8434 282.876 33.593 312.769 35.2612C327.107 36.0606 338.505 47.9208 338.717 62.2566C338.759 65.1964 338.834 67.8366 338.951 70.338L338.957 70.5364C339.536 101.079 340.254 139.089 327.519 173.626Z" fill="#F78C02"/>
<path d="M293.306 130C293.306 165.652 264.358 194.673 228.736 194.8H228.508C192.78 194.8 163.708 165.73 163.708 130C163.708 94.2727 192.78 65.2024 228.508 65.2024H228.736C264.358 65.3293 293.306 94.3501 293.306 130Z" fill="white"/>
<path d="M293.306 130C293.306 165.652 264.358 194.673 228.736 194.8V65.2024C264.358 65.3293 293.306 94.3501 293.306 130Z" fill="#E6E6E6"/>
<path d="M257.919 120.669L228.736 149.856L222.43 156.162C220.94 157.652 218.986 158.396 217.034 158.396C215.081 158.396 213.129 157.652 211.637 156.162L198.079 142.598C195.099 139.619 195.099 134.793 198.079 131.811C201.054 128.832 205.886 128.832 208.866 131.811L217.034 139.98L247.132 109.882C250.112 106.901 254.944 106.901 257.919 109.882C260.899 112.861 260.899 117.694 257.919 120.669Z" fill="#666666"/>
<path d="M257.919 120.669L228.736 149.856V128.276L247.132 109.882C250.112 106.901 254.944 106.901 257.919 109.882C260.899 112.861 260.899 117.694 257.919 120.669Z" fill="black"/>
</g>
<defs>
<clipPath id="clip0">
<rect width="460" height="174" fill="white" transform="translate(0 57)"/>
</clipPath>
<clipPath id="clip1">
<rect width="260" height="260" fill="white" transform="translate(98)"/>
</clipPath>
</defs>
</svg>
