<svg width="460" height="260" viewBox="0 0 460 260" fill="none" xmlns="http://www.w3.org/2000/svg">
<g opacity="0.03" clip-path="url(#clip0)">
<path d="M205.949 195.117C204.467 194.851 203.12 194.452 201.84 193.654C199.819 192.456 198.134 190.793 196.787 188.931C195.507 187.202 194.429 185.273 193.755 183.277C192.34 179.021 192.61 174.298 194.564 170.241C197.124 164.853 202.311 161.062 207.97 159.133C213.629 157.204 219.76 157.005 225.756 157.47C226.43 154.943 225.217 152.149 223.061 150.752C220.905 149.355 217.874 149.355 215.65 150.752C213.427 152.149 212.08 154.743 212.147 157.271C207.566 157.337 202.985 157.337 198.404 157.404C197.932 157.404 197.461 157.404 197.056 157.204C196.113 156.805 195.776 155.608 195.709 154.61C195.439 150.486 197.595 146.429 200.762 143.702C203.928 140.975 207.97 139.445 212.08 138.647C217.874 137.516 223.937 137.716 229.663 139.312C232.83 140.177 235.996 141.507 238.354 143.835C240.712 146.163 242.059 149.289 242.666 152.482C243.339 155.674 243.339 159 243.272 162.259C243.205 172.901 242.8 183.61 244.956 193.986C240.038 193.986 235.188 193.986 230.27 193.986C229.798 193.986 229.326 193.986 228.922 193.72C228.316 193.254 228.316 192.39 228.114 191.725C228.046 191.459 227.912 191.193 227.642 191.06C227.036 190.727 226.093 191.924 225.621 192.19C224.341 193.055 223.061 193.853 221.579 194.452C219.221 195.449 216.661 195.982 214.101 195.982C211.339 195.982 208.577 195.582 205.949 195.117ZM225.823 169.443C221.175 169.043 216.998 169.31 213.225 171.571C210.935 172.968 209.924 175.096 210.059 177.757C210.126 180.018 211.339 181.548 213.292 182.479C216.728 184.142 222.657 183.011 224.341 178.488C225.352 175.628 225.688 172.702 225.823 169.443Z" fill="#1427A9"/>
<path d="M353.489 159.798C352.276 149.222 346.145 141.573 336.848 139.046C333.345 138.048 329.774 137.915 326.204 138.115C316.233 138.647 308.822 143.17 304.915 152.349C300.469 162.858 300.603 173.5 305.723 183.81C307.61 187.667 310.507 190.993 314.279 193.055C315.559 193.72 316.839 194.252 318.187 194.718C319.602 195.117 321.016 195.25 322.431 195.383C325.193 195.516 328.023 195.649 330.785 195.516C333.48 195.383 336.377 195.25 338.937 194.252C341.093 193.388 343.046 192.124 344.73 190.527C347.695 187.8 349.783 184.342 351.198 180.617C351.737 179.154 352.141 177.69 352.478 176.161C352.68 175.229 351.939 174.365 350.929 174.365H336.04V174.431C335.838 176.427 335.501 178.422 334.558 180.085C333.143 182.546 330.718 183.544 327.955 183.544C326.406 183.544 324.789 183.211 323.442 182.413C321.69 181.349 320.545 179.42 320.006 177.491C319.736 176.493 319.534 175.429 319.467 174.431C319.4 173.899 319.4 171.438 319.4 171.438C319.4 171.438 322.027 171.372 322.566 171.372C323.711 171.372 324.789 171.372 325.934 171.372C329.101 171.372 332.334 171.372 335.501 171.372C336.781 171.372 338.061 171.372 339.274 171.372H353.354C353.825 167.248 353.893 163.523 353.489 159.798ZM319.736 158.401C319.534 152.548 323.779 149.688 327.753 149.755C332.873 149.821 335.501 152.349 335.905 158.401H319.736Z" fill="#1427A9"/>
<path d="M387.173 196.115C388.521 196.048 389.801 195.915 391.013 195.716C391.755 195.583 392.496 195.516 393.237 195.183C393.641 195.05 396.47 193.92 396.47 193.521C396.47 189.264 396.47 185.339 396.47 181.282C394.517 181.748 392.698 182.413 390.811 182.612C385.489 183.278 383.805 181.814 383.738 176.56C383.738 174.631 383.738 151.484 383.738 151.484C387.982 151.484 391.889 151.484 395.662 151.484C396.268 145.365 395.999 143.502 394.584 141.507C391.822 137.716 387.51 139.179 383.67 138.447C383.67 136.984 383.67 135.654 383.67 134.323C383.67 132.993 383.738 131.663 383.67 130.333C383.535 126.807 381.582 124.213 378.281 123.681C374.575 123.083 370.803 123.482 366.828 123.482C366.828 128.736 366.828 133.592 366.828 138.447C362.112 138.647 357.463 138.647 357.463 138.647C357.463 138.647 357.463 147.227 357.463 151.55C360.697 151.55 363.661 151.55 366.895 151.55C366.895 156.406 366.895 161.261 366.895 166.117C366.895 170.773 366.693 175.495 366.963 180.151C367.165 183.144 367.771 186.204 369.32 188.798C373.026 194.851 380.504 196.447 387.173 196.115Z" fill="#1427A9"/>
<path d="M294.81 193.986C289.083 193.986 283.761 193.986 278.169 193.986C278.169 168.245 278.169 142.505 278.169 116.631C281.807 116.631 285.378 116.365 288.881 116.697C292.452 117.03 294.54 119.557 294.742 123.282C294.877 125.61 294.81 127.938 294.81 130.266C294.81 150.22 294.81 170.108 294.81 190.062C294.81 191.193 294.81 192.39 294.81 193.986Z" fill="#1427A9"/>
<path d="M268.872 193.92C263.146 193.92 257.824 193.92 252.367 193.92C252.367 168.112 252.367 142.438 252.367 116.431C256.207 116.431 259.845 116.099 263.483 116.631C266.38 117.096 268.266 119.025 268.738 121.885C268.872 122.75 268.94 123.615 268.94 124.546C268.94 146.895 268.94 169.31 268.94 191.658C269.007 192.39 268.94 193.055 268.872 193.92Z" fill="#1427A9"/>
<path d="M105.029 150.752L111.901 171.638C117.56 167.78 122.613 163.19 126.924 157.869L118.368 131.929C115.472 139.179 110.89 145.564 105.029 150.752Z" fill="#F78C02"/>
<path d="M71.4119 43C32.0006 43 0 74.594 0 113.505C0 152.415 32.0006 184.009 71.4119 184.009C78.6204 184.009 85.5595 182.945 92.0943 181.016L96.3386 193.986H115.876L93.6439 126.209C92.8354 123.814 90.5448 122.151 87.9848 122.151H72.7592L85.6269 161.394C81.1131 162.725 76.3298 163.39 71.4119 163.39C43.5208 163.39 20.8846 141.041 20.8846 113.505C20.8846 85.9679 43.5208 63.6193 71.4119 63.6193C99.3029 63.6193 121.939 85.9679 121.939 113.505C121.939 118.028 121.333 122.417 120.188 126.541L129.417 154.61C130.899 152.615 132.247 150.486 133.527 148.358C135.885 144.3 137.838 139.977 139.32 135.388C141.611 128.47 142.824 121.087 142.824 113.438C142.824 74.594 110.823 43 71.4119 43Z" fill="#F78C02"/>
<path d="M192.34 149.821L177.856 193.986H158.319L148.55 163.124L138.782 193.986H119.244L111.901 171.571L105.029 150.752L95.6649 122.151H110.891C113.451 122.151 115.741 123.814 116.55 126.209L118.436 131.862L126.992 157.803L130.562 168.578L140.129 138.78H152.255C155.085 138.78 157.578 140.576 158.453 143.236L166.673 168.644L176.374 138.78H184.256C190.05 138.78 194.159 144.433 192.34 149.821Z" fill="#1427A9"/>
<path d="M400.513 136.851H416.142C419.107 136.851 421.667 138.78 422.475 141.573L430.694 168.911C431.166 170.573 431.503 172.635 431.637 174.963H432.042C432.311 172.702 432.715 170.706 433.254 168.977L443.09 136.784H453.263C457.979 136.784 461.28 141.44 459.596 145.83L440.597 196.314C437.701 203.897 434.197 209.218 430.02 212.344C425.844 215.47 420.387 217 413.65 217C411.022 217 408.395 216.734 405.633 216.135V200.97C407.384 201.369 409.405 201.569 411.696 201.569C413.448 201.569 414.93 201.236 416.21 200.571C417.49 199.906 418.635 198.975 419.578 197.778C420.521 196.58 421.599 194.585 422.677 191.858L400.513 136.851Z" fill="#1427A9"/>
</g>
<g clip-path="url(#clip1)">
<path d="M360.031 260C360.029 260 360.027 260 360.027 260L115.613 259.843C113.56 259.841 111.596 259.012 110.162 257.542C108.73 256.072 107.952 254.089 108.002 252.036C108.141 246.503 108.623 241.026 109.438 235.635C111.656 220.97 142.023 214.029 148.954 201.102C154.352 191.031 135.43 174.531 143.45 166.061C144.654 164.789 145.888 163.537 147.147 162.31C171.542 138.514 203.744 125.41 237.823 125.41C268.179 125.41 297.041 135.804 320.226 154.891C323.092 157.251 303.422 197.033 309.936 210.75C315.691 222.866 367.19 243.573 367.377 246.301C367.51 248.261 367.601 250.228 367.646 252.202C367.696 254.253 366.914 256.239 365.478 257.707C364.046 259.173 362.082 260 360.031 260Z" fill="#5263D7"/>
<path d="M367.377 246.301C367.191 243.574 315.691 222.866 309.937 210.75C303.423 197.033 323.092 157.251 320.226 154.891C297.041 135.804 268.179 125.41 237.825 125.41V259.923L360.028 260H360.032C362.083 260 364.047 259.173 365.481 257.707C366.915 256.239 367.696 254.253 367.649 252.202C367.601 250.229 367.51 248.261 367.377 246.301Z" fill="#1427A9"/>
<path d="M237.825 125.517C235.173 125.517 232.747 124.019 231.563 121.647L221.562 101.642C200.295 94.6793 185.709 74.7615 185.709 52.1162C185.709 23.3792 209.088 0 237.825 0C266.562 0 289.942 23.3792 289.942 52.1162C289.942 74.7615 275.356 94.6793 254.089 101.644L244.086 121.647C242.902 124.019 240.476 125.517 237.825 125.517Z" fill="#FFCC8B"/>
<path d="M237.825 0V125.517C240.476 125.517 242.902 124.019 244.086 121.647L254.089 101.642C275.356 94.6793 289.94 74.7615 289.94 52.1162C289.942 23.3792 266.562 0 237.825 0Z" fill="#F78C02"/>
<path d="M237.825 67.3506C229.425 67.3506 222.589 60.5169 222.589 52.1162C222.589 43.7155 229.425 36.8818 237.825 36.8818C246.226 36.8818 253.06 43.7155 253.06 52.1162C253.06 60.5169 246.226 67.3506 237.825 67.3506Z" fill="#F3EEE9"/>
<path d="M142.525 239.199C154.919 239.199 165.171 229.119 165.375 216.729C165.444 212.599 168.86 209.239 172.992 209.239H178.407C191.009 209.239 201.261 198.987 201.261 186.385C201.261 173.785 191.009 163.533 178.407 163.533H145.923C125.339 184.142 112.477 210.587 108.952 239.199H142.525Z" fill="#87E395"/>
<path d="M328.557 162.367C325.877 159.749 323.098 157.269 320.236 154.913C308.066 155.178 298.087 165.148 297.884 177.371C297.817 181.501 294.399 184.862 290.269 184.862H273.628C261.026 184.862 250.775 195.113 250.775 207.715C250.775 220.315 261.026 230.567 273.628 230.567H289.23C290.293 233.812 292.092 236.801 294.55 239.34C298.9 243.835 304.726 246.309 310.954 246.309H367.373C365.197 214.44 351.548 184.82 328.557 162.367Z" fill="#4BBD5C"/>
<path d="M237.825 36.8818V67.3506C246.226 67.3506 253.06 60.5169 253.06 52.1162C253.06 43.7155 246.226 36.8818 237.825 36.8818Z" fill="#E9DFDA"/>
</g>
<defs>
<clipPath id="clip0">
<rect width="460" height="174" fill="white" transform="translate(0 43)"/>
</clipPath>
<clipPath id="clip1">
<rect width="260" height="260" fill="white" transform="translate(108)"/>
</clipPath>
</defs>
</svg>
