<svg width="72" height="50" viewBox="0 0 72 50" fill="none" xmlns="http://www.w3.org/2000/svg">
    <path d="M51.7818 10.0288H4.43644C1.99013 10.0288 0 11.996 0 14.4142V45.6146C0 48.0328 1.99013 50 4.43644 50H51.7817C54.228 50 56.2182 48.0328 56.2182 45.6146V14.4142C56.2182 11.996 54.2281 10.0288 51.7818 10.0288ZM54.1089 45.6146C54.1089 46.8829 53.0649 47.9149 51.7817 47.9149H4.43644C3.15324 47.9149 2.10938 46.8829 2.10938 45.6146V14.4142C2.10938 13.1458 3.15324 12.1139 4.43644 12.1139H51.7817C53.0649 12.1139 54.1089 13.1458 54.1089 14.4142V45.6146Z" fill="#ECECEC"/>
    <path d="M14.5819 22.286H10.0729C8.24811 22.286 6.76367 23.7535 6.76367 25.5571V27.7857C6.76367 29.5894 8.24811 31.0568 10.0729 31.0568H14.5819C16.4066 31.0568 17.891 29.5893 17.891 27.7857V25.5571C17.891 23.7534 16.4065 22.286 14.5819 22.286ZM11.2727 28.9718H10.0729C9.41122 28.9718 8.87305 28.4398 8.87305 27.7858V25.5571C8.87305 24.9031 9.41136 24.3711 10.0729 24.3711H11.2727V28.9718ZM15.7818 27.7857C15.7818 28.4397 15.2435 28.9717 14.582 28.9717H13.3822V24.371H14.582C15.2435 24.3711 15.7818 24.9031 15.7818 25.5571V27.7857Z" fill="#ECECEC"/>
    <path d="M14.582 34.5433H7.81836C7.23589 34.5433 6.76367 35.01 6.76367 35.5859C6.76367 36.1618 7.23589 36.6284 7.81836 36.6284H14.582C15.1645 36.6284 15.6367 36.1618 15.6367 35.5859C15.6367 35.01 15.1645 34.5433 14.582 34.5433Z" fill="#ECECEC"/>
    <path d="M25.8546 34.5433H19.091C18.5085 34.5433 18.0363 35.01 18.0363 35.5859C18.0363 36.1618 18.5085 36.6284 19.091 36.6284H25.8546C26.4371 36.6284 26.9093 36.1618 26.9093 35.5859C26.9093 35.01 26.4371 34.5433 25.8546 34.5433Z" fill="#ECECEC"/>
    <path d="M30.3636 40.1146H7.81836C7.23589 40.1146 6.76367 40.5813 6.76367 41.1572C6.76367 41.7331 7.23589 42.1997 7.81836 42.1997H30.3638C30.9463 42.1997 31.4185 41.7331 31.4185 41.1572C31.4185 40.5813 30.9463 40.1146 30.3636 40.1146Z" fill="#ECECEC"/>
    <path d="M37.1272 34.5433H30.3636C29.7811 34.5433 29.3089 35.01 29.3089 35.5859C29.3089 36.1618 29.7811 36.6284 30.3636 36.6284H37.1272C37.7097 36.6284 38.1819 36.1618 38.1819 35.5859C38.1819 35.01 37.7097 34.5433 37.1272 34.5433Z" fill="#ECECEC"/>
    <path d="M48.3999 34.5433H41.6363C41.0538 34.5433 40.5816 35.01 40.5816 35.5859C40.5816 36.1618 41.0538 36.6284 41.6363 36.6284H48.3999C48.9824 36.6284 49.4546 36.1618 49.4546 35.5859C49.4546 35.01 48.9824 34.5433 48.3999 34.5433Z" fill="#ECECEC"/>
    <path d="M43.8909 16.7147C42.0372 16.7147 40.3934 17.6163 39.3819 18.9981C38.3702 17.6161 36.7265 16.7147 34.8729 16.7147C31.805 16.7147 29.3092 19.1818 29.3092 22.2143C29.3092 25.2469 31.8052 27.714 34.8729 27.714C36.7266 27.714 38.3704 26.8124 39.3819 25.4305C40.3936 26.8125 42.0373 27.714 43.8909 27.714C46.9588 27.714 49.4546 25.2469 49.4546 22.2143C49.4546 19.1818 46.9588 16.7147 43.8909 16.7147ZM34.8728 25.6289C32.968 25.6289 31.4184 24.097 31.4184 22.2143C31.4184 20.3316 32.9681 18.7998 34.8728 18.7998C36.7774 18.7998 38.3271 20.3316 38.3271 22.2143C38.3271 24.097 36.7775 25.6289 34.8728 25.6289ZM43.8909 25.6289C41.9861 25.6289 40.4366 24.097 40.4366 22.2143C40.4366 20.3316 41.9863 18.7998 43.8909 18.7998C45.7955 18.7998 47.3452 20.3316 47.3452 22.2143C47.3452 24.097 45.7957 25.6289 43.8909 25.6289Z" fill="#ECECEC"/>
    <path d="M67.5636 0H20.2182C17.7719 0 15.7816 1.96723 15.7816 4.38539V6.61395C15.7816 7.18986 16.2538 7.65651 16.8363 7.65651H69.8906V12.2574H59.6727C59.0902 12.2574 58.618 12.724 58.618 13.2999C58.618 13.8758 59.0902 14.3425 59.6727 14.3425H69.8906V35.5858C69.8906 36.8542 68.8468 37.8861 67.5636 37.8861H59.6724C59.0899 37.8861 58.6177 38.3527 58.6177 38.9286C58.6177 39.5045 59.0899 39.9712 59.6724 39.9712H67.5636C70.0099 39.9712 72 38.004 72 35.5858V4.38539C72 1.96737 70.0099 0 67.5636 0ZM69.8906 5.5714H17.8911V4.38539C17.8911 3.11709 18.9351 2.0851 20.2183 2.0851H67.5636C68.8468 2.0851 69.8906 3.11709 69.8906 4.38539V5.5714Z" fill="#ECECEC"/>
</svg>