<svg width="73" height="52" viewBox="0 0 73 52" fill="none" xmlns="http://www.w3.org/2000/svg">
    <path d="M36.5 46.5722C47.9379 46.5722 57.2488 37.314 57.2488 25.9408C57.2488 14.5677 47.9379 5.32422 36.5 5.32422C25.0621 5.32422 15.7512 14.5825 15.7512 25.9556C15.7512 37.3288 25.0621 46.5722 36.5 46.5722ZM36.5 7.54265C46.7033 7.54265 55.0177 15.7952 55.0177 25.9556C55.0177 36.116 46.7182 44.3686 36.5 44.3686C26.2967 44.3686 17.9823 36.116 17.9823 25.9556C17.9823 15.7952 26.2967 7.54265 36.5 7.54265Z" fill="#ECECEC"/>
    <path d="M36.5 40.2275C44.4128 40.2275 50.8531 33.8236 50.8531 25.9556C50.8531 22.835 49.8566 19.8771 47.9825 17.3777C47.1198 16.2389 45.335 17.57 46.1976 18.7087C47.7891 20.8089 48.622 23.3083 48.622 25.9556C48.622 32.6109 43.1783 38.0091 36.5 38.0091C29.8068 38.0091 24.378 32.5961 24.378 25.9556C24.378 19.3151 29.8217 13.9021 36.5 13.9021C38.6269 13.9021 40.7241 14.4641 42.5685 15.5142C43.8179 16.2241 44.9334 14.3163 43.684 13.5916C41.5124 12.3345 39.0285 11.6837 36.5 11.6837C28.5872 11.6837 22.1469 18.0876 22.1469 25.9556C22.1469 33.8236 28.5872 40.2275 36.5 40.2275Z" fill="#ECECEC"/>
    <path d="M59.9855 24.5358C59.9855 24.8464 60.1194 25.1422 60.3574 25.364L64.2692 28.8839C64.4774 29.0762 64.7451 29.1649 65.0128 29.1649C65.3252 29.1649 65.6227 29.0318 65.8458 28.7952C66.0391 28.5882 66.1284 28.3219 66.1284 28.0557C66.1284 27.7452 65.9945 27.4494 65.7565 27.2275L64.5964 26.1923H71.8845C72.4943 26.1923 73 25.6894 73 25.083C73 24.4767 72.4943 23.9738 71.8845 23.9738H64.7749L66.3961 23.2344C66.8126 23.0569 67.0505 22.6428 67.0505 22.2287C67.0505 22.0808 67.0208 21.9181 66.9464 21.7702C66.6936 21.2082 66.0391 20.9716 65.4739 21.223L60.8333 23.3379C60.6549 23.4118 60.521 23.5301 60.4169 23.6632C60.3723 23.7076 60.3128 23.752 60.2681 23.7964C60.0748 24.0182 59.9855 24.2844 59.9855 24.5358Z" fill="#ECECEC"/>
    <path d="M12.7319 23.7964C12.6872 23.752 12.6278 23.7076 12.5831 23.6632C12.479 23.5301 12.3452 23.4118 12.1667 23.3379L7.52608 21.223C6.96088 20.9716 6.30644 21.2082 6.05359 21.7702C5.97922 21.9181 5.94947 22.0808 5.94947 22.2287C5.94947 22.6428 6.18745 23.0569 6.60391 23.2344L8.22514 23.9738H1.11553C0.505705 23.9738 0 24.4767 0 25.083C0 25.6894 0.505705 26.1923 1.11553 26.1923H8.40363L7.24348 27.2275C7.0055 27.4494 6.87164 27.7452 6.87164 28.0557C6.87164 28.3219 6.96088 28.5882 7.15424 28.7952C7.37734 29.0318 7.67482 29.1649 7.98716 29.1649C8.25489 29.1649 8.52262 29.0762 8.73085 28.8839L12.6426 25.364C12.8806 25.1422 13.0145 24.8464 13.0145 24.5358C13.0145 24.2844 12.9252 24.0182 12.7319 23.7964Z" fill="#ECECEC"/>
    <path d="M57.2488 43.6291C57.2488 43.6883 57.2637 43.7622 57.2637 43.8214C57.2488 43.984 57.2488 44.1615 57.3231 44.339L59.108 49.1012C59.3311 49.678 59.9558 49.9738 60.5359 49.752C60.6995 49.6928 60.8333 49.6041 60.9375 49.5005C61.2349 49.2047 61.3539 48.7463 61.1903 48.3322L60.5656 46.6757L65.5929 51.6746C66.0243 52.1035 66.7382 52.1035 67.1695 51.6746C67.6009 51.2457 67.6009 50.5358 67.1695 50.1069L62.0232 44.9897L63.585 45.0785C63.9122 45.0933 64.2097 44.9749 64.4328 44.7531C64.6261 44.5608 64.7451 44.3094 64.76 44.0284C64.7749 43.703 64.6559 43.4073 64.4328 43.1854C64.2394 42.9931 63.9866 42.8748 63.704 42.86L58.4387 42.5938C58.1115 42.579 57.814 42.6974 57.5909 42.9192C57.3975 43.0819 57.2636 43.3333 57.2488 43.6291Z" fill="#ECECEC"/>
    <path d="M57.576 9.0808C57.7991 9.30265 58.0966 9.42096 58.4238 9.40617L63.6891 9.13996C63.9717 9.12517 64.2245 9.00685 64.4179 8.81459C64.641 8.59275 64.76 8.29696 64.7451 7.97159C64.7302 7.69059 64.6112 7.43916 64.4179 7.2469C64.1948 7.02506 63.8973 6.90674 63.5701 6.92153L62.0083 7.01027L67.1546 1.89309C67.586 1.46419 67.586 0.754292 67.1546 0.325396C66.7233 -0.103501 66.0094 -0.103501 65.578 0.325396L60.5656 5.32426L61.1903 3.66783C61.3539 3.25372 61.2349 2.79525 60.9374 2.49946C60.8333 2.39593 60.6995 2.30719 60.5359 2.24804C59.9558 2.02619 59.3311 2.32198 59.108 2.89878L57.3231 7.66101C57.2488 7.83848 57.2339 8.01595 57.2637 8.17864C57.2637 8.2378 57.2488 8.31175 57.2488 8.3709C57.2636 8.65191 57.3975 8.90333 57.576 9.0808Z" fill="#ECECEC"/>
    <path d="M40.8282 29.7565C40.8282 30.141 40.7539 30.422 40.62 30.5995C40.4861 30.777 40.263 30.9545 39.9804 31.1319C39.802 31.2355 39.5937 31.3242 39.3409 31.4129C39.088 31.5017 38.8054 31.5904 38.4931 31.6496C38.1807 31.7235 37.8684 31.7679 37.5263 31.8123C37.1842 31.8418 36.857 31.8714 36.5149 31.8714C35.6225 31.8714 34.7895 31.7531 34.0161 31.5165C33.2427 31.2798 32.5585 30.9101 31.9933 30.4368C31.4132 29.9488 30.967 29.3572 30.6398 28.6325C30.3126 27.9078 30.1341 27.0648 30.1341 26.1183C30.1341 25.1126 30.3126 24.24 30.6844 23.4857C31.0414 22.7315 31.5322 22.1103 32.1271 21.6223C32.7221 21.1194 33.4063 20.7497 34.1797 20.513C34.9531 20.2616 35.7414 20.1433 36.5595 20.1433C37.7345 20.1433 38.6567 20.3356 39.3409 20.7053C40.0251 21.0751 40.3672 21.5631 40.3672 22.1695C40.3672 22.4948 40.2928 22.7611 40.1292 22.9977C39.9656 23.2343 39.7871 23.4118 39.5789 23.5449C39.2665 23.3674 38.8798 23.1752 38.4187 22.9977C37.9576 22.8202 37.437 22.7315 36.857 22.7315C35.8158 22.7315 34.9978 23.0273 34.3879 23.6189C33.7781 24.2104 33.4806 25.0239 33.4806 26.0591C33.4806 26.6211 33.5699 27.1092 33.7335 27.5233C33.8971 27.9374 34.1202 28.2776 34.4028 28.529C34.6854 28.7952 35.0126 28.9874 35.3845 29.1206C35.7563 29.2537 36.143 29.3128 36.5744 29.3128C36.8421 29.3128 37.0801 29.2832 37.2883 29.2389C37.4965 29.1945 37.6601 29.1353 37.7643 29.0762V27.3458H35.7861C35.7117 27.2127 35.6373 27.0352 35.5778 26.8134C35.5035 26.5915 35.4737 26.3549 35.4737 26.1183C35.4737 25.6746 35.5778 25.364 35.7712 25.157C35.9794 24.9647 36.2323 24.8612 36.5595 24.8612H39.683C40.0548 24.8612 40.3374 24.9647 40.5456 25.1718C40.7539 25.3788 40.8431 25.6598 40.8431 26.0295V29.7565H40.8282Z" fill="#ECECEC"/>
</svg>