<svg width="62" height="62" viewBox="0 0 62 62" fill="none" xmlns="http://www.w3.org/2000/svg">
    <path d="M28.6255 56.9449C28.6256 56.9313 28.6241 56.9185 28.6237 56.9053C28.6232 56.8936 28.6228 56.882 28.622 56.8704C28.6198 56.8444 28.6163 56.8189 28.612 56.7935C28.6109 56.7867 28.6102 56.7799 28.6089 56.7733C28.596 56.7065 28.5756 56.6427 28.5488 56.5822C28.546 56.5759 28.5428 56.5698 28.5399 56.5635C28.529 56.5403 28.5171 56.5175 28.5043 56.4954C28.4993 56.4869 28.4942 56.4786 28.489 56.4703C28.4767 56.4506 28.4636 56.4314 28.4498 56.4128C28.4437 56.4045 28.4377 56.3962 28.4314 56.3881C28.4154 56.368 28.3985 56.3487 28.381 56.3301C28.376 56.3249 28.3715 56.3193 28.3666 56.3142C28.3434 56.2908 28.3191 56.2688 28.2936 56.2481C28.2923 56.2471 28.2914 56.246 28.2902 56.2449L24.0426 52.8335C23.656 52.523 23.0912 52.5849 22.781 52.9713C22.4706 53.3577 22.5324 53.9225 22.9188 54.2328L25.0099 55.9124C19.4791 55.3646 14.4915 53.144 10.7565 49.5201C6.51932 45.4089 4.18584 39.8241 4.18584 33.7944C4.18584 33.2988 3.78417 32.897 3.28842 32.897C2.79266 32.897 2.39099 33.2988 2.39099 33.7944C2.39099 40.3137 4.91798 46.3559 9.50658 50.8082C13.5531 54.7344 18.946 57.1323 24.9112 57.7063L22.8171 59.0684C22.4016 59.3385 22.2838 59.8943 22.5541 60.3099C22.726 60.5743 23.0136 60.7181 23.3072 60.7181C23.4749 60.7181 23.6446 60.6712 23.7955 60.5729L28.2173 57.6971C28.2187 57.6961 28.2199 57.695 28.2213 57.6942C28.2491 57.6758 28.2761 57.656 28.3017 57.6347C28.3054 57.6316 28.3087 57.6281 28.3124 57.6249C28.3334 57.6069 28.3536 57.588 28.3728 57.5681C28.3801 57.5605 28.3869 57.5525 28.3941 57.5448C28.4091 57.528 28.4236 57.5109 28.4374 57.4931C28.444 57.4846 28.4504 57.476 28.4567 57.4673C28.4706 57.4479 28.4837 57.4278 28.496 57.4073C28.5004 57.4001 28.5051 57.393 28.5092 57.3856C28.5418 57.3281 28.5682 57.2668 28.5875 57.2023C28.5889 57.1973 28.5899 57.1923 28.5913 57.1873C28.5987 57.1609 28.6051 57.134 28.6101 57.1066C28.6119 57.0966 28.6132 57.0865 28.6147 57.0764C28.618 57.0538 28.6206 57.0311 28.6222 57.0081C28.6227 57.0019 28.6239 56.9958 28.6243 56.9897C28.6246 56.9836 28.6239 56.9776 28.6241 56.9715C28.6244 56.9625 28.6255 56.9538 28.6255 56.9449Z" fill="#B3C6CB"/>
    <path d="M52.5472 11.7696C48.5005 7.84364 43.1075 5.44574 37.1423 4.87164L39.2365 3.50957C39.652 3.23941 39.7698 2.68359 39.4996 2.268C39.2293 1.85253 38.6732 1.7347 38.2581 2.00498L33.8364 4.88096C33.8349 4.88193 33.8337 4.88302 33.8324 4.88387C33.8045 4.90227 33.7775 4.92201 33.752 4.94332C33.7482 4.94647 33.7449 4.94986 33.7412 4.95301C33.7202 4.97105 33.7 4.98994 33.6808 5.0098C33.6735 5.01743 33.6666 5.0253 33.6596 5.03305C33.6444 5.04976 33.63 5.06696 33.6161 5.08488C33.6096 5.09336 33.6031 5.10196 33.5968 5.11067C33.5829 5.13005 33.5698 5.15015 33.5575 5.17062C33.5531 5.17788 33.5484 5.18491 33.5443 5.19229C33.5117 5.24981 33.4853 5.31108 33.4659 5.37563C33.4645 5.38047 33.4635 5.38544 33.4622 5.39028C33.4548 5.4168 33.4484 5.44368 33.4434 5.47117C33.4416 5.48122 33.4403 5.49127 33.4388 5.50144C33.4355 5.52397 33.4329 5.54673 33.4313 5.56974C33.4308 5.57592 33.4296 5.58197 33.4293 5.58815C33.4289 5.5942 33.4296 5.60026 33.4294 5.60631C33.4291 5.61527 33.428 5.62399 33.428 5.63295C33.4282 5.64651 33.4296 5.65947 33.4301 5.67255C33.4306 5.68418 33.4309 5.6958 33.4318 5.70743C33.434 5.73346 33.4375 5.75889 33.4417 5.78432C33.4428 5.7911 33.4435 5.79788 33.4449 5.80454C33.4577 5.87114 33.4782 5.93508 33.5049 5.99563C33.5077 6.00205 33.511 6.0081 33.514 6.0144C33.5249 6.03765 33.5367 6.06041 33.5495 6.08245C33.5545 6.09093 33.5595 6.09916 33.5648 6.10752C33.5771 6.12726 33.5902 6.14639 33.604 6.16504C33.61 6.17327 33.6161 6.18163 33.6224 6.18974C33.6384 6.20984 33.6552 6.2291 33.6728 6.24775C33.6777 6.25295 33.6822 6.25852 33.6872 6.26361C33.7103 6.28698 33.7347 6.30902 33.7602 6.32973C33.7614 6.33069 33.7624 6.33178 33.7636 6.33287L38.0112 9.74433C38.1769 9.87741 38.3754 9.94207 38.5725 9.94207C38.8351 9.94207 39.0955 9.82728 39.2727 9.60652C39.5831 9.22011 39.5214 8.65533 39.1349 8.34497L37.0438 6.6654C42.5745 7.21323 47.5622 9.43372 51.2972 13.0577C55.5344 17.1688 57.8679 22.7537 57.8679 28.7834C57.8679 29.279 58.2696 29.6808 58.7653 29.6808C59.261 29.6808 59.6628 29.279 59.6628 28.7834C59.6628 22.2641 57.1358 16.2219 52.5472 11.7696Z" fill="#B3C6CB"/>
    <path d="M16.8066 0C7.53942 0 0 7.53942 0 16.8066C0 26.0738 7.53942 33.6132 16.8066 33.6132C26.0738 33.6132 33.6132 26.0738 33.6132 16.8066C33.6132 7.53942 26.0738 0 16.8066 0ZM16.8066 31.8185C8.52912 31.8185 1.79473 25.0841 1.79473 16.8066C1.79473 8.52899 8.52912 1.79473 16.8066 1.79473C25.0841 1.79473 31.8185 8.52899 31.8185 16.8066C31.8185 25.0841 25.0841 31.8185 16.8066 31.8185Z" fill="#B3C6CB"/>
    <path d="M29.5946 18.413C29.1072 18.3174 28.6366 18.6345 28.5412 19.1208C28.0837 21.452 26.9503 23.5759 25.2629 25.2631C23.0042 27.5218 20.0011 28.7658 16.8066 28.7658C13.6121 28.7658 10.6089 27.5218 8.35014 25.2631C6.66706 23.58 5.53459 21.4617 5.07516 19.1372C4.97913 18.651 4.50796 18.3349 4.02092 18.4308C3.53473 18.527 3.21843 18.999 3.31458 19.4852C3.84315 22.1599 5.14552 24.5968 7.08096 26.5322C9.6789 29.1299 13.1327 30.5605 16.8066 30.5605C20.4805 30.5605 23.9343 29.1299 26.532 26.5321C28.4723 24.5921 29.776 22.1488 30.3023 19.4664C30.3977 18.9801 30.0808 18.5086 29.5946 18.413Z" fill="#B3C6CB"/>
    <path d="M30.1284 13.3777C29.519 11.0018 28.2754 8.82455 26.5321 7.08116C23.9343 4.48346 20.4805 3.05273 16.8066 3.05273C13.1328 3.05273 9.67893 4.48346 7.0811 7.08116C5.34171 8.82067 4.09953 10.9927 3.48873 13.3624C3.3651 13.8424 3.65391 14.3316 4.1338 14.4554C4.6143 14.5789 5.10316 14.2902 5.22679 13.8103C5.75755 11.751 6.83758 9.86293 8.35029 8.35022C10.6089 6.09146 13.6122 4.84746 16.8066 4.84746C20.0011 4.84746 23.0042 6.09134 25.263 8.35022C26.7792 9.86632 27.8604 11.759 28.39 13.8235C28.4939 14.2288 28.8586 14.4982 29.2586 14.4982C29.3323 14.4982 29.4073 14.4889 29.4821 14.4698C29.9622 14.3467 30.2515 13.8577 30.1284 13.3777Z" fill="#B3C6CB"/>
    <path d="M45.1934 28.3868C35.9262 28.3868 28.3868 35.9263 28.3868 45.1934C28.3868 54.4606 35.9262 62 45.1934 62C54.4606 62 62 54.4606 62 45.1934C62 35.9263 54.4606 28.3868 45.1934 28.3868ZM45.1934 60.2053C36.9159 60.2053 30.1815 53.471 30.1815 45.1934C30.1815 36.916 36.9159 30.1816 45.1934 30.1816C53.4709 30.1816 60.2053 36.9158 60.2053 45.1934C60.2053 53.471 53.4709 60.2053 45.1934 60.2053Z" fill="#B3C6CB"/>
    <path d="M58.5668 41.9726C57.977 39.5136 56.7156 37.2643 54.919 35.4678C52.3212 32.8699 48.8672 31.4393 45.1935 31.4393C41.5198 31.4393 38.0658 32.8699 35.468 35.4678C33.6881 37.2476 32.4324 39.4741 31.8361 41.9067C31.718 42.3883 32.0126 42.8741 32.4939 42.992C32.9752 43.1106 33.4612 42.8154 33.579 42.3341C34.0971 40.2202 35.1891 38.2848 36.737 36.7369C38.9958 34.4782 41.9989 33.2342 45.1934 33.2342C48.3878 33.2342 51.3911 34.4782 53.6498 36.7369C55.2123 38.2993 56.3089 40.2546 56.8216 42.3913C56.9203 42.8029 57.2881 43.0796 57.6935 43.0795C57.7628 43.0795 57.8333 43.0714 57.9036 43.0545C58.3855 42.9389 58.6825 42.4545 58.5668 41.9726Z" fill="#B3C6CB"/>
    <path d="M57.9668 46.9117C57.4808 46.8123 57.0069 47.1249 56.9073 47.6103C56.437 49.9006 55.3106 51.989 53.6497 53.6499C51.391 55.9087 48.3877 57.1527 45.1933 57.1527C41.9988 57.1527 38.9957 55.9088 36.7369 53.6499C35.0892 52.0023 33.9664 49.9317 33.49 47.6619C33.3884 47.1768 32.9124 46.8662 32.4274 46.9681C31.9424 47.0698 31.6317 47.5456 31.7336 48.0305C32.2816 50.6423 33.573 53.0242 35.4677 54.9188C38.0656 57.5165 41.5194 58.9473 45.1933 58.9473C48.8671 58.9473 52.3211 57.5167 54.9188 54.9188C56.8287 53.0089 58.1241 50.6064 58.6652 47.9712C58.765 47.4857 58.4522 47.0114 57.9668 46.9117Z" fill="#B3C6CB"/>
    <path d="M17.4125 15.3698V11.1401C18.871 11.2442 19.4128 11.911 19.9128 11.911C20.5378 11.911 20.8296 11.1193 20.8296 10.7234C20.8296 9.70233 18.8293 9.26482 17.4125 9.22317V8.66056C17.4125 8.41063 17.1 8.1814 16.7874 8.1814C16.4332 8.1814 16.1832 8.41051 16.1832 8.66056V9.26482C14.2038 9.47323 12.2244 10.515 12.2244 13.1403C12.2244 15.8073 14.3081 16.5573 16.1832 17.2241V22.1205C14.058 21.9539 13.4954 20.4953 12.8078 20.4953C12.2869 20.4953 11.8494 21.1829 11.8494 21.683C11.8494 22.7039 13.5995 24.1 16.1832 24.1417V24.7876C16.1832 25.0375 16.4332 25.2668 16.7874 25.2668C17.1 25.2668 17.4125 25.0376 17.4125 24.7876V24.0792C19.6628 23.7666 21.2047 22.3498 21.2047 19.787C21.2047 16.9533 19.2252 16.0365 17.4125 15.3698ZM16.3083 14.9739C15.2039 14.5572 14.3079 14.1196 14.3081 12.932C14.3081 11.8486 15.1414 11.3277 16.3083 11.1819V14.9739ZM17.2874 22.0788V17.6825C18.3085 18.12 19.121 18.7035 19.1209 20.0161C19.1209 21.2037 18.4126 21.8704 17.2874 22.0788Z" fill="#B3C6CB"/>
    <path d="M48.4386 45.3397C49.3857 44.9208 49.9866 43.901 49.9866 42.3894C49.9866 40.4789 49.0287 39.6677 47.7358 39.3773H47.782V38.5276C47.782 38.0583 47.4017 37.6779 46.9323 37.6779C46.4631 37.6779 46.0826 38.0582 46.0826 38.5276V39.2386H45.1537V38.5276C45.1537 38.0583 44.7732 37.6779 44.304 37.6779C43.8347 37.6779 43.4542 38.0582 43.4542 38.5276V39.2386H43.2151H42.9929H42.1605C41.6645 39.2386 41.2623 39.6408 41.2623 40.1368C41.2623 40.6249 41.6519 41.0211 42.1369 41.0337V50.7567C41.6518 50.7693 41.2623 51.1655 41.2623 51.6536C41.2623 52.1496 41.6644 52.5518 42.1605 52.5518H42.9929H43.2151H43.4542V53.3075C43.4542 53.7768 43.8346 54.1573 44.304 54.1573C44.7732 54.1573 45.1537 53.7769 45.1537 53.3075V52.5518H46.0826V53.3075C46.0826 53.7768 46.4631 54.1573 46.9323 54.1573C47.4015 54.1573 47.782 53.7769 47.782 53.3075V52.4578H47.6962C49.2276 52.1524 50.3143 51.0645 50.3143 48.7272V48.3811C50.3144 46.5236 49.5679 45.7768 48.4386 45.3397ZM44.0494 40.9505H46.1803C47.3277 40.9505 48.0561 41.4787 48.0561 42.6989C48.0561 43.9373 47.4551 44.5747 46.2168 44.5747H44.0494V40.9505ZM48.384 48.5815C48.384 50.1477 47.619 50.8398 46.326 50.8398H44.0494V46.1046H46.326C47.619 46.1046 48.384 46.6875 48.384 48.2901V48.5815Z" fill="#B3C6CB"/>
</svg>
