<svg width="63" height="62" viewBox="0 0 63 62" fill="none" xmlns="http://www.w3.org/2000/svg">
    <g clip-path="url(#clip0)">
        <path d="M52.9895 38.2293V27.8994C52.9895 27.3899 52.5766 26.9765 52.0666 26.9765C51.5567 26.9765 51.1438 27.3899 51.1438 27.8994V38.2293C49.8737 38.4454 48.7512 39.0996 47.9372 40.031L36.2847 32.9111C36.5363 32.282 36.6768 31.5965 36.6768 30.879C36.6768 30.1614 36.5368 29.4765 36.2852 28.8473L47.9376 21.7274C48.7512 22.6583 49.8737 23.312 51.1438 23.5287V24.8228C51.1438 25.3328 51.5567 25.7457 52.0666 25.7457C52.5766 25.7457 52.9895 25.3328 52.9895 24.8228V23.5287C55.5765 23.0883 57.5528 20.8324 57.5528 18.122C57.5528 15.097 55.0916 12.6359 52.0666 12.6359C50.4215 12.6359 48.9437 13.3653 47.9376 14.5166L36.2852 7.39619C36.5368 6.76755 36.6768 6.08261 36.6768 5.36503C36.6768 2.34005 34.2157 -0.121094 31.1907 -0.121094C28.1662 -0.121094 25.7051 2.34005 25.7051 5.36503C25.7051 6.08261 25.8451 6.76802 26.0967 7.39667L14.4443 14.5161C13.4377 13.3653 11.9604 12.6359 10.3148 12.6359C7.29025 12.6359 4.82911 15.097 4.82911 18.122C4.82911 20.832 6.80493 23.0878 9.39142 23.5287V38.2293C6.80493 38.6701 4.82911 40.926 4.82911 43.6359C4.82911 44.1459 5.24206 44.5593 5.75198 44.5593C6.2619 44.5593 6.67485 44.1459 6.67485 43.6359C6.67485 41.6289 8.30772 39.996 10.3148 39.996C12.3223 39.996 13.9551 41.6289 13.9551 43.6359C13.9551 45.6434 12.3218 47.2763 10.3148 47.2763C9.26796 47.2763 8.27083 46.8246 7.57879 46.037C7.24247 45.6539 6.65971 45.6165 6.27656 45.9528C5.89341 46.2891 5.85604 46.8724 6.19236 47.2555C7.23443 48.4419 8.73723 49.1221 10.3148 49.1221C11.9604 49.1221 13.4381 48.3927 14.4443 47.2413L26.0967 54.3608C25.8451 54.9899 25.7051 55.6753 25.7051 56.3929C25.7051 59.4179 28.1662 61.879 31.1907 61.879C34.2157 61.879 36.6768 59.4179 36.6768 56.3929C36.6768 55.6753 36.5368 54.9899 36.2852 54.3613L47.9372 47.2413C48.9437 48.3922 50.4215 49.1221 52.0666 49.1221C55.0916 49.1221 57.5528 46.6609 57.5528 43.6359C57.5528 40.9255 55.5765 38.6697 52.9895 38.2293ZM31.1907 34.5189C29.1837 34.5189 27.5508 32.886 27.5508 30.879C27.5508 28.8719 29.1837 27.2386 31.1907 27.2386C33.1982 27.2386 34.8311 28.8719 34.8311 30.879C34.8311 32.886 33.1977 34.5189 31.1907 34.5189ZM52.0666 14.4816C54.0742 14.4816 55.707 16.1145 55.707 18.1215C55.707 20.1286 54.0737 21.7619 52.0666 21.7619C50.0596 21.7619 48.4267 20.1286 48.4267 18.1215C48.4267 16.1145 50.0596 14.4816 52.0666 14.4816ZM46.9727 16.0899C46.721 16.719 46.581 17.4039 46.581 18.122C46.581 18.8396 46.721 19.525 46.9727 20.1536L35.3207 27.2736C34.5066 26.3427 33.3841 25.6885 32.114 25.4723V10.7712C33.3841 10.555 34.5066 9.90133 35.3207 8.96994L46.9727 16.0899ZM31.1907 1.72464C33.1982 1.72464 34.8311 3.35752 34.8311 5.36456C34.8311 7.3716 33.1977 9.00495 31.1907 9.00495C29.1837 9.00495 27.5508 7.3716 27.5508 5.36456C27.5508 3.35752 29.1837 1.72464 31.1907 1.72464ZM27.0617 8.97042C27.8753 9.90133 28.9978 10.555 30.2678 10.7712V25.4718C28.9978 25.6885 27.8753 26.3422 27.0612 27.2731L15.4088 20.1536C15.6604 19.525 15.8004 18.8396 15.8004 18.1215C15.8004 17.4039 15.6604 16.7185 15.4088 16.0894L27.0617 8.97042ZM6.67485 18.122C6.67485 16.1145 8.30772 14.4816 10.3148 14.4816C12.3218 14.4816 13.9547 16.1145 13.9547 18.122C13.9547 20.129 12.3218 21.7619 10.3148 21.7619C8.30772 21.7619 6.67485 20.129 6.67485 18.122ZM11.2372 38.2293V23.5287C12.5077 23.3125 13.6297 22.6583 14.4438 21.7274L26.0967 28.8469C25.8451 29.476 25.7051 30.1614 25.7051 30.879C25.7051 31.5965 25.8451 32.2824 26.0967 32.9111L14.4443 40.0306C13.6302 39.0996 12.5077 38.4454 11.2372 38.2293ZM15.4088 45.6676C15.6604 45.0389 15.8009 44.3535 15.8009 43.6359C15.8009 42.9184 15.6609 42.2329 15.4092 41.6043L27.0617 34.4848C27.8758 35.4157 28.9978 36.0695 30.2678 36.2856V50.9862C28.9978 51.2024 27.8758 51.8566 27.0617 52.787L15.4088 45.6676ZM31.1907 60.0328C29.1837 60.0328 27.5508 58.3999 27.5508 56.3929C27.5508 54.3859 29.1837 52.753 31.1907 52.753C33.1982 52.753 34.8311 54.3859 34.8311 56.3929C34.8311 58.3999 33.1977 60.0328 31.1907 60.0328ZM35.3202 52.7875C34.5061 51.8566 33.3841 51.2024 32.114 50.9862V36.2856C33.3841 36.0695 34.5061 35.4157 35.3202 34.4844L46.9727 41.6048C46.721 42.2334 46.581 42.9184 46.581 43.6359C46.581 44.3535 46.721 45.0384 46.9727 45.6676L35.3202 52.7875ZM52.0666 47.2758C50.0596 47.2758 48.4267 45.643 48.4267 43.6359C48.4267 41.6289 50.0596 39.996 52.0666 39.996C54.0742 39.996 55.707 41.6289 55.707 43.6359C55.707 45.643 54.0742 47.2758 52.0666 47.2758Z" fill="#B3C6CB"/>
    </g>
    <defs>
        <clipPath id="clip0">
            <path d="M0.106384 0H62.1064V62H0.106384V0Z" fill="white"/>
        </clipPath>
    </defs>
</svg>