<svg width="178" height="49" viewBox="0 0 178 49"  xmlns="http://www.w3.org/2000/svg">
    <path d="M8.92 13.912L14.536 31.384L19.528 17.176H17.08C16.6 17.176 16.36 16.936 16.36 16.456V13.96C16.36 13.48 16.6 13.24 17.08 13.24H24.088C24.472 13.24 24.728 13.352 24.856 13.576C24.984 13.8 25.048 14.008 25.048 14.2C25.048 14.36 25.016 14.52 24.952 14.68L14.68 41.512C14.2 42.728 13.784 43.656 13.432 44.296C13.112 44.968 12.648 45.672 12.04 46.408C10.856 47.816 9.112 48.52 6.808 48.52C4.504 48.52 2.616 48.168 1.144 47.464C0.888 47.336 0.76 47.176 0.76 46.984C0.76 46.792 0.776 46.648 0.808 46.552L1.624 44.2C1.752 43.784 2.056 43.64 2.536 43.768C4.072 44.28 5.32 44.536 6.28 44.536C7.272 44.536 8.024 44.28 8.536 43.768C9.08 43.288 9.64 42.264 10.216 40.696L11.416 37.528L4.12 17.176H1.72C1.24 17.176 1 16.936 1 16.456V13.96C1 13.48 1.24 13.24 1.72 13.24H8.008C8.488 13.24 8.792 13.464 8.92 13.912ZM27.5706 25.48C27.5706 23.08 27.9386 21 28.6746 19.24C29.4106 17.48 30.3706 16.152 31.5546 15.256C33.8266 13.56 36.2906 12.712 38.9466 12.712C40.8986 12.712 42.5466 13.016 43.8906 13.624C45.2346 14.232 46.2746 14.936 47.0106 15.736C47.7786 16.536 48.4186 17.688 48.9306 19.192C49.4746 20.696 49.7466 22.456 49.7466 24.472C49.7466 28.76 48.6586 32.024 46.4826 34.264C44.3386 36.472 41.5866 37.576 38.2266 37.576C34.8666 37.576 32.2426 36.568 30.3546 34.552C28.4986 32.504 27.5706 29.48 27.5706 25.48ZM38.6106 33.64C40.5306 33.64 41.9226 32.936 42.7866 31.528C43.6826 30.088 44.1306 27.96 44.1306 25.144C44.1306 22.328 43.6826 20.216 42.7866 18.808C41.9226 17.368 40.4986 16.648 38.5146 16.648C34.8346 16.648 32.9946 19.24 32.9946 24.424C32.9946 30.568 34.8666 33.64 38.6106 33.64ZM75.9175 33.208H78.0295C78.5095 33.208 78.7495 33.448 78.7495 33.928V36.28C78.7495 36.76 78.5095 37 78.0295 37H72.6535C72.2695 37 72.0295 36.76 71.9335 36.28L71.5015 33.592C69.4535 36.248 66.7655 37.576 63.4375 37.576C58.2535 37.576 55.6615 34.856 55.6615 29.416V17.176H53.1175C52.6375 17.176 52.3975 16.936 52.3975 16.456V13.96C52.3975 13.48 52.6375 13.24 53.1175 13.24H60.3175C60.7975 13.24 61.0375 13.48 61.0375 13.96V27.976C61.0375 29.896 61.2775 31.272 61.7575 32.104C62.2695 32.904 63.3255 33.304 64.9255 33.304C66.5575 33.304 67.9015 32.824 68.9575 31.864C70.0135 30.904 70.5415 29.816 70.5415 28.6V17.176H67.5175C67.0375 17.176 66.7975 16.936 66.7975 16.456V13.96C66.7975 13.48 67.0375 13.24 67.5175 13.24H75.1975C75.6775 13.24 75.9175 13.48 75.9175 13.96V33.208ZM89.7719 17.368C90.3159 16.088 91.1959 15 92.4119 14.104C93.6279 13.176 94.9559 12.712 96.3959 12.712C97.8359 12.712 98.9399 12.84 99.7079 13.096C100.092 13.224 100.284 13.512 100.284 13.96V20.44C100.284 20.92 100.044 21.16 99.5639 21.16H96.4439C95.9639 21.16 95.7399 20.92 95.7719 20.44L95.9639 17.656C95.8039 17.624 95.5319 17.608 95.1479 17.608C93.6759 17.608 92.4599 18.216 91.4999 19.432C90.5399 20.616 90.0599 22.216 90.0599 24.232V33.208H95.3399C95.8199 33.208 96.0599 33.448 96.0599 33.928V36.28C96.0599 36.76 95.8199 37 95.3399 37H82.1399C81.6599 37 81.4199 36.76 81.4199 36.28V33.928C81.4199 33.448 81.6599 33.208 82.1399 33.208H84.6839V17.176H82.0919C81.6119 17.176 81.3719 16.936 81.3719 16.456V13.96C81.3719 13.48 81.6119 13.24 82.0919 13.24H88.4279C88.8759 13.24 89.1479 13.48 89.2439 13.96L89.7719 17.368ZM103.485 20.104C103.485 17.992 104.301 16.232 105.933 14.824C107.565 13.416 109.629 12.712 112.125 12.712C114.621 12.712 116.781 13 118.605 13.576C119.053 13.704 119.277 13.992 119.277 14.44V19.528C119.277 20.008 119.037 20.248 118.557 20.248H115.773C115.261 20.248 115.053 20.008 115.149 19.528L115.389 17.08C114.429 16.568 113.373 16.312 112.221 16.312C109.661 16.312 108.381 17.208 108.381 19C108.381 19.928 108.797 20.664 109.629 21.208C110.461 21.752 111.469 22.2 112.653 22.552C113.837 22.872 115.021 23.256 116.205 23.704C117.421 24.12 118.445 24.856 119.277 25.912C120.109 26.936 120.525 28.248 120.525 29.848C120.525 32.28 119.677 34.184 117.981 35.56C116.285 36.904 113.901 37.576 110.829 37.576C108.685 37.576 106.429 37.256 104.061 36.616C103.645 36.488 103.437 36.184 103.437 35.704V30.616C103.437 30.136 103.677 29.896 104.157 29.896H106.941C107.421 29.896 107.645 30.136 107.613 30.616L107.469 33.112C108.333 33.752 109.565 34.072 111.165 34.072C114.013 34.072 115.437 33.064 115.437 31.048C115.437 30.024 115.021 29.224 114.189 28.648C113.389 28.04 112.397 27.576 111.213 27.256C110.061 26.936 108.893 26.584 107.709 26.2C106.525 25.784 105.517 25.08 104.685 24.088C103.885 23.064 103.485 21.736 103.485 20.104ZM134.704 37.576C130.896 37.576 128.096 36.472 126.304 34.264C124.544 32.024 123.664 29.08 123.664 25.432C123.664 21.752 124.608 18.712 126.496 16.312C128.384 13.912 131.104 12.712 134.656 12.712C136.416 12.712 137.92 13.048 139.168 13.72C140.448 14.36 141.424 15.24 142.096 16.36C143.376 18.536 144.016 21.048 144.016 23.896C144.016 25.24 143.952 25.976 143.824 26.104C143.696 26.232 143.456 26.296 143.104 26.296H128.992C129.152 28.6 129.712 30.392 130.672 31.672C131.664 32.92 133.36 33.544 135.76 33.544C137.52 33.544 139.328 33.128 141.184 32.296C141.632 32.072 141.952 32.2 142.144 32.68L143.056 34.888C143.216 35.272 143.072 35.592 142.624 35.848C140.512 37 137.872 37.576 134.704 37.576ZM128.992 22.744H138.976C139.04 18.744 137.472 16.744 134.272 16.744C132.384 16.744 131.04 17.352 130.24 18.568C129.472 19.752 129.056 21.144 128.992 22.744ZM155.357 1.912V33.208H158.381C158.861 33.208 159.101 33.448 159.101 33.928V36.28C159.101 36.76 158.861 37 158.381 37H146.957C146.477 37 146.237 36.76 146.237 36.28V33.928C146.237 33.448 146.477 33.208 146.957 33.208H149.981V5.128H147.389C146.909 5.128 146.669 4.888 146.669 4.408V1.912C146.669 1.432 146.909 1.192 147.389 1.192H154.637C155.117 1.192 155.357 1.432 155.357 1.912ZM169.61 17.128V33.208H174.698C175.178 33.208 175.418 33.448 175.418 33.928V36.28C175.418 36.76 175.178 37 174.698 37H161.258C160.778 37 160.538 36.76 160.538 36.28V33.928C160.538 33.448 160.778 33.208 161.258 33.208H164.234V17.128H161.258C160.778 17.128 160.538 16.888 160.538 16.408V13.96C160.538 13.48 160.778 13.24 161.258 13.24H164.234V8.584C164.234 4.744 165.434 2.296 167.834 1.24C168.826 0.791997 170.186 0.567997 171.914 0.567997C173.642 0.567997 175.402 0.967998 177.194 1.768C177.482 1.896 177.626 2.056 177.626 2.248C177.626 2.44 177.61 2.584 177.578 2.68L176.858 5.08C176.698 5.464 176.426 5.576 176.042 5.416C174.762 4.84 173.546 4.552 172.394 4.552C171.242 4.552 170.49 4.936 170.138 5.704C169.786 6.44 169.61 7.784 169.61 9.736V13.24H175.418C175.898 13.24 176.138 13.48 176.138 13.96V16.408C176.138 16.888 175.898 17.128 175.418 17.128H169.61Z" />
</svg>
