<svg xmlns="http://www.w3.org/2000/svg" xmlns:xlink="http://www.w3.org/1999/xlink"><defs><style>
    .sprite-symbol-usage {display: none;}
    .sprite-symbol-usage:target {display: inline;}
  </style><symbol fill="none" viewBox="0 0 11 11" id="arrow"><g clip-path="url(#arrow_clip0)"><mask id="arrow_a" fill="#fff"><path d="M8.577 10.865a.459.459 0 0 0 0-.65L3.405 5.5 8.577.786a.459.459 0 0 0 0-.651.464.464 0 0 0-.654 0L2.42 5.15a.454.454 0 0 0-.131.349.453.453 0 0 0 .13.348l5.506 5.017c.18.18.473.18.653 0z" /></mask><path d="M8.577 10.865a.459.459 0 0 0 0-.65L3.405 5.5 8.577.786a.459.459 0 0 0 0-.651.464.464 0 0 0-.654 0L2.42 5.15a.454.454 0 0 0-.131.349.453.453 0 0 0 .13.348l5.506 5.017c.18.18.473.18.653 0z" fill="#111C2B" /><path d="M8.577 10.214l.706-.709-.016-.015-.016-.015-.674.74zM3.405 5.5l-.674-.739-.81.74.81.738.674-.739zM8.577.786l.674.739.016-.015.016-.015-.706-.71zM7.923.135l.674.739.016-.015.016-.015-.706-.71zM2.42 5.15l-.674-.739-.016.015-.016.016.706.708zm-.131.349l.998.05.003-.05-.003-.051-.998.05zm.13.348l-.705.71.016.015.016.014.674-.739zm5.506 5.017l.705-.709-.016-.015-.016-.015-.673.74zm1.359.71a1.459 1.459 0 0 0 0-2.07l-1.41 1.418a.541.541 0 0 1 0-.767l1.41 1.418zm-.032-2.1L4.079 4.761 2.73 6.24l5.173 4.714L9.25 9.475zM4.079 6.24L9.25 1.525 7.904.047 2.73 4.76l1.35 1.48zm5.204-4.744a1.459 1.459 0 0 0 0-2.07L7.873.845a.541.541 0 0 1 0-.767l1.41 1.418zm0-2.07a1.464 1.464 0 0 0-2.065 0L8.628.845a.536.536 0 0 1-.756 0l1.41-1.418zM7.25-.604L1.745 4.413 3.092 5.89 8.597.874 7.25-.604zM1.713 4.444c-.318.316-.443.73-.424 1.108l1.997-.102a.546.546 0 0 1-.162.411l-1.41-1.417zM1.29 5.449c-.02.378.106.791.424 1.108l1.41-1.417a.547.547 0 0 1 .162.412L1.29 5.449zm.456 1.138l5.505 5.017 1.347-1.478L3.092 5.11 1.745 6.587zm5.473 4.987a1.464 1.464 0 0 0 2.065 0l-1.41-1.418a.536.536 0 0 1 .756 0l-1.41 1.418z" fill="#000" mask="url(#arrow_a)" /></g><defs><clipPath id="arrow_clip0"><path fill="#fff" transform="rotate(90 5.5 5.5)" d="M0 0h11v11H0z" /></clipPath></defs></symbol><symbol fill="none" viewBox="0 0 460 260" id="icon-earth"><g opacity=".03" clip-path="url(#icon-earth_clip0)"><path d="M205.949 195.117c-1.482-.266-2.829-.665-4.109-1.463-2.021-1.198-3.706-2.861-5.053-4.723-1.28-1.729-2.358-3.658-3.032-5.654-1.415-4.256-1.145-8.979.809-13.036 2.56-5.388 7.747-9.179 13.406-11.108 5.659-1.929 11.79-2.128 17.786-1.663.674-2.527-.539-5.321-2.695-6.718-2.156-1.397-5.187-1.397-7.411 0-2.223 1.397-3.57 3.991-3.503 6.519-4.581.066-9.162.066-13.743.133-.472 0-.943 0-1.348-.2-.943-.399-1.28-1.596-1.347-2.594-.27-4.124 1.886-8.181 5.053-10.908 3.166-2.727 7.208-4.257 11.318-5.055 5.794-1.131 11.857-.931 17.583.665 3.167.865 6.333 2.195 8.691 4.523 2.358 2.328 3.705 5.454 4.312 8.647.673 3.192.673 6.518.606 9.777-.067 10.642-.472 21.351 1.684 31.727H230.27c-.472 0-.944 0-1.348-.266-.606-.466-.606-1.33-.808-1.995-.068-.266-.202-.532-.472-.665-.606-.333-1.549.864-2.021 1.13-1.28.865-2.56 1.663-4.042 2.262a19.282 19.282 0 0 1-7.478 1.53c-2.762 0-5.524-.4-8.152-.865zm19.874-25.674c-4.648-.4-8.825-.133-12.598 2.128-2.29 1.397-3.301 3.525-3.166 6.186.067 2.261 1.28 3.791 3.233 4.722 3.436 1.663 9.365.532 11.049-3.991 1.011-2.86 1.347-5.786 1.482-9.045zm127.666-9.645c-1.213-10.576-7.344-18.225-16.641-20.752-3.503-.998-7.074-1.131-10.644-.931-9.971.532-17.382 5.055-21.289 14.234-4.446 10.509-4.312 21.151.808 31.461 1.887 3.857 4.784 7.183 8.556 9.245 1.28.665 2.56 1.197 3.908 1.663 1.415.399 2.829.532 4.244.665 2.762.133 5.592.266 8.354.133 2.695-.133 5.592-.266 8.152-1.264a18.3 18.3 0 0 0 5.793-3.725c2.965-2.727 5.053-6.185 6.468-9.91a33.777 33.777 0 0 0 1.28-4.456c.202-.932-.539-1.796-1.549-1.796H336.04v.066c-.202 1.996-.539 3.991-1.482 5.654-1.415 2.461-3.84 3.459-6.603 3.459-1.549 0-3.166-.333-4.513-1.131-1.752-1.064-2.897-2.993-3.436-4.922-.27-.998-.472-2.062-.539-3.06-.067-.532-.067-2.993-.067-2.993s2.627-.066 3.166-.066h30.788c.471-4.124.539-7.849.135-11.574zm-33.753-1.397c-.202-5.853 4.043-8.713 8.017-8.646 5.12.066 7.748 2.594 8.152 8.646h-16.169zm67.437 37.714a34.19 34.19 0 0 0 3.84-.399c.742-.133 1.483-.2 2.224-.533.404-.133 3.233-1.263 3.233-1.662v-12.239c-1.953.466-3.772 1.131-5.659 1.33-5.322.666-7.006-.798-7.073-6.052v-25.076h11.924c.606-6.119.337-7.982-1.078-9.977-2.762-3.791-7.074-2.328-10.914-3.06v-4.124c0-1.33.068-2.66 0-3.99-.135-3.526-2.088-6.12-5.389-6.652-3.706-.598-7.478-.199-11.453-.199v14.965c-4.716.2-9.365.2-9.365.2v12.903h9.432v14.567c0 4.656-.202 9.378.068 14.034.202 2.993.808 6.053 2.357 8.647 3.706 6.053 11.184 7.649 17.853 7.317zm-92.363-2.129h-16.641v-77.355c3.638 0 7.209-.266 10.712.066 3.571.333 5.659 2.86 5.861 6.585.135 2.328.068 4.656.068 6.984v63.72zm-25.938-.066h-16.505v-77.489c3.84 0 7.478-.332 11.116.2 2.897.465 4.783 2.394 5.255 5.254.134.865.202 1.73.202 2.661v67.112c.067.732 0 1.397-.068 2.262z" fill="#1427A9" /><path d="M105.029 150.752l6.872 20.886c5.659-3.858 10.712-8.448 15.023-13.769l-8.556-25.94c-2.896 7.25-7.478 13.635-13.339 18.823z" fill="#F78C02" /><path d="M71.412 43C32 43 0 74.594 0 113.505c0 38.91 32 70.504 71.412 70.504a72.945 72.945 0 0 0 20.682-2.993l4.245 12.97h19.537l-22.232-67.777a6.004 6.004 0 0 0-5.66-4.058H72.76l12.868 39.243c-4.514 1.331-9.297 1.996-14.215 1.996-27.891 0-50.527-22.349-50.527-49.885 0-27.537 22.636-49.886 50.527-49.886 27.89 0 50.527 22.349 50.527 49.886 0 4.523-.606 8.912-1.751 13.036l9.229 28.069c1.482-1.995 2.83-4.124 4.11-6.252a66.363 66.363 0 0 0 5.793-12.97c2.291-6.918 3.504-14.301 3.504-21.95C142.824 74.594 110.823 43 71.412 43z" fill="#F78C02" /><path d="M192.34 149.821l-14.484 44.165h-19.537l-9.769-30.862-9.768 30.862h-19.538l-7.343-22.415-6.872-20.819-9.364-28.601h15.226c2.56 0 4.85 1.663 5.659 4.058l1.886 5.653 8.556 25.941 3.57 10.775 9.567-29.798h12.126c2.83 0 5.323 1.796 6.198 4.456l8.22 25.408 9.701-29.864h7.882c5.794 0 9.903 5.653 8.084 11.041zm208.173-12.97h15.629c2.965 0 5.525 1.929 6.333 4.722l8.219 27.338c.472 1.662.809 3.724.943 6.052h.405c.269-2.261.673-4.257 1.212-5.986l9.836-32.193h10.173c4.716 0 8.017 4.656 6.333 9.046l-18.999 50.484c-2.896 7.583-6.4 12.904-10.577 16.03-4.176 3.126-9.633 4.656-16.37 4.656a37.39 37.39 0 0 1-8.017-.865V200.97c1.751.399 3.772.599 6.063.599 1.752 0 3.234-.333 4.514-.998a10.332 10.332 0 0 0 3.368-2.793c.943-1.198 2.021-3.193 3.099-5.92l-22.164-55.007z" fill="#1427A9" /></g><g clip-path="url(#icon-earth_clip1)"><path d="M360.031 260h-.004l-244.414-.157a7.62 7.62 0 0 1-7.611-7.807c.139-5.533.621-11.01 1.436-16.401 2.218-14.665 32.585-21.606 39.516-34.533 5.398-10.071-13.524-26.571-5.504-35.041a130.68 130.68 0 0 1 3.697-3.751c24.395-23.796 56.597-36.9 90.676-36.9 30.356 0 59.218 10.394 82.403 29.481 2.866 2.36-16.804 42.142-10.29 55.859 5.755 12.116 57.254 32.823 57.441 35.551.133 1.96.224 3.927.269 5.901a7.615 7.615 0 0 1-7.615 7.798z" fill="#5263D7" /><path d="M367.377 246.301c-.186-2.727-51.686-23.435-57.44-35.551-6.514-13.717 13.155-53.499 10.289-55.859-23.185-19.087-52.047-29.481-82.401-29.481v134.513l122.203.077h.004a7.623 7.623 0 0 0 5.449-2.293 7.63 7.63 0 0 0 2.168-5.505 136.048 136.048 0 0 0-.272-5.901z" fill="#1427A9" /><path d="M237.825 125.517a6.998 6.998 0 0 1-6.262-3.87l-10.001-20.005c-21.267-6.963-35.853-26.88-35.853-49.526C185.709 23.38 209.088 0 237.825 0s52.117 23.38 52.117 52.116c0 22.645-14.586 42.563-35.853 49.528l-10.003 20.003a6.998 6.998 0 0 1-6.261 3.87z" fill="#FFCC8B" /><path d="M237.825 0v125.517a6.998 6.998 0 0 0 6.261-3.87l10.003-20.005c21.267-6.963 35.851-26.88 35.851-49.526C289.942 23.38 266.562 0 237.825 0z" fill="#F78C02" /><path d="M237.825 67.35c-8.4 0-15.236-6.833-15.236-15.234 0-8.4 6.836-15.234 15.236-15.234 8.401 0 15.235 6.834 15.235 15.234s-6.834 15.235-15.235 15.235z" fill="#F3EEE9" /><path d="M142.525 239.199c12.394 0 22.646-10.08 22.85-22.47.069-4.13 3.485-7.49 7.617-7.49h5.415c12.602 0 22.854-10.252 22.854-22.854 0-12.6-10.252-22.852-22.854-22.852h-32.484c-20.584 20.609-33.446 47.054-36.971 75.666h33.573z" fill="#87E395" /><path d="M328.557 162.367a131.461 131.461 0 0 0-8.321-7.454c-12.17.265-22.149 10.235-22.352 22.458-.067 4.13-3.485 7.491-7.615 7.491h-16.641c-12.602 0-22.853 10.251-22.853 22.853 0 12.6 10.251 22.852 22.853 22.852h15.602c1.063 3.245 2.862 6.234 5.32 8.773 4.35 4.495 10.176 6.969 16.404 6.969h56.419c-2.176-31.869-15.825-61.489-38.816-83.942z" fill="#4BBD5C" /><path d="M237.825 36.882V67.35c8.401 0 15.235-6.834 15.235-15.235 0-8.4-6.834-15.234-15.235-15.234z" fill="#E9DFDA" /></g><defs><clipPath id="icon-earth_clip0"><path fill="#fff" transform="translate(0 43)" d="M0 0h460v174H0z" /></clipPath><clipPath id="icon-earth_clip1"><path fill="#fff" transform="translate(108)" d="M0 0h260v260H0z" /></clipPath></defs></symbol><symbol fill="none" viewBox="0 0 16 16" id="icon-lock"><path d="M12 5.333h-.667V4a3.335 3.335 0 0 0-6.666 0v1.333H4c-.733 0-1.333.6-1.333 1.334v6.666c0 .734.6 1.334 1.333 1.334h8c.733 0 1.333-.6 1.333-1.334V6.667c0-.734-.6-1.334-1.333-1.334zm-4 6c-.733 0-1.333-.6-1.333-1.333S7.267 8.667 8 8.667s1.333.6 1.333 1.333-.6 1.333-1.333 1.333zm2.067-6H5.933V4c0-1.14.927-2.067 2.067-2.067 1.14 0 2.067.927 2.067 2.067v1.333z" fill="#fff" /></symbol><symbol fill="none" viewBox="0 0 122 46" id="icon-logo"><g clip-path="url(#icon-logo_clip0)"><path d="M54.621 40.215c-.393-.07-.75-.176-1.09-.387a4.514 4.514 0 0 1-1.34-1.248 5.518 5.518 0 0 1-.804-1.495 4.608 4.608 0 0 1 .215-3.447c.679-1.424 2.055-2.426 3.555-2.936 1.501-.51 3.127-.563 4.717-.44.18-.668-.143-1.407-.714-1.776-.572-.369-1.376-.369-1.966 0a2.015 2.015 0 0 0-.929 1.723c-1.215.018-2.43.018-3.645.036-.125 0-.25 0-.357-.053-.25-.106-.34-.422-.358-.686-.071-1.09.5-2.163 1.34-2.884.84-.72 1.912-1.125 3.002-1.336a10.201 10.201 0 0 1 4.664.176c.84.228 1.68.58 2.305 1.195.625.616.982 1.442 1.143 2.286.179.844.179 1.724.161 2.585-.018 2.814-.125 5.645.447 8.388h-3.895c-.126 0-.25 0-.358-.07-.16-.123-.16-.352-.214-.528-.018-.07-.054-.14-.125-.176-.161-.088-.411.229-.536.3-.34.228-.68.439-1.072.597a5.126 5.126 0 0 1-1.984.404c-.732 0-1.465-.105-2.162-.228zm5.271-6.788c-1.233-.105-2.34-.035-3.341.563-.608.37-.876.932-.84 1.635.018.598.34 1.003.858 1.249.911.44 2.483.14 2.93-1.055.268-.756.357-1.53.393-2.392zm33.859-2.549c-.321-2.796-1.947-4.818-4.413-5.487-.93-.263-1.876-.298-2.823-.246-2.644.14-4.61 1.337-5.646 3.763-1.18 2.779-1.144 5.592.214 8.317.5 1.02 1.269 1.9 2.27 2.445.339.176.678.316 1.036.44.375.105.75.14 1.125.175.733.035 1.483.07 2.216.035.715-.035 1.483-.07 2.162-.334a4.862 4.862 0 0 0 1.537-.984c.786-.721 1.34-1.636 1.715-2.62.143-.387.25-.774.34-1.179.053-.246-.144-.474-.412-.474h-3.948v.017c-.054.528-.143 1.055-.393 1.495-.376.65-1.019.914-1.751.914-.412 0-.84-.088-1.198-.299-.464-.281-.768-.791-.91-1.3a4.263 4.263 0 0 1-.144-.81c-.018-.14-.018-.791-.018-.791s.697-.018.84-.018h8.166c.125-1.09.143-2.075.035-3.06zm-8.951-.37c-.054-1.547 1.072-2.303 2.126-2.285 1.358.017 2.055.685 2.162 2.285H84.8zm17.885 9.971a9.085 9.085 0 0 0 1.019-.106c.196-.035.393-.053.589-.14.107-.036.858-.335.858-.44v-3.236c-.518.123-1.001.3-1.501.352-1.412.176-1.858-.211-1.876-1.6v-6.63h3.162c.161-1.617.09-2.11-.285-2.637-.733-1.002-1.877-.615-2.895-.809v-1.09c0-.352.018-.703 0-1.055-.036-.932-.554-1.618-1.429-1.759-.983-.158-1.984-.052-3.038-.052v3.956c-1.25.053-2.484.053-2.484.053v3.411h2.502v3.851c0 1.231-.054 2.48.018 3.71.053.792.214 1.6.625 2.286.983 1.6 2.966 2.023 4.735 1.935zm-24.496-.563h-4.414v-20.45c.965 0 1.912-.07 2.841.017.947.088 1.501.756 1.555 1.741.035.616.018 1.23.018 1.846v16.846zm-6.879-.018h-4.378V19.413c1.019 0 1.983-.088 2.948.053.769.123 1.269.633 1.394 1.389.036.228.053.457.053.703V39.3c.018.194 0 .37-.017.598z" fill="#1427A9" /><path d="M27.856 28.486l1.822 5.522a18.567 18.567 0 0 0 3.985-3.64l-2.27-6.858a13.169 13.169 0 0 1-3.537 4.976z" fill="#F78C02" /><path d="M18.94 0C8.487 0 0 8.352 0 18.64c0 10.286 8.487 18.638 18.94 18.638 1.912 0 3.752-.281 5.485-.791l1.126 3.429h5.181l-5.896-17.918a1.592 1.592 0 0 0-1.5-1.073h-4.039L22.71 31.3a13.367 13.367 0 0 1-3.77.527c-7.398 0-13.401-5.908-13.401-13.188s6.004-13.188 13.4-13.188c7.398 0 13.401 5.908 13.401 13.188 0 1.196-.16 2.356-.464 3.447l2.448 7.42c.393-.527.75-1.09 1.09-1.653a17.51 17.51 0 0 0 1.536-3.429c.608-1.828.93-3.78.93-5.802C37.88 8.352 29.391 0 18.94 0z" fill="#F78C02" /><path d="M51.012 28.24L47.17 39.916h-5.18l-2.59-8.16-2.592 8.16h-5.181l-1.948-5.926-1.822-5.504-2.484-7.56h4.038c.68 0 1.287.439 1.501 1.072l.5 1.494 2.27 6.858.946 2.849 2.538-7.878h3.216c.75 0 1.411.475 1.644 1.178l2.18 6.717 2.572-7.895h2.09c1.538 0 2.628 1.495 2.145 2.92zm55.211-3.429h4.145c.786 0 1.465.51 1.68 1.249l2.18 7.227c.125.44.214.984.25 1.6h.107a8.807 8.807 0 0 1 .322-1.583l2.608-8.51h2.698c1.251 0 2.126 1.23 1.68 2.391l-5.039 13.346c-.768 2.005-1.697 3.412-2.805 4.238-1.108.827-2.555 1.231-4.342 1.231a9.9 9.9 0 0 1-2.126-.229v-4.009c.464.106 1 .158 1.608.158.464 0 .858-.087 1.197-.263a2.73 2.73 0 0 0 .893-.739c.251-.316.536-.844.822-1.565l-5.878-14.542z" fill="#1427A9" /></g><defs><clipPath id="icon-logo_clip0"><path fill="#fff" d="M0 0h122v46H0z" /></clipPath></defs></symbol><symbol fill="none" viewBox="0 0 460 263" id="icon-mill"><g opacity=".03" clip-path="url(#icon-mill_clip0)"><path d="M205.949 209.117c-1.482-.266-2.829-.665-4.109-1.463-2.021-1.198-3.706-2.861-5.053-4.723-1.28-1.729-2.358-3.658-3.032-5.654-1.415-4.256-1.145-8.979.809-13.036 2.56-5.388 7.747-9.179 13.406-11.108 5.659-1.929 11.79-2.128 17.786-1.663.674-2.527-.539-5.321-2.695-6.718-2.156-1.397-5.187-1.397-7.411 0-2.223 1.397-3.57 3.991-3.503 6.519-4.581.066-9.162.066-13.743.133-.472 0-.943 0-1.348-.2-.943-.399-1.28-1.596-1.347-2.594-.27-4.124 1.886-8.181 5.053-10.908 3.166-2.727 7.208-4.257 11.318-5.055 5.794-1.131 11.857-.931 17.583.665 3.167.865 6.333 2.195 8.691 4.523 2.358 2.328 3.705 5.454 4.312 8.647.673 3.192.673 6.518.606 9.777-.067 10.642-.472 21.351 1.684 31.727H230.27c-.472 0-.944 0-1.348-.266-.606-.466-.606-1.33-.808-1.995-.068-.266-.202-.532-.472-.665-.606-.333-1.549.864-2.021 1.13-1.28.865-2.56 1.663-4.042 2.262a19.282 19.282 0 0 1-7.478 1.53c-2.762 0-5.524-.4-8.152-.865zm19.874-25.674c-4.648-.4-8.825-.133-12.598 2.128-2.29 1.397-3.301 3.525-3.166 6.186.067 2.261 1.28 3.791 3.233 4.722 3.436 1.663 9.365.532 11.049-3.991 1.011-2.86 1.347-5.786 1.482-9.045zm127.666-9.645c-1.213-10.576-7.344-18.225-16.641-20.752-3.503-.998-7.074-1.131-10.644-.931-9.971.532-17.382 5.055-21.289 14.234-4.446 10.509-4.312 21.151.808 31.461 1.887 3.857 4.784 7.183 8.556 9.245 1.28.665 2.56 1.197 3.908 1.663 1.415.399 2.829.532 4.244.665 2.762.133 5.592.266 8.354.133 2.695-.133 5.592-.266 8.152-1.264a18.3 18.3 0 0 0 5.793-3.725c2.965-2.727 5.053-6.185 6.468-9.91a33.777 33.777 0 0 0 1.28-4.456c.202-.932-.539-1.796-1.549-1.796H336.04v.066c-.202 1.996-.539 3.991-1.482 5.654-1.415 2.461-3.84 3.459-6.603 3.459-1.549 0-3.166-.333-4.513-1.131-1.752-1.064-2.897-2.993-3.436-4.922-.27-.998-.472-2.062-.539-3.06-.067-.532-.067-2.993-.067-2.993s2.627-.066 3.166-.066h30.788c.471-4.124.539-7.849.135-11.574zm-33.753-1.397c-.202-5.853 4.043-8.713 8.017-8.646 5.12.066 7.748 2.594 8.152 8.646h-16.169zm67.437 37.714a34.19 34.19 0 0 0 3.84-.399c.742-.133 1.483-.2 2.224-.533.404-.133 3.233-1.263 3.233-1.662v-12.239c-1.953.466-3.772 1.131-5.659 1.33-5.322.666-7.006-.798-7.073-6.052v-25.076h11.924c.606-6.119.337-7.982-1.078-9.977-2.762-3.791-7.074-2.328-10.914-3.06v-4.124c0-1.33.068-2.66 0-3.99-.135-3.526-2.088-6.12-5.389-6.652-3.706-.598-7.478-.199-11.453-.199v14.965c-4.716.2-9.365.2-9.365.2v12.903h9.432v14.567c0 4.656-.202 9.378.068 14.034.202 2.993.808 6.053 2.357 8.647 3.706 6.053 11.184 7.649 17.853 7.317zm-92.363-2.129h-16.641v-77.355c3.638 0 7.209-.266 10.712.066 3.571.333 5.659 2.86 5.861 6.585.135 2.328.068 4.656.068 6.984v63.72zm-25.938-.066h-16.505v-77.489c3.84 0 7.478-.332 11.116.2 2.897.465 4.783 2.394 5.255 5.254.134.865.202 1.73.202 2.661v67.112c.067.732 0 1.397-.068 2.262z" fill="#1427A9" /><path d="M105.029 164.752l6.872 20.886c5.659-3.858 10.712-8.448 15.023-13.769l-8.556-25.94c-2.896 7.25-7.478 13.635-13.339 18.823z" fill="#F78C02" /><path d="M71.412 57C32 57 0 88.594 0 127.505c0 38.91 32 70.504 71.412 70.504a72.945 72.945 0 0 0 20.682-2.993l4.245 12.97h19.537l-22.232-67.777a6.004 6.004 0 0 0-5.66-4.058H72.76l12.868 39.243c-4.514 1.331-9.297 1.996-14.215 1.996-27.891 0-50.527-22.349-50.527-49.885 0-27.537 22.636-49.886 50.527-49.886 27.89 0 50.527 22.349 50.527 49.886 0 4.523-.606 8.912-1.751 13.036l9.229 28.069c1.482-1.995 2.83-4.124 4.11-6.252a66.363 66.363 0 0 0 5.793-12.97c2.291-6.918 3.504-14.301 3.504-21.95C142.824 88.594 110.823 57 71.412 57z" fill="#F78C02" /><path d="M192.34 163.821l-14.484 44.165h-19.537l-9.769-30.862-9.768 30.862h-19.538l-7.343-22.415-6.872-20.819-9.364-28.601h15.226c2.56 0 4.85 1.663 5.659 4.058l1.886 5.653 8.556 25.941 3.57 10.775 9.567-29.798h12.126c2.83 0 5.323 1.796 6.198 4.456l8.22 25.408 9.701-29.864h7.882c5.794 0 9.903 5.653 8.084 11.041zm208.173-12.97h15.629c2.965 0 5.525 1.929 6.333 4.722l8.219 27.338c.472 1.662.809 3.724.943 6.052h.405c.269-2.261.673-4.257 1.212-5.986l9.836-32.193h10.173c4.716 0 8.017 4.656 6.333 9.046l-18.999 50.484c-2.896 7.583-6.4 12.904-10.577 16.03-4.176 3.126-9.633 4.656-16.37 4.656a37.39 37.39 0 0 1-8.017-.865V214.97c1.751.399 3.772.599 6.063.599 1.752 0 3.234-.333 4.514-.998a10.332 10.332 0 0 0 3.368-2.793c.943-1.198 2.021-3.193 3.099-5.92l-22.164-55.007z" fill="#1427A9" /></g><path d="M252.542 263H175.68l-14.321-11.273 54.184-102.086c5.727-10.789 21.185-10.791 26.912-.002l54.186 102.088L282.32 263h-29.778z" fill="#5263D7" /><path d="M242.456 149.64c-2.864-5.395-8.16-8.092-13.456-8.091V263h53.32l14.321-11.273-54.185-102.087z" fill="#1427A9" /><path d="M169.751 176.507a7.615 7.615 0 0 1 0-10.771l43.092-43.092a7.613 7.613 0 0 1 10.771 0 7.615 7.615 0 0 1 0 10.771l-43.092 43.092a7.615 7.615 0 0 1-10.771 0zM229 109.641a7.613 7.613 0 0 1-7.617-7.618V41.086A7.613 7.613 0 0 1 229 33.469a7.613 7.613 0 0 1 7.617 7.617v60.937a7.613 7.613 0 0 1-7.617 7.618z" fill="#A1A7B3" /><path d="M236.617 102.023V41.086A7.613 7.613 0 0 0 229 33.469v76.172a7.613 7.613 0 0 0 7.617-7.618z" fill="#979CA7" /><path d="M229 201.047a7.613 7.613 0 0 1-7.617-7.617v-60.938a7.613 7.613 0 0 1 7.617-7.617 7.613 7.613 0 0 1 7.617 7.617v60.938a7.613 7.613 0 0 1-7.617 7.617z" fill="#A1A7B3" /><path d="M236.617 193.43v-60.938a7.613 7.613 0 0 0-7.617-7.617v76.172a7.613 7.613 0 0 0 7.617-7.617z" fill="#979CA7" /><path d="M213.766 124.875h-60.938a7.613 7.613 0 0 1-7.617-7.617 7.613 7.613 0 0 1 7.617-7.617h60.938a7.613 7.613 0 0 1 7.617 7.617 7.613 7.613 0 0 1-7.617 7.617z" fill="#A1A7B3" /><path d="M305.172 124.875h-60.938a7.613 7.613 0 0 1-7.617-7.617 7.613 7.613 0 0 1 7.617-7.617h60.938a7.613 7.613 0 0 1 7.617 7.617 7.613 7.613 0 0 1-7.617 7.617z" fill="#979CA7" /><path d="M277.478 176.507l-43.092-43.092a7.615 7.615 0 0 1 0-10.771 7.613 7.613 0 0 1 10.771 0l43.092 43.092a7.615 7.615 0 0 1 0 10.771 7.615 7.615 0 0 1-10.771 0z" fill="#979CA7" /><path d="M212.843 111.872l-43.092-43.091a7.615 7.615 0 0 1 0-10.772 7.616 7.616 0 0 1 10.772 0l43.092 43.092a7.615 7.615 0 0 1 0 10.771 7.614 7.614 0 0 1-10.772 0z" fill="#A1A7B3" /><path d="M234.385 111.872a7.615 7.615 0 0 1 0-10.771l43.092-43.092a7.616 7.616 0 0 1 10.772 0 7.615 7.615 0 0 1 0 10.772l-43.092 43.091a7.614 7.614 0 0 1-10.772 0z" fill="#979CA7" /><path d="M229 79.172c-21.023 0-38.086 17.062-38.086 38.086 0 21.023 17.063 38.086 38.086 38.086s38.086-17.063 38.086-38.086c0-21.024-17.063-38.086-38.086-38.086z" fill="#D5DCEC" /><path d="M229 94.406c-12.645 0-22.852 10.207-22.852 22.852 0 12.644 10.207 22.851 22.852 22.851s22.852-10.207 22.852-22.851c0-12.645-10.207-22.852-22.852-22.852z" fill="#7F838C" /><path d="M267.086 117.258c0 21.023-17.063 38.086-38.086 38.086V79.172c21.023 0 38.086 17.062 38.086 38.086z" fill="#B8BFCC" /><path d="M251.852 117.258c0 12.644-10.207 22.851-22.852 22.851V94.406c12.645 0 22.852 10.207 22.852 22.852z" fill="#757982" /><path d="M359 255.383c0 4.265-3.351 7.617-7.617 7.617H106.617c-4.266 0-7.617-3.352-7.617-7.617 0-4.266 3.351-7.617 7.617-7.617h244.766c4.266 0 7.617 3.351 7.617 7.617z" fill="#87E394" /><path d="M229 109.641c-4.266 0-7.617 3.351-7.617 7.617 0 4.265 3.351 7.617 7.617 7.617s7.617-3.352 7.617-7.617c0-4.266-3.351-7.617-7.617-7.617z" fill="#D5DCEC" /><path d="M236.617 117.258c0 4.265-3.351 7.617-7.617 7.617v-15.234c4.266 0 7.617 3.351 7.617 7.617z" fill="#B8BFCC" /><path d="M229 18.234c-54.692 0-99.023 44.332-99.023 99.024 0 54.691 44.331 99.023 99.023 99.023 54.692 0 99.023-44.332 99.023-99.023 0-54.692-44.331-99.024-99.023-99.024zm0 182.813c-46.312 0-83.789-37.477-83.789-83.789 0-46.313 37.477-83.79 83.789-83.79 46.312 0 83.789 37.477 83.789 83.79 0 46.312-37.477 83.789-83.789 83.789z" fill="#A1A7B3" /><path d="M328.023 117.258c0 54.691-44.331 99.023-99.023 99.023v-15.234c46.312 0 83.789-37.477 83.789-83.789 0-46.313-37.477-83.79-83.789-83.79V18.235c54.692 0 99.023 44.332 99.023 99.024z" fill="#979CA7" /><path d="M137.594 140.109c-12.601 0-22.852-10.25-22.852-22.851 0-12.601 10.251-22.852 22.852-22.852s22.851 10.251 22.851 22.852-10.25 22.851-22.851 22.851z" fill="#D5DCEC" /><path d="M137.594 140.109c12.601 0 22.851-10.25 22.851-22.851h-45.703c0 12.601 10.251 22.851 22.852 22.851z" fill="#FFCC8B" /><path d="M309.742 165.703c-8.836-8.836-23.308-8.836-32.297 0-4.417 4.57-6.703 10.512-6.703 16.301 0 5.941 2.286 11.578 6.703 15.996 4.418 4.57 10.36 6.703 16.149 6.703 5.941 0 11.731-2.133 16.148-6.703 4.571-4.417 6.703-10.054 6.703-15.996.153-5.789-2.133-11.731-6.703-16.301z" fill="#ADB3BF" /><path d="M320.406 140.109c-12.601 0-22.851-10.25-22.851-22.851 0-12.601 10.25-22.852 22.851-22.852 12.601 0 22.852 10.251 22.852 22.852s-10.251 22.851-22.852 22.851z" fill="#C9D0DF" /><path d="M320.406 140.109c12.601 0 22.852-10.25 22.852-22.851h-45.703c0 12.601 10.25 22.851 22.851 22.851z" fill="#F78C02" /><path d="M316.445 182.004c0 5.941-2.133 11.578-6.703 15.996-4.417 4.57-10.206 6.703-16.148 6.703-5.789 0-11.731-2.133-16.149-6.703-4.417-4.417-6.703-10.054-6.703-15.996h45.703z" fill="#CF4529" /><path d="M309.742 165.703c-8.836-8.836-23.308-8.836-32.297 0-4.417 4.57-6.703 10.512-6.703 16.301 0 5.941 2.286 11.578 6.703 15.996 4.418 4.57 10.36 6.703 16.149 6.703 5.941 0 11.731-2.133 16.148-6.703 4.571-4.417 6.703-10.054 6.703-15.996.153-5.789-2.133-11.731-6.703-16.301z" fill="#C9D0DF" /><path d="M316.445 182.004c0 5.941-2.133 11.578-6.703 15.996-4.417 4.57-10.206 6.703-16.148 6.703-5.789 0-11.731-2.133-16.149-6.703-4.417-4.417-6.703-10.054-6.703-15.996h45.703z" fill="#F78C02" /><path d="M180.25 36.211c-8.836-8.836-23.308-8.836-32.297 0-4.417 4.57-6.703 10.512-6.703 16.3 0 5.942 2.286 11.579 6.703 15.997 4.418 4.57 10.359 6.703 16.149 6.703 5.941 0 11.731-2.133 16.148-6.703 4.57-4.418 6.703-10.054 6.703-15.996.152-5.79-2.133-11.731-6.703-16.301z" fill="#D5DCEC" /><path d="M186.953 52.512c0 5.941-2.133 11.578-6.703 15.996-4.417 4.57-10.207 6.703-16.148 6.703-5.79 0-11.731-2.133-16.149-6.703-4.418-4.418-6.703-10.055-6.703-15.996h45.703z" fill="#FFCC8B" /><path d="M229 3c-12.645 0-22.852 10.207-22.852 22.852 0 12.644 10.207 22.851 22.852 22.851s22.852-10.207 22.852-22.851C251.852 13.206 241.645 3 229 3z" fill="#D5DCEC" /><path d="M251.852 25.852c0 12.644-10.207 22.851-22.852 22.851s-22.852-10.207-22.852-22.851h45.704z" fill="#FFCC8B" /><path d="M251.852 25.852c0 12.644-10.207 22.851-22.852 22.851V3c12.645 0 22.852 10.207 22.852 22.852z" fill="#C9D0DF" /><path d="M251.852 25.852c0 12.644-10.207 22.851-22.852 22.851V25.852h22.852z" fill="#F78C02" /><path d="M229 185.812c-12.645 0-22.852 10.207-22.852 22.852 0 12.644 10.207 23.359 22.852 23.359s22.852-10.715 22.852-23.359c0-12.645-10.207-22.852-22.852-22.852z" fill="#D5DCEC" /><path d="M251.852 208.664c0 12.644-10.207 23.359-22.852 23.359s-22.852-10.715-22.852-23.359h45.704z" fill="#FFCC8B" /><path d="M251.852 208.664c0 12.644-10.207 23.359-22.852 23.359v-46.211c12.645 0 22.852 10.207 22.852 22.852z" fill="#C9D0DF" /><path d="M251.852 208.664c0 12.644-10.207 23.359-22.852 23.359v-23.359h22.852z" fill="#F78C02" /><path d="M180.555 165.703c-8.989-8.836-23.461-8.836-32.297 0-4.57 4.57-6.856 10.512-6.703 16.301 0 5.941 2.133 11.578 6.703 15.996 4.417 4.57 10.206 6.703 16.148 6.703 5.789 0 11.731-2.133 16.149-6.703 4.417-4.417 6.703-10.054 6.703-15.996 0-5.789-2.285-11.731-6.703-16.301z" fill="#D5DCEC" /><path d="M187.258 182.004c0 5.941-2.286 11.578-6.703 15.996-4.418 4.57-10.36 6.703-16.149 6.703-5.941 0-11.731-2.133-16.148-6.703-4.571-4.417-6.703-10.054-6.703-15.996h45.703z" fill="#FFCC8B" /><path d="M310.047 36.211c-8.989-8.836-23.461-8.836-32.297 0-4.57 4.57-6.855 10.512-6.703 16.3 0 5.942 2.133 11.579 6.703 15.997 4.417 4.57 10.207 6.703 16.148 6.703 5.79 0 11.731-2.133 16.149-6.703 4.417-4.418 6.703-10.054 6.703-15.996 0-5.79-2.285-11.731-6.703-16.301z" fill="#C9D0DF" /><path d="M316.75 52.512c0 5.941-2.286 11.578-6.703 15.996-4.418 4.57-10.359 6.703-16.149 6.703-5.941 0-11.731-2.133-16.148-6.703-4.57-4.418-6.703-10.054-6.703-15.996h45.703z" fill="#F78C02" /><path d="M359 255.383c0 4.265-3.351 7.617-7.617 7.617H229v-15.234h122.383c4.266 0 7.617 3.351 7.617 7.617z" fill="#4BBD5C" /><defs><clipPath id="icon-mill_clip0"><path fill="#fff" transform="translate(0 57)" d="M0 0h460v174H0z" /></clipPath></defs></symbol><symbol fill="none" viewBox="0 0 460 262" id="icon-phone"><g opacity=".03" clip-path="url(#icon-phone_clip0)"><path d="M205.949 197.117c-1.482-.266-2.829-.665-4.109-1.463-2.021-1.198-3.706-2.861-5.053-4.723-1.28-1.729-2.358-3.658-3.032-5.654-1.415-4.256-1.145-8.979.809-13.036 2.56-5.388 7.747-9.179 13.406-11.108 5.659-1.929 11.79-2.128 17.786-1.663.674-2.527-.539-5.321-2.695-6.718-2.156-1.397-5.187-1.397-7.411 0-2.223 1.397-3.57 3.991-3.503 6.519-4.581.066-9.162.066-13.743.133-.472 0-.943 0-1.348-.2-.943-.399-1.28-1.596-1.347-2.594-.27-4.124 1.886-8.181 5.053-10.908 3.166-2.727 7.208-4.257 11.318-5.055 5.794-1.131 11.857-.931 17.583.665 3.167.865 6.333 2.195 8.691 4.523 2.358 2.328 3.705 5.454 4.312 8.647.673 3.192.673 6.518.606 9.777-.067 10.642-.472 21.351 1.684 31.727H230.27c-.472 0-.944 0-1.348-.266-.606-.466-.606-1.33-.808-1.995-.068-.266-.202-.532-.472-.665-.606-.333-1.549.864-2.021 1.13-1.28.865-2.56 1.663-4.042 2.262a19.282 19.282 0 0 1-7.478 1.53c-2.762 0-5.524-.4-8.152-.865zm19.874-25.674c-4.648-.4-8.825-.133-12.598 2.128-2.29 1.397-3.301 3.525-3.166 6.186.067 2.261 1.28 3.791 3.233 4.722 3.436 1.663 9.365.532 11.049-3.991 1.011-2.86 1.347-5.786 1.482-9.045zm127.666-9.645c-1.213-10.576-7.344-18.225-16.641-20.752-3.503-.998-7.074-1.131-10.644-.931-9.971.532-17.382 5.055-21.289 14.234-4.446 10.509-4.312 21.151.808 31.461 1.887 3.857 4.784 7.183 8.556 9.245 1.28.665 2.56 1.197 3.908 1.663 1.415.399 2.829.532 4.244.665 2.762.133 5.592.266 8.354.133 2.695-.133 5.592-.266 8.152-1.264a18.3 18.3 0 0 0 5.793-3.725c2.965-2.727 5.053-6.185 6.468-9.91a33.777 33.777 0 0 0 1.28-4.456c.202-.932-.539-1.796-1.549-1.796H336.04v.066c-.202 1.996-.539 3.991-1.482 5.654-1.415 2.461-3.84 3.459-6.603 3.459-1.549 0-3.166-.333-4.513-1.131-1.752-1.064-2.897-2.993-3.436-4.922-.27-.998-.472-2.062-.539-3.06-.067-.532-.067-2.993-.067-2.993s2.627-.066 3.166-.066h30.788c.471-4.124.539-7.849.135-11.574zm-33.753-1.397c-.202-5.853 4.043-8.713 8.017-8.646 5.12.066 7.748 2.594 8.152 8.646h-16.169zm67.437 37.714a34.19 34.19 0 0 0 3.84-.399c.742-.133 1.483-.2 2.224-.533.404-.133 3.233-1.263 3.233-1.662v-12.239c-1.953.466-3.772 1.131-5.659 1.33-5.322.666-7.006-.798-7.073-6.052v-25.076h11.924c.606-6.119.337-7.982-1.078-9.977-2.762-3.791-7.074-2.328-10.914-3.06v-4.124c0-1.33.068-2.66 0-3.99-.135-3.526-2.088-6.12-5.389-6.652-3.706-.598-7.478-.199-11.453-.199v14.965c-4.716.2-9.365.2-9.365.2v12.903h9.432v14.567c0 4.656-.202 9.378.068 14.034.202 2.993.808 6.053 2.357 8.647 3.706 6.053 11.184 7.649 17.853 7.317zm-92.363-2.129h-16.641v-77.355c3.638 0 7.209-.266 10.712.066 3.571.333 5.659 2.86 5.861 6.585.135 2.328.068 4.656.068 6.984v63.72zm-25.938-.066h-16.505v-77.489c3.84 0 7.478-.332 11.116.2 2.897.465 4.783 2.394 5.255 5.254.134.865.202 1.73.202 2.661v67.112c.067.732 0 1.397-.068 2.262z" fill="#1427A9" /><path d="M105.029 152.752l6.872 20.886c5.659-3.858 10.712-8.448 15.023-13.769l-8.556-25.94c-2.896 7.25-7.478 13.635-13.339 18.823z" fill="#F78C02" /><path d="M71.412 45C32 45 0 76.594 0 115.505c0 38.91 32 70.504 71.412 70.504a72.945 72.945 0 0 0 20.682-2.993l4.245 12.97h19.537l-22.232-67.777a6.004 6.004 0 0 0-5.66-4.058H72.76l12.868 39.243c-4.514 1.331-9.297 1.996-14.215 1.996-27.891 0-50.527-22.349-50.527-49.885 0-27.537 22.636-49.886 50.527-49.886 27.89 0 50.527 22.349 50.527 49.886 0 4.523-.606 8.912-1.751 13.036l9.229 28.069c1.482-1.995 2.83-4.124 4.11-6.252a66.363 66.363 0 0 0 5.793-12.97c2.291-6.918 3.504-14.301 3.504-21.95C142.824 76.594 110.823 45 71.412 45z" fill="#F78C02" /><path d="M192.34 151.821l-14.484 44.165h-19.537l-9.769-30.862-9.768 30.862h-19.538l-7.343-22.415-6.872-20.819-9.364-28.601h15.226c2.56 0 4.85 1.663 5.659 4.058l1.886 5.653 8.556 25.941 3.57 10.775 9.567-29.798h12.126c2.83 0 5.323 1.796 6.198 4.456l8.22 25.408 9.701-29.864h7.882c5.794 0 9.903 5.653 8.084 11.041zm208.173-12.97h15.629c2.965 0 5.525 1.929 6.333 4.722l8.219 27.338c.472 1.662.809 3.724.943 6.052h.405c.269-2.261.673-4.257 1.212-5.986l9.836-32.193h10.173c4.716 0 8.017 4.656 6.333 9.046l-18.999 50.484c-2.896 7.583-6.4 12.904-10.577 16.03-4.176 3.126-9.633 4.656-16.37 4.656a37.39 37.39 0 0 1-8.017-.865V202.97c1.751.399 3.772.599 6.063.599 1.752 0 3.234-.333 4.514-.998a10.332 10.332 0 0 0 3.368-2.793c.943-1.198 2.021-3.193 3.099-5.92l-22.164-55.007z" fill="#1427A9" /></g><path d="M109.508 95.354h120.788v130.25H109.508V95.354z" fill="#1427A9" /><path d="M109.508 95.354h60.394v130.25h-60.394V95.354z" fill="#5263D7" /><path d="M230.296 85.866c0-9.129-7.425-16.555-16.554-16.555h-87.681c-9.128 0-16.553 7.426-16.553 16.555v15.084h120.788V85.866zM109.508 220.008v23.439c0 9.128 7.425 16.553 16.553 16.553h87.683c9.127 0 16.554-7.425 16.554-16.553v-23.439h-120.79z" fill="#5163DD" /><path d="M361.337 36.253a7.617 7.617 0 0 0 7.617-7.617v-6.96c0-6.501-5.288-11.792-11.79-11.792h-10.03V7.617a7.617 7.617 0 1 0-15.234 0v2.267h-10.029c-6.501 0-11.789 5.29-11.789 11.791v13.039a7.614 7.614 0 0 0 5.566 7.335l16.252 4.545V58.68h-6.584v-4.413a7.618 7.618 0 0 0-15.234 0v7.859c0 6.5 5.288 11.789 11.789 11.789H331.9v2.8a7.618 7.618 0 0 0 15.234 0v-2.8h10.03c6.502 0 11.79-5.289 11.79-11.79V46.914a7.614 7.614 0 0 0-5.566-7.335l-16.254-4.545V25.12h6.586v3.517a7.617 7.617 0 0 0 7.617 7.617zm-7.617 16.44v5.987h-6.586v-7.827l6.586 1.84zM331.9 30.776l-6.584-1.84v-3.817h6.584v5.657z" fill="#4BBD5C" /><path d="M268.215 158.628a78.854 78.854 0 0 1-25.158-4.096 7.62 7.62 0 0 1-4.795-9.649 7.62 7.62 0 0 1 9.649-4.792 63.604 63.604 0 0 0 20.304 3.305c29.132 0 54.509-19.688 61.709-47.878a7.62 7.62 0 0 1 9.266-5.494 7.619 7.619 0 0 1 5.495 9.265c-8.925 34.938-40.372 59.339-76.47 59.339zm-66.496-97.109a7.615 7.615 0 0 1-7.099-10.374c5.695-14.674 15.556-27.202 28.513-36.236C236.399 5.661 251.989.772 268.213.772c11.938 0 23.409 2.6 34.099 7.728a7.617 7.617 0 0 1 3.572 10.164 7.616 7.616 0 0 1-10.162 3.573c-8.617-4.134-17.87-6.23-27.509-6.23-13.094 0-25.67 3.943-36.37 11.4-10.464 7.295-18.426 17.41-23.022 29.25a7.616 7.616 0 0 1-7.102 4.862z" fill="#F78C02" /><path d="M331.9 7.617v2.267h-10.029c-6.501 0-11.789 5.29-11.789 11.791v13.039a7.614 7.614 0 0 0 5.566 7.335l16.252 4.545V58.68h-6.584v-4.413a7.618 7.618 0 0 0-15.234 0v7.859c0 6.5 5.288 11.789 11.789 11.789H331.9v2.8a7.618 7.618 0 0 0 7.617 7.618V0a7.618 7.618 0 0 0-7.617 7.617zm0 23.16l-6.584-1.842V25.12h6.584v5.657z" fill="#87E394" /><path d="M126.061 69.31c-9.128 0-16.553 7.427-16.553 16.556v15.084h60.394V69.31h-43.841z" fill="#909FFF" /><path d="M109.508 243.447c0 9.128 7.425 16.553 16.553 16.553h43.841v-39.992h-60.394v23.439z" fill="#919FFF" /><path d="M176.702 240.796a6.797 6.797 0 0 0-6.8-6.794 6.795 6.795 0 1 0 0 13.588c3.755 0 6.8-3.041 6.8-6.794z" fill="#1427A9" /><path d="M163.104 240.796a6.796 6.796 0 0 0 6.798 6.794v-13.588a6.795 6.795 0 0 0-6.798 6.794z" fill="#5263D7" /><defs><clipPath id="icon-phone_clip0"><path fill="#fff" transform="translate(0 45)" d="M0 0h460v174H0z" /></clipPath></defs></symbol><symbol fill="none" viewBox="0 0 460 260" id="icon-shield"><g opacity=".03" clip-path="url(#icon-shield_clip0)"><path d="M205.949 209.117c-1.482-.266-2.829-.665-4.109-1.463-2.021-1.198-3.706-2.861-5.053-4.723-1.28-1.729-2.358-3.658-3.032-5.654-1.415-4.256-1.145-8.979.809-13.036 2.56-5.388 7.747-9.179 13.406-11.108 5.659-1.929 11.79-2.128 17.786-1.663.674-2.527-.539-5.321-2.695-6.718-2.156-1.397-5.187-1.397-7.411 0-2.223 1.397-3.57 3.991-3.503 6.519-4.581.066-9.162.066-13.743.133-.472 0-.943 0-1.348-.2-.943-.399-1.28-1.596-1.347-2.594-.27-4.124 1.886-8.181 5.053-10.908 3.166-2.727 7.208-4.257 11.318-5.055 5.794-1.131 11.857-.931 17.583.665 3.167.865 6.333 2.195 8.691 4.523 2.358 2.328 3.705 5.454 4.312 8.647.673 3.192.673 6.518.606 9.777-.067 10.642-.472 21.351 1.684 31.727H230.27c-.472 0-.944 0-1.348-.266-.606-.466-.606-1.33-.808-1.995-.068-.266-.202-.532-.472-.665-.606-.333-1.549.864-2.021 1.13-1.28.865-2.56 1.663-4.042 2.262a19.282 19.282 0 0 1-7.478 1.53c-2.762 0-5.524-.4-8.152-.865zm19.874-25.674c-4.648-.4-8.825-.133-12.598 2.128-2.29 1.397-3.301 3.525-3.166 6.186.067 2.261 1.28 3.791 3.233 4.722 3.436 1.663 9.365.532 11.049-3.991 1.011-2.86 1.347-5.786 1.482-9.045zm127.666-9.645c-1.213-10.576-7.344-18.225-16.641-20.752-3.503-.998-7.074-1.131-10.644-.931-9.971.532-17.382 5.055-21.289 14.234-4.446 10.509-4.312 21.151.808 31.461 1.887 3.857 4.784 7.183 8.556 9.245 1.28.665 2.56 1.197 3.908 1.663 1.415.399 2.829.532 4.244.665 2.762.133 5.592.266 8.354.133 2.695-.133 5.592-.266 8.152-1.264a18.3 18.3 0 0 0 5.793-3.725c2.965-2.727 5.053-6.185 6.468-9.91a33.777 33.777 0 0 0 1.28-4.456c.202-.932-.539-1.796-1.549-1.796H336.04v.066c-.202 1.996-.539 3.991-1.482 5.654-1.415 2.461-3.84 3.459-6.603 3.459-1.549 0-3.166-.333-4.513-1.131-1.752-1.064-2.897-2.993-3.436-4.922-.27-.998-.472-2.062-.539-3.06-.067-.532-.067-2.993-.067-2.993s2.627-.066 3.166-.066h30.788c.471-4.124.539-7.849.135-11.574zm-33.753-1.397c-.202-5.853 4.043-8.713 8.017-8.646 5.12.066 7.748 2.594 8.152 8.646h-16.169zm67.437 37.714a34.19 34.19 0 0 0 3.84-.399c.742-.133 1.483-.2 2.224-.533.404-.133 3.233-1.263 3.233-1.662v-12.239c-1.953.466-3.772 1.131-5.659 1.33-5.322.666-7.006-.798-7.073-6.052v-25.076h11.924c.606-6.119.337-7.982-1.078-9.977-2.762-3.791-7.074-2.328-10.914-3.06v-4.124c0-1.33.068-2.66 0-3.99-.135-3.526-2.088-6.12-5.389-6.652-3.706-.598-7.478-.199-11.453-.199v14.965c-4.716.2-9.365.2-9.365.2v12.903h9.432v14.567c0 4.656-.202 9.378.068 14.034.202 2.993.808 6.053 2.357 8.647 3.706 6.053 11.184 7.649 17.853 7.317zm-92.363-2.129h-16.641v-77.355c3.638 0 7.209-.266 10.712.066 3.571.333 5.659 2.86 5.861 6.585.135 2.328.068 4.656.068 6.984v63.72zm-25.938-.066h-16.505v-77.489c3.84 0 7.478-.332 11.116.2 2.897.465 4.783 2.394 5.255 5.254.134.865.202 1.73.202 2.661v67.112c.067.732 0 1.397-.068 2.262z" fill="#1427A9" /><path d="M105.029 164.752l6.872 20.886c5.659-3.858 10.712-8.448 15.023-13.769l-8.556-25.94c-2.896 7.25-7.478 13.635-13.339 18.823z" fill="#F78C02" /><path d="M71.412 57C32 57 0 88.594 0 127.505c0 38.91 32 70.504 71.412 70.504a72.945 72.945 0 0 0 20.682-2.993l4.245 12.97h19.537l-22.232-67.777a6.004 6.004 0 0 0-5.66-4.058H72.76l12.868 39.243c-4.514 1.331-9.297 1.996-14.215 1.996-27.891 0-50.527-22.349-50.527-49.885 0-27.537 22.636-49.886 50.527-49.886 27.89 0 50.527 22.349 50.527 49.886 0 4.523-.606 8.912-1.751 13.036l9.229 28.069c1.482-1.995 2.83-4.124 4.11-6.252a66.363 66.363 0 0 0 5.793-12.97c2.291-6.918 3.504-14.301 3.504-21.95C142.824 88.594 110.823 57 71.412 57z" fill="#F78C02" /><path d="M192.34 163.821l-14.484 44.165h-19.537l-9.769-30.862-9.768 30.862h-19.538l-7.343-22.415-6.872-20.819-9.364-28.601h15.226c2.56 0 4.85 1.663 5.659 4.058l1.886 5.653 8.556 25.941 3.57 10.775 9.567-29.798h12.126c2.83 0 5.323 1.796 6.198 4.456l8.22 25.408 9.701-29.864h7.882c5.794 0 9.903 5.653 8.084 11.041zm208.173-12.97h15.629c2.965 0 5.525 1.929 6.333 4.722l8.219 27.338c.472 1.662.809 3.724.943 6.052h.405c.269-2.261.673-4.257 1.212-5.986l9.836-32.193h10.173c4.716 0 8.017 4.656 6.333 9.046l-18.999 50.484c-2.896 7.583-6.4 12.904-10.577 16.03-4.176 3.126-9.633 4.656-16.37 4.656a37.39 37.39 0 0 1-8.017-.865V214.97c1.751.399 3.772.599 6.063.599 1.752 0 3.234-.333 4.514-.998a10.332 10.332 0 0 0 3.368-2.793c.943-1.198 2.021-3.193 3.099-5.92l-22.164-55.007z" fill="#1427A9" /></g><g clip-path="url(#icon-shield_clip1)"><path d="M327.52 173.626c-6.988 18.94-17.557 35.408-31.417 48.943-15.776 15.405-36.434 27.646-61.4 36.378-.819.286-1.674.52-2.533.692a19.154 19.154 0 0 1-3.434.361h-.224c-1.22 0-2.446-.123-3.662-.361a19.707 19.707 0 0 1-2.517-.686c-24.996-8.718-45.679-20.953-61.471-36.358-13.866-13.535-24.432-29.993-31.411-48.933-12.689-34.436-11.967-72.371-11.386-102.856l.01-.468c.117-2.517.192-5.161.234-8.081.212-14.336 11.61-26.196 25.948-26.996 29.894-1.668 53.019-11.418 72.778-30.677l.173-.159c3.28-3.009 7.414-4.485 11.528-4.423 3.968.052 7.919 1.525 11.083 4.423l.169.16c19.763 19.258 42.888 29.008 72.782 30.676 14.337.8 25.735 12.66 25.948 26.996.041 2.94.117 5.58.234 8.081l.006.198c.579 30.543 1.297 68.553-11.438 103.09z" fill="#FFCC8B" /><path d="M327.519 173.626c-6.988 18.94-17.557 35.408-31.416 48.943-15.776 15.405-36.434 27.646-61.4 36.378-.819.286-1.674.52-2.533.692a19.154 19.154 0 0 1-3.434.361V.002c3.967.052 7.919 1.525 11.083 4.423l.168.16c19.763 19.258 42.889 29.008 72.782 30.676 14.338.8 25.736 12.66 25.948 26.996.042 2.94.117 5.58.234 8.081l.006.198c.579 30.543 1.297 68.553-11.438 103.09z" fill="#F78C02" /><path d="M293.306 130c0 35.652-28.948 64.673-64.57 64.8h-.228c-35.728 0-64.8-29.07-64.8-64.8 0-35.727 29.072-64.798 64.8-64.798h.228c35.622.127 64.57 29.148 64.57 64.798z" fill="#fff" /><path d="M293.306 130c0 35.652-28.948 64.673-64.57 64.8V65.202c35.622.127 64.57 29.148 64.57 64.798z" fill="#E6E6E6" /><path d="M257.919 120.669l-29.183 29.187-6.306 6.306a7.608 7.608 0 0 1-5.396 2.234 7.612 7.612 0 0 1-5.397-2.234l-13.558-13.564a7.625 7.625 0 0 1 0-10.787c2.975-2.979 7.807-2.979 10.787 0l8.168 8.169 30.098-30.098c2.98-2.981 7.812-2.981 10.787 0 2.98 2.979 2.98 7.812 0 10.787z" fill="#666" /><path d="M257.919 120.669l-29.183 29.187v-21.58l18.396-18.394c2.98-2.981 7.812-2.981 10.787 0 2.98 2.979 2.98 7.812 0 10.787z" fill="#000" /></g><defs><clipPath id="icon-shield_clip0"><path fill="#fff" transform="translate(0 57)" d="M0 0h460v174H0z" /></clipPath><clipPath id="icon-shield_clip1"><path fill="#fff" transform="translate(98)" d="M0 0h260v260H0z" /></clipPath></defs></symbol></defs><use id="arrow-usage" xlink:href="#arrow" class="sprite-symbol-usage" /><use id="icon-earth-usage" xlink:href="#icon-earth" class="sprite-symbol-usage" /><use id="icon-lock-usage" xlink:href="#icon-lock" class="sprite-symbol-usage" /><use id="icon-logo-usage" xlink:href="#icon-logo" class="sprite-symbol-usage" /><use id="icon-mill-usage" xlink:href="#icon-mill" class="sprite-symbol-usage" /><use id="icon-phone-usage" xlink:href="#icon-phone" class="sprite-symbol-usage" /><use id="icon-shield-usage" xlink:href="#icon-shield" class="sprite-symbol-usage" /></svg>