<svg width="128" height="24" viewBox="0 0 128 24" fill="none" xmlns="http://www.w3.org/2000/svg">
<path d="M9.11201 18.8818C7.38588 18.8818 5.82571 18.4751 4.43153 17.6619C3.05394 16.8486 1.9668 15.726 1.17012 14.2939C0.390041 12.8442 0 11.2265 0 9.44088C0 7.65525 0.390041 6.04641 1.17012 4.61436C1.9668 3.16464 3.06223 2.03315 4.45642 1.21989C5.85061 0.40663 7.41077 0 9.13691 0C10.4315 0 11.6265 0.229834 12.722 0.689503C13.8174 1.14917 14.7469 1.82099 15.5103 2.70497L14.3402 3.95138C12.9792 2.48398 11.2614 1.75028 9.1867 1.75028C7.80911 1.75028 6.556 2.08619 5.42737 2.75801C4.29875 3.42983 3.41078 4.34917 2.76348 5.51602C2.13278 6.68287 1.81742 7.99116 1.81742 9.44088C1.81742 10.8906 2.13278 12.1989 2.76348 13.3657C3.41078 14.5326 4.29875 15.4519 5.42737 16.1238C6.556 16.7956 7.80911 17.1315 9.1867 17.1315C11.278 17.1315 12.9958 16.3889 14.3402 14.9039L15.5103 16.1503C14.7469 17.0343 13.8091 17.7149 12.6971 18.1923C11.6016 18.6519 10.4066 18.8818 9.11201 18.8818Z" fill="black"/>
<path d="M20.7572 7.50497C21.1722 6.56796 21.7863 5.86077 22.5995 5.38343C23.4294 4.90608 24.4502 4.6674 25.6618 4.6674V6.49724L25.2385 6.47072C23.8609 6.47072 22.7821 6.92155 22.002 7.8232C21.2219 8.72486 20.8319 9.98895 20.8319 11.6155V18.7227H19.0643V4.77348H20.7572V7.50497Z" fill="black"/>
<path d="M40.4256 4.77348L33.8779 20.3934C33.3468 21.7017 32.7327 22.6298 32.0356 23.1779C31.3385 23.726 30.5003 24 29.5211 24C28.8904 24 28.3012 23.8939 27.7534 23.6818C27.2057 23.4696 26.7327 23.1514 26.3344 22.7271L27.1559 21.3215C27.8198 22.0287 28.6165 22.3823 29.546 22.3823C30.1435 22.3823 30.6497 22.2055 31.0646 21.8519C31.4962 21.4983 31.8945 20.8972 32.2597 20.0486L32.8323 18.6961L26.9817 4.77348H28.824L33.7534 16.6276L38.6829 4.77348H40.4256Z" fill="black"/>
<path d="M49.6619 4.6674C50.8901 4.6674 52.0022 4.96796 52.998 5.56906C53.9939 6.15249 54.7739 6.98342 55.3383 8.06188C55.9026 9.14033 56.1847 10.3691 56.1847 11.7481C56.1847 13.1448 55.9026 14.3823 55.3383 15.4608C54.7739 16.5392 53.9939 17.379 52.998 17.9801C52.0188 18.5635 50.9067 18.8552 49.6619 18.8552C48.5997 18.8552 47.637 18.6254 46.774 18.1657C45.9275 17.6884 45.2304 16.9989 44.6827 16.0972V23.8674H42.915V4.77348H44.608V7.53149C45.1391 6.61215 45.8362 5.90497 46.6993 5.40994C47.5789 4.91492 48.5665 4.6674 49.6619 4.6674ZM49.5374 17.1845C50.4503 17.1845 51.2802 16.9635 52.0271 16.5215C52.7739 16.0619 53.3549 15.4166 53.7698 14.5856C54.2013 13.7547 54.4171 12.8088 54.4171 11.7481C54.4171 10.6873 54.2013 9.75028 53.7698 8.93702C53.3549 8.10608 52.7739 7.46077 52.0271 7.0011C51.2802 6.54144 50.4503 6.3116 49.5374 6.3116C48.608 6.3116 47.7698 6.54144 47.0229 7.0011C46.2926 7.46077 45.7117 8.10608 45.2802 8.93702C44.8652 9.75028 44.6578 10.6873 44.6578 11.7481C44.6578 12.8088 44.8652 13.7547 45.2802 14.5856C45.7117 15.4166 46.2926 16.0619 47.0229 16.5215C47.7698 16.9635 48.608 17.1845 49.5374 17.1845Z" fill="black"/>
<path d="M66.6843 17.874C66.3524 18.1923 65.9374 18.4398 65.4395 18.6166C64.9582 18.7757 64.452 18.8552 63.9208 18.8552C62.6926 18.8552 61.7466 18.5017 61.0827 17.7945C60.4188 17.0873 60.0868 16.0884 60.0868 14.7978V6.36464H57.7466V4.77348H60.0868V1.72376H61.8544V4.77348H65.8378V6.36464H61.8544V14.6917C61.8544 15.5227 62.0453 16.1591 62.4271 16.6011C62.8254 17.0254 63.3897 17.2376 64.12 17.2376C64.4851 17.2376 64.8337 17.1757 65.1656 17.0519C65.5142 16.9282 65.8129 16.7514 66.0619 16.5215L66.6843 17.874Z" fill="black"/>
<path d="M74.7929 18.8552C73.5315 18.8552 72.3946 18.5547 71.3821 17.9536C70.3697 17.3348 69.573 16.4862 68.9921 15.4077C68.4112 14.3293 68.1207 13.1094 68.1207 11.7481C68.1207 10.3867 68.4112 9.16685 68.9921 8.0884C69.573 7.00994 70.3697 6.17017 71.3821 5.56906C72.3946 4.96796 73.5315 4.6674 74.7929 4.6674C76.0543 4.6674 77.1912 4.96796 78.2037 5.56906C79.2161 6.17017 80.0045 7.00994 80.5688 8.0884C81.1497 9.16685 81.4402 10.3867 81.4402 11.7481C81.4402 13.1094 81.1497 14.3293 80.5688 15.4077C80.0045 16.4862 79.2161 17.3348 78.2037 17.9536C77.1912 18.5547 76.0543 18.8552 74.7929 18.8552ZM74.7929 17.1845C75.7224 17.1845 76.5522 16.9635 77.2825 16.5215C78.0294 16.0619 78.6103 15.4166 79.0253 14.5856C79.4402 13.7547 79.6477 12.8088 79.6477 11.7481C79.6477 10.6873 79.4402 9.74144 79.0253 8.9105C78.6103 8.07956 78.0294 7.44309 77.2825 7.0011C76.5522 6.54144 75.7224 6.3116 74.7929 6.3116C73.8634 6.3116 73.0253 6.54144 72.2784 7.0011C71.5481 7.44309 70.9672 8.07956 70.5356 8.9105C70.1207 9.74144 69.9132 10.6873 69.9132 11.7481C69.9132 12.8088 70.1207 13.7547 70.5356 14.5856C70.9672 15.4166 71.5481 16.0619 72.2784 16.5215C73.0253 16.9635 73.8634 17.1845 74.7929 17.1845Z" fill="black"/>
<path d="M91.9452 0.159116C94.1693 0.159116 95.912 0.724861 97.1734 1.85635C98.4348 2.98784 99.0655 4.54365 99.0655 6.52376C99.0655 8.50387 98.4348 10.0597 97.1734 11.1912C95.912 12.305 94.1693 12.8619 91.9452 12.8619H87.2647V18.7227H85.4224V0.159116H91.9452ZM91.8954 11.1381C93.6216 11.1381 94.9411 10.7403 95.8539 9.94475C96.7668 9.13149 97.2232 7.99116 97.2232 6.52376C97.2232 5.02099 96.7668 3.87182 95.8539 3.07624C94.9411 2.26298 93.6216 1.85635 91.8954 1.85635H87.2647V11.1381H91.8954Z" fill="black"/>
<path d="M107.135 4.6674C108.845 4.6674 110.156 5.12707 111.069 6.04641C111.981 6.94807 112.438 8.29171 112.438 10.0773V18.7227H110.745V16.5481C110.347 17.2729 109.757 17.8387 108.977 18.2453C108.214 18.6519 107.301 18.8552 106.239 18.8552C104.778 18.8552 103.616 18.484 102.753 17.7414C101.89 16.9989 101.459 16.0177 101.459 14.7978C101.459 13.6133 101.857 12.6586 102.654 11.9337C103.467 11.2088 104.753 10.8464 106.513 10.8464H110.67V9.99779C110.67 8.79558 110.355 7.88508 109.724 7.2663C109.094 6.62983 108.172 6.3116 106.961 6.3116C106.131 6.3116 105.334 6.46188 104.571 6.76243C103.807 7.0453 103.152 7.44309 102.604 7.9558L101.807 6.55028C102.471 5.94917 103.268 5.4895 104.197 5.17127C105.127 4.83536 106.106 4.6674 107.135 4.6674ZM106.513 17.3702C107.508 17.3702 108.363 17.1315 109.077 16.6541C109.791 16.1591 110.322 15.4519 110.67 14.5326V12.2519H106.562C104.322 12.2519 103.201 13.0829 103.201 14.7448C103.201 15.558 103.492 16.2033 104.073 16.6807C104.654 17.1403 105.467 17.3702 106.513 17.3702Z" fill="black"/>
<path d="M128 4.77348L121.452 20.3934C120.921 21.7017 120.307 22.6298 119.61 23.1779C118.913 23.726 118.075 24 117.095 24C116.465 24 115.876 23.8939 115.328 23.6818C114.78 23.4696 114.307 23.1514 113.909 22.7271L114.73 21.3215C115.394 22.0287 116.191 22.3823 117.12 22.3823C117.718 22.3823 118.224 22.2055 118.639 21.8519C119.071 21.4983 119.469 20.8972 119.834 20.0486L120.407 18.6961L114.556 4.77348H116.398L121.328 16.6276L126.257 4.77348H128Z" fill="black"/>
</svg>
