<svg width="180" height="180" viewBox="0 0 180 180" fill="none" xmlns="http://www.w3.org/2000/svg">
<path d="M42.8612 94.2929H51.4406V102.873H60.014V111.446H17.1529V102.873H25.7263V85.7192H42.8792V94.2929H42.8612ZM154.298 171.432H162.859V162.859H154.298V171.432ZM51.4346 94.2929H60.008V85.7192H51.4346V94.2929ZM171.421 171.432H180V162.859H171.421V171.432ZM68.5875 180H85.7223V171.426H68.5875V180ZM145.718 180V171.426H137.139V180H145.718ZM111.437 180H120.01V162.853H111.437V180ZM42.8612 68.5777V77.1515H68.5754V68.5777H42.8612ZM34.2997 77.1454V68.5717H17.1469V85.7192H25.7203V77.1454H34.2997ZM60.008 59.998H0.0120245V0.00601243H60.008V59.998ZM51.4346 8.57973H8.57343V51.4303H51.4346V8.57973ZM17.1469 162.859H42.8551V137.143H17.1469V162.859ZM102.857 154.279V162.859H111.443V154.279H102.857ZM42.8612 17.1535H17.1529V42.8566H42.8612V17.1535ZM179.994 0.00601243V60.004H119.998V0.00601243H179.994ZM171.421 8.57973H128.571V51.4303H171.421V8.57973ZM0 119.99H60.002V179.988H0V119.99ZM8.57945 171.432H51.4406V128.57H8.57945V171.432ZM8.57945 68.5777H0V111.44H8.57945V68.5777ZM119.998 111.428V119.99H128.571V111.428H119.998ZM94.2837 145.717V137.143H85.7163V145.723H68.5815V162.877H85.7163V171.45H94.2837V154.297H102.863V145.723H94.2837V145.717ZM68.5875 34.2949H85.7223V25.7091H68.5875V34.2949ZM137.145 102.867H154.304V111.44H162.871V85.7312H154.304V68.5777H145.718V94.2929H120.022V102.873H128.595V111.446H137.169V102.873H137.145V102.867ZM145.718 128.57H137.139V119.99H128.565V137.143H102.857V145.723H120.016V162.877H128.589V171.45H137.163V154.297H171.439V145.723H145.73V128.57H145.718ZM145.718 128.57H154.304V111.428H145.718V128.57ZM77.1489 128.57V119.99H85.7103V111.428H94.2777V102.855H102.857V85.7011H128.565V68.5477H119.992V77.1214H111.419V42.8385H102.845V25.6851H111.419V0H102.845V17.1474H94.2717V0H68.5634V17.1474H77.1368V8.57372H85.6983V25.7091H94.2717V51.4243H102.845V59.998H94.2717V77.1454H85.6983V59.998H77.1368V51.4303H68.5634V68.5777H77.1368V77.1515H68.5634V102.873H77.1368V85.7192H85.6983V102.873H77.1368V111.446H68.5634V137.143H85.6983V128.57H77.1489ZM171.421 137.143V128.57H154.286V137.143H171.421ZM162.847 17.1535H137.145V42.8566H162.847V17.1535ZM94.2837 128.57H111.443V119.99H102.857V111.428H94.2777V128.57H94.2837ZM111.437 111.428V102.855H102.851V111.428H111.437ZM162.847 77.1454H180V68.5717H162.847V77.1454ZM171.421 145.717H180V137.143H171.421V145.717ZM171.421 94.2929H180V85.7192H171.421V94.2929ZM94.2837 51.4303H85.7163V60.004H94.2837V51.4303Z" fill="black"/>
</svg>
