<svg width="11" height="11" viewBox="0 0 11 11" fill="none" xmlns="http://www.w3.org/2000/svg">
    <g clip-path="url(#clip0)">
        <mask id="path-1-inside-1" fill="white">
            <path d="M8.57741 10.8652C8.75805 10.6855 8.75805 10.3939 8.57741 10.2142L3.40497 5.50026L8.57741 0.785839C8.75805 0.606119 8.75805 0.314511 8.57741 0.13479C8.39678 -0.0449302 8.1038 -0.0449302 7.92318 0.13479L2.41885 5.15135C2.32257 5.24717 2.28132 5.37462 2.28771 5.49979C2.28132 5.62539 2.32257 5.75241 2.41885 5.84823L7.92367 10.8652C8.10427 11.0449 8.39678 11.0449 8.57741 10.8652Z"/>
        </mask>
        <path d="M8.57741 10.8652C8.75805 10.6855 8.75805 10.3939 8.57741 10.2142L3.40497 5.50026L8.57741 0.785839C8.75805 0.606119 8.75805 0.314511 8.57741 0.13479C8.39678 -0.0449302 8.1038 -0.0449302 7.92318 0.13479L2.41885 5.15135C2.32257 5.24717 2.28132 5.37462 2.28771 5.49979C2.28132 5.62539 2.32257 5.75241 2.41885 5.84823L7.92367 10.8652C8.10427 11.0449 8.39678 11.0449 8.57741 10.8652Z" fill="#111C2B"/>
        <path d="M8.57741 10.2142L9.28272 9.50528L9.26719 9.48983L9.251 9.47508L8.57741 10.2142ZM3.40497 5.50026L2.73134 4.76118L1.92042 5.50029L2.73138 6.23936L3.40497 5.50026ZM8.57741 0.785839L9.25104 1.52491L9.26721 1.51017L9.28272 1.49474L8.57741 0.785839ZM7.92318 0.13479L8.59678 0.873886L8.61298 0.85912L8.62852 0.843659L7.92318 0.13479ZM2.41885 5.15135L1.74525 4.41225L1.72903 4.42704L1.71347 4.44252L2.41885 5.15135ZM2.28771 5.49979L3.28642 5.55067L3.28902 5.4997L3.28641 5.44873L2.28771 5.49979ZM2.41885 5.84823L1.71347 6.55705L1.72903 6.57254L1.74525 6.58732L2.41885 5.84823ZM7.92367 10.8652L8.62901 10.1564L8.61347 10.1409L8.59727 10.1261L7.92367 10.8652ZM9.28272 11.5741C9.85628 11.0035 9.85628 10.0759 9.28272 9.50528L7.87211 10.9231C7.65982 10.7119 7.65982 10.3675 7.87211 10.1563L9.28272 11.5741ZM9.251 9.47508L4.07856 4.76115L2.73138 6.23936L7.90382 10.9533L9.251 9.47508ZM4.07859 6.23933L9.25104 1.52491L7.90379 0.0467672L2.73134 4.76118L4.07859 6.23933ZM9.28272 1.49474C9.85628 0.92409 9.85628 -0.00346048 9.28272 -0.574113L7.87211 0.843694C7.65982 0.632482 7.65982 0.288147 7.87211 0.0769362L9.28272 1.49474ZM9.28272 -0.574113C8.71199 -1.14194 7.7886 -1.14199 7.21784 -0.574078L8.62852 0.843659C8.41901 1.05213 8.08156 1.05208 7.87211 0.843694L9.28272 -0.574113ZM7.24958 -0.604306L1.74525 4.41225L3.09245 5.89044L8.59678 0.873886L7.24958 -0.604306ZM1.71347 4.44252C1.39495 4.75949 1.26972 5.17333 1.28902 5.55084L3.28641 5.44873C3.29291 5.57591 3.25018 5.73484 3.12424 5.86017L1.71347 4.44252ZM1.28901 5.44891C1.26974 5.82711 1.39519 6.24032 1.71347 6.55705L3.12424 5.1394C3.24994 5.2645 3.29289 5.42367 3.28642 5.55067L1.28901 5.44891ZM1.74525 6.58732L7.25007 11.6043L8.59727 10.1261L3.09245 5.10913L1.74525 6.58732ZM7.21833 11.5741C7.78909 12.142 8.71202 12.1419 9.28272 11.5741L7.87211 10.1563C8.08153 9.94795 8.41945 9.94785 8.62901 10.1564L7.21833 11.5741Z" fill="black" mask="url(#path-1-inside-1)"/>
    </g>
    <defs>
        <clipPath id="clip0">
            <rect width="11" height="11" fill="white" transform="translate(11) rotate(90)"/>
        </clipPath>
    </defs>
</svg>
