<svg width="76" height="72" viewBox="0 0 76 72"  xmlns="http://www.w3.org/2000/svg">
<g id="Group 7">
<path id="Fill-1" fill-rule="evenodd" clip-rule="evenodd" d="M33.1541 27H39.1419C40.7945 27 42.1358 28.347 42.1358 30H48.1236C48.1236 25.038 44.0938 21 39.1419 21V18H33.1541V21C28.2022 21 24.1724 25.038 24.1724 30C24.1724 34.962 28.2022 39 33.1541 39H39.1419C40.7945 39 42.1358 40.347 42.1358 42C42.1358 43.653 40.7945 45 39.1419 45H33.1541C31.5014 45 30.1602 43.653 30.1602 42H24.1724C24.1724 46.962 28.2022 51 33.1541 51V54H39.1419V51C44.0938 51 48.1236 46.962 48.1236 42C48.1236 37.038 44.0938 33 39.1419 33H33.1541C31.5014 33 30.1602 31.653 30.1602 30C30.1602 28.347 31.5014 27 33.1541 27Z" />
<path id="Fill-3" fill-rule="evenodd" clip-rule="evenodd" d="M35.9639 6C46.3228 6 55.6697 11.244 61.1456 19.842L53.9273 27H72.0763V9L65.5107 15.51C58.8612 5.832 47.9604 0 35.9639 0C16.1532 0 0.0369873 16.149 0.0369873 36H6.0248C6.0248 19.458 19.4555 6 35.9639 6Z" />
<path id="Fill-5" fill-rule="evenodd" clip-rule="evenodd" d="M36.3321 66C25.9702 66 16.6232 60.756 11.1504 52.161L18.3687 45H0.219604V63L6.78524 56.49C13.4347 66.168 24.3325 72 36.3321 72C56.1428 72 72.259 55.851 72.259 36H66.2712C66.2712 52.545 52.8405 66 36.3321 66Z" />
</g>
</svg>
