<svg width="16" height="16" viewBox="0 0 16 16" fill="none" xmlns="http://www.w3.org/2000/svg">
<path fill-rule="evenodd" clip-rule="evenodd" d="M12.3647 -0.000976562V2.181H10.1827V3.63492H12.3647V5.81689H13.8194V3.63492H16.0006V2.181H13.8194V-0.000976562H12.3647Z" fill="white"/>
<path fill-rule="evenodd" clip-rule="evenodd" d="M1.45469 13.8183C1.45469 12.6153 2.43367 11.6363 3.63667 11.6363H8.72794C9.93093 11.6363 10.9099 12.6153 10.9099 13.8183V14.5456H1.45469V13.8183ZM0 13.8183V16.0002H12.3645V13.8183C12.3645 11.813 10.7331 10.1816 8.7279 10.1816H3.63662C1.63139 10.1816 0 11.813 0 13.8183Z" fill="white"/>
<path fill-rule="evenodd" clip-rule="evenodd" d="M6.18223 4.36281C7.18521 4.36281 8.00054 5.17887 8.00054 6.18113C8.00054 7.18338 7.18521 7.99944 6.18223 7.99944C5.17925 7.99944 4.36392 7.18338 4.36392 6.18113C4.36392 5.17887 5.17925 4.36281 6.18223 4.36281ZM6.18214 9.45413C7.98663 9.45413 9.4551 7.98638 9.4551 6.18116C9.4551 4.37667 7.98663 2.9082 6.18214 2.9082C4.37765 2.9082 2.90918 4.37667 2.90918 6.18116C2.90918 7.98638 4.37765 9.45413 6.18214 9.45413Z" fill="white"/>
</svg>
