<svg width="19" height="24" viewBox="0 0 19 24" fill="none" xmlns="http://www.w3.org/2000/svg">
<path d="M18.7407 4.45367C18.7365 4.38556 18.7231 4.32001 18.7006 4.25555C18.6923 4.23157 18.6861 4.20795 18.6755 4.18506C18.6392 4.10742 18.5936 4.03381 18.531 3.97083C18.5306 3.97046 18.5305 3.96991 18.5299 3.96954L14.7805 0.21991C14.7801 0.219543 14.7795 0.21936 14.779 0.218811C14.7158 0.155823 14.6418 0.110229 14.564 0.0737915C14.5422 0.0637207 14.5195 0.0578613 14.4966 0.0498047C14.4304 0.0263672 14.3628 0.0128174 14.2927 0.00860597C14.2778 0.00769041 14.2652 0 14.25 0H3.75C3.33582 0 3 0.335815 3 0.75V3.75H0.75C0.335815 3.75 0 4.08582 0 4.5V23.25C0 23.6642 0.335815 24 0.75 24H14.25C14.6642 24 15 23.6642 15 23.25C15 22.8358 14.6642 22.5 14.25 22.5H1.5V5.25H3V20.25C3 20.6642 3.33582 21 3.75 21H18C18.4142 21 18.75 20.6642 18.75 20.25V4.5C18.75 4.48352 18.7418 4.46997 18.7407 4.45367ZM15 2.56055L16.1895 3.75H15V2.56055ZM4.5 19.5V1.5H13.5V4.5C13.5 4.91418 13.8358 5.25 14.25 5.25H17.25V19.5H4.5Z" fill="#372D6C"/>
<path d="M13.875 9.75H7.125C6.71082 9.75 6.375 9.41418 6.375 9C6.375 8.58582 6.71082 8.25 7.125 8.25H13.875C14.2892 8.25 14.625 8.58582 14.625 9C14.625 9.41418 14.2892 9.75 13.875 9.75Z" fill="#372D6C"/>
<path d="M13.875 12.75H7.125C6.71082 12.75 6.375 12.4142 6.375 12C6.375 11.5858 6.71082 11.25 7.125 11.25H13.875C14.2892 11.25 14.625 11.5858 14.625 12C14.625 12.4142 14.2892 12.75 13.875 12.75Z" fill="#372D6C"/>
<path d="M13.875 15.75H7.125C6.71082 15.75 6.375 15.4142 6.375 15C6.375 14.5858 6.71082 14.25 7.125 14.25H13.875C14.2892 14.25 14.625 14.5858 14.625 15C14.625 15.4142 14.2892 15.75 13.875 15.75Z" fill="#372D6C"/>
</svg>
