<svg width="16" height="16" viewBox="0 0 16 16" fill="none" xmlns="http://www.w3.org/2000/svg">
<path fill-rule="evenodd" clip-rule="evenodd" d="M9.73919 1.39131C11.6571 1.39131 13.2174 2.95236 13.2174 4.86958V6.26088H6.26093V4.86958C6.26093 2.95236 7.82127 1.39131 9.73919 1.39131ZM4.86958 6.26087H3.47827V9.04348H4.86958V7.65217H14.6087V13.913H13.2174V15.3043H16V6.26087H14.6087V4.86957C14.6087 2.18504 12.4244 0 9.73914 0C7.05392 0 4.86958 2.18504 4.86958 4.86957V6.26087Z" fill="#372D6C"/>
<path fill-rule="evenodd" clip-rule="evenodd" d="M1.3913 11.8263C1.3913 11.443 1.70364 11.1306 2.08695 11.1306H2.7826C3.1659 11.1306 3.47825 11.443 3.47825 11.8263V13.9132C3.47825 14.2972 3.1659 14.6089 2.7826 14.6089H2.08695C1.70364 14.6089 1.3913 14.2972 1.3913 13.9132V11.8263ZM2.08696 16.0001H2.78261C3.93322 16.0001 4.86957 15.0638 4.86957 13.9132V13.2175H9.04348V14.6088H10.4348V13.2175H11.1304V15.3045H12.5217V11.8262H4.86957C4.86957 10.6756 3.93322 9.73926 2.78261 9.73926H2.08696C0.936348 9.73926 0 10.6756 0 11.8262V13.9132C0 15.0638 0.936348 16.0001 2.08696 16.0001Z" fill="#372D6C"/>
</svg>
