<svg width="40" height="40" viewBox="0 0 40 40" fill="none" xmlns="http://www.w3.org/2000/svg">
<path d="M24.2331 11.2848L24.233 9.78485L24.2315 9.78485L24.2331 11.2848ZM24.4325 11.2811L24.3962 9.78157H24.3962L24.4325 11.2811ZM24.233 11.2848V12.7848L24.2346 12.7848L24.233 11.2848ZM24.2329 8.28485V9.78485C25.0612 9.78485 25.7327 9.11352 25.7329 8.28526C25.7331 7.45699 25.062 6.7853 24.2337 6.78485L24.2329 8.28485ZM24.2325 8.28485H22.7325C22.7325 9.11295 23.4035 9.78439 24.2316 9.78485L24.2325 8.28485ZM24.2479 8.2846L24.2773 9.78433L24.2838 9.78417L24.2479 8.2846ZM24.2973 8.28342L24.3332 9.783L24.3378 9.78287L24.2973 8.28342ZM24.4608 8.279L24.4223 6.7795L24.4203 6.77955L24.4608 8.279ZM24.9782 8.27105L24.9724 6.77106H24.9724L24.9782 8.27105ZM26.5874 8.32575L26.6959 6.82969L26.5874 8.32575ZM31.1725 9.26069L31.6859 7.8513L31.1725 9.26069ZM35.8653 12.4997L37.0375 11.5638V11.5638L35.8653 12.4997ZM33.5207 14.3714L34.693 13.4355V13.4355L33.5207 14.3714ZM30.1456 12.0795L30.659 10.6701V10.6701L30.1456 12.0795ZM13.5656 4.73327L12.7115 3.50014V3.50014L13.5656 4.73327ZM13.9447 2.6461L12.7115 3.50014V3.50014L13.9447 2.6461ZM6.27109 9.78522L5.41705 8.55208C5.01248 8.83228 4.77109 9.2931 4.77109 9.78522C4.77109 10.2773 5.01248 10.7382 5.41705 11.0184L6.27109 9.78522ZM13.5656 14.8372L12.7115 16.0703L13.5656 14.8372ZM13.9447 16.9243L12.7115 16.0703V16.0703L13.9447 16.9243ZM11.8575 17.3034L12.7115 16.0703H12.7115L11.8575 17.3034ZM2.7825 11.0184L1.92847 12.2515L1.92847 12.2515L2.7825 11.0184ZM2.7825 8.55208L3.63654 9.78522L2.7825 8.55208ZM11.8575 2.267L12.7115 3.50014L12.7115 3.50014L11.8575 2.267ZM6.6733 25.5539L7.78176 24.5433H7.78175L6.6733 25.5539ZM10.623 27.9013L10.166 29.33L10.166 29.33L10.623 27.9013ZM17.2213 28.7187L17.1869 27.2191H17.1869L17.2213 28.7187ZM17.4169 28.7152V27.2152H17.4168L17.4169 28.7152ZM17.4173 30.2152C16.5888 30.2152 15.9173 30.8868 15.9173 31.7152C15.9173 32.5436 16.5888 33.2152 17.4173 33.2152V30.2152ZM17.3996 31.7155L17.3716 30.2157L17.3658 30.2158L17.3996 31.7155ZM17.3454 31.7167L17.3116 30.2171L17.3085 30.2171L17.3454 31.7167ZM17.2952 31.7179L17.2569 30.2184H17.2569L17.2952 31.7179ZM17.1673 31.7211L17.1322 30.2215L17.1322 30.2215L17.1673 31.7211ZM16.6003 31.729L16.6055 33.229H16.6055L16.6003 31.729ZM14.8173 31.6751L14.9134 30.1782L14.8173 31.6751ZM9.70899 30.7586L10.166 29.33L9.70899 30.7586ZM4.45637 27.5751L5.56484 26.5645H5.56483L4.45637 27.5751ZM28.279 22.697L29.1331 21.4639L28.279 22.697ZM26.1919 23.0761L27.425 23.9302L26.1919 23.0761ZM37.354 28.9821L36.5 30.2152L37.354 28.9821ZM37.354 31.4484L38.2081 32.6815L37.354 31.4484ZM28.279 37.7335L29.1331 38.9666L28.279 37.7335ZM26.1919 37.3544L27.425 36.5003L26.1919 37.3544ZM26.571 35.2672L27.425 36.5003V36.5003L26.571 35.2672ZM33.8654 30.2152L34.7195 31.4484C35.124 31.1682 35.3654 30.7074 35.3654 30.2152C35.3654 29.7231 35.124 29.2623 34.7195 28.9821L33.8654 30.2152ZM26.571 25.1633L27.425 23.9302L26.571 25.1633ZM24.2332 12.7848C24.3021 12.7848 24.3916 12.7826 24.4688 12.7807L24.3962 9.78157C24.3013 9.78387 24.2565 9.78484 24.233 9.78485L24.2332 12.7848ZM24.2346 12.7848L24.2347 12.7848L24.2315 9.78485H24.2314L24.2346 12.7848ZM3.63391 12.7848H24.233V9.78485H3.63391V12.7848ZM0.633911 9.78485C0.633911 11.4417 1.97706 12.7848 3.63391 12.7848V9.78485H0.633911ZM3.63391 6.78485C1.97706 6.78485 0.633911 8.12799 0.633911 9.78485H3.63391V6.78485ZM24.2329 6.78485H3.63391V9.78485H24.2329V6.78485ZM24.2316 9.78485H24.2321L24.2337 6.78485H24.2333L24.2316 9.78485ZM24.2186 6.78489C24.2158 6.78494 24.2149 6.78495 24.2157 6.78494C24.216 6.78494 24.2167 6.78493 24.2175 6.78492C24.2179 6.78492 24.2183 6.78491 24.218 6.78492C24.218 6.78492 24.2178 6.78492 24.2175 6.78492C24.2173 6.78492 24.2166 6.78493 24.2157 6.78494C24.2155 6.78494 24.2126 6.78497 24.2091 6.78503C24.2081 6.78504 24.2022 6.78513 24.1947 6.78532C24.1926 6.78538 24.1806 6.78567 24.1653 6.78635C24.1609 6.78655 24.137 6.78758 24.1066 6.79014C24.0871 6.79191 24.0292 6.79868 23.9908 6.80443C23.8813 6.82653 23.0204 7.40115 22.7325 8.28485H25.7325C25.4445 9.16854 24.5836 9.74316 24.4741 9.76526C24.4357 9.77101 24.3778 9.77779 24.3584 9.77955C24.3279 9.78212 24.304 9.78315 24.2996 9.78334C24.2843 9.78403 24.2723 9.78432 24.2702 9.78437C24.2627 9.78456 24.2568 9.78465 24.2558 9.78466C24.2523 9.78472 24.2495 9.78475 24.2493 9.78475C24.2484 9.78476 24.2478 9.78477 24.2477 9.78477C24.2475 9.78477 24.2474 9.78477 24.2474 9.78477C24.2473 9.78477 24.2473 9.78477 24.2473 9.78477C24.2472 9.78477 24.2476 9.78477 24.2479 9.78477C24.2482 9.78476 24.2486 9.78476 24.2491 9.78475C24.2511 9.78473 24.2536 9.7847 24.2565 9.78467C24.2622 9.78459 24.269 9.78448 24.2773 9.78431L24.2186 6.78489ZM24.2614 6.78385L24.2121 6.78503L24.2838 9.78417L24.3332 9.78299L24.2614 6.78385ZM24.4203 6.77955L24.2568 6.78397L24.3378 9.78287L24.5013 9.77846L24.4203 6.77955ZM24.9724 6.77106C24.7488 6.77194 24.5621 6.77591 24.4223 6.7795L24.4993 9.77851C24.6263 9.77525 24.7897 9.7718 24.9841 9.77104L24.9724 6.77106ZM26.6959 6.82969C26.01 6.77992 25.419 6.76932 24.9724 6.77106L24.9841 9.77104C25.3728 9.76952 25.8855 9.77877 26.4788 9.82182L26.6959 6.82969ZM31.6859 7.8513C29.8542 7.184 28.0492 6.92788 26.6959 6.82969L26.4788 9.82182C27.6654 9.90792 29.1744 10.1292 30.659 10.6701L31.6859 7.8513ZM37.0375 11.5638C35.5084 9.64843 33.5215 8.51998 31.6859 7.8513L30.659 10.6701C32.1439 11.211 33.604 12.0714 34.693 13.4355L37.0375 11.5638ZM39.5 19.224C39.5 16.0675 38.5983 13.5188 37.0375 11.5638L34.693 13.4355C35.7819 14.7995 36.5 16.6675 36.5 19.224H39.5ZM36.5 22.224C38.1569 22.224 39.5 20.8808 39.5 19.224H36.5V22.224ZM33.5 19.224C33.5 20.8808 34.8432 22.224 36.5 22.224V19.224H33.5ZM32.3485 15.3072C32.9663 16.081 33.5 17.2687 33.5 19.224H36.5C36.5 16.6674 35.7819 14.7995 34.693 13.4355L32.3485 15.3072ZM29.6322 13.4889C30.7653 13.9017 31.6991 14.4938 32.3485 15.3072L34.693 13.4355C33.6041 12.0715 32.144 11.211 30.659 10.6701L29.6322 13.4889ZM24.4688 12.7807C25.2698 12.7613 27.5097 12.7156 29.6322 13.4889L30.659 10.6701C27.9598 9.68676 25.2184 9.76167 24.3962 9.78157L24.4688 12.7807ZM14.4196 5.96641C15.7817 5.02307 16.1211 3.15415 15.1778 1.79207L12.7115 3.50014L14.4196 5.96641ZM7.12512 11.0184L14.4196 5.96641L12.7115 3.50014L5.41705 8.55208L7.12512 11.0184ZM14.4196 13.604L7.12512 8.55208L5.41705 11.0184L12.7115 16.0703L14.4196 13.604ZM15.1778 17.7784C16.1211 16.4163 15.7817 14.5474 14.4196 13.604L12.7115 16.0703V16.0703L15.1778 17.7784ZM11.0035 18.5366C12.3656 19.4799 14.2345 19.1405 15.1778 17.7784L12.7115 16.0703H12.7115L11.0035 18.5366ZM1.92847 12.2515L11.0035 18.5366L12.7115 16.0703L3.63654 9.78522L1.92847 12.2515ZM0.636536 9.78522C0.636536 10.7695 1.11933 11.6911 1.92847 12.2515L3.63654 9.78522L3.63654 9.78522H0.636536ZM1.92847 7.31895C1.11933 7.87934 0.636536 8.80097 0.636536 9.78522H3.63654L1.92847 7.31895ZM11.0035 1.03386L1.92847 7.31895L3.63654 9.78522L12.7115 3.50014L11.0035 1.03386ZM15.1778 1.79207C14.2345 0.429981 12.3656 0.0905223 11.0035 1.03386L12.7115 3.50014H12.7115L15.1778 1.79207ZM6.5 20.776C6.5 19.1192 5.15685 17.776 3.5 17.776V20.776H6.5ZM7.78175 24.5433C7.06783 23.7603 6.5 22.6241 6.5 20.776H3.5C3.5 23.3325 4.32121 25.2005 5.56484 26.5645L7.78175 24.5433ZM11.0799 26.4726C9.69182 26.0286 8.55448 25.3909 7.78176 24.5433L5.56483 26.5645C6.80852 27.9286 8.47493 28.7891 10.166 29.33L11.0799 26.4726ZM17.1869 27.2191C16.3357 27.2386 13.6467 27.2936 11.0799 26.4726L10.166 29.33C13.2514 30.3168 16.3832 30.2383 17.2557 30.2183L17.1869 27.2191ZM17.4168 27.2152C17.3521 27.2152 17.2645 27.2173 17.1869 27.2191L17.2557 30.2183C17.3513 30.2161 17.3956 30.2152 17.417 30.2152L17.4168 27.2152ZM17.417 27.2152H17.4169V30.2152H17.417V27.2152ZM36.3661 27.2152H17.417V30.2152H36.3661V27.2152ZM39.3661 30.2152C39.3661 28.5583 38.023 27.2152 36.3661 27.2152V30.2152H39.3661ZM36.3661 33.2152C38.023 33.2152 39.3661 31.872 39.3661 30.2152H36.3661V33.2152ZM17.4173 33.2152H36.3661V30.2152H17.4173V33.2152ZM17.4276 33.2152C17.4318 33.2151 17.4333 33.2151 17.4327 33.2151C17.4323 33.2151 17.4316 33.2151 17.431 33.2151C17.4265 33.2152 17.434 33.2151 17.4391 33.215C17.4398 33.215 17.4458 33.2149 17.4535 33.2148C17.4547 33.2147 17.469 33.2144 17.4868 33.2136C17.4921 33.2133 17.5051 33.2126 17.5126 33.2122C17.5242 33.2114 17.5555 33.2088 17.5752 33.2069C17.6167 33.2019 17.7961 33.1666 17.9308 33.1246C18.8596 32.1278 18.2197 30.4478 17.7477 30.252C17.6736 30.2372 17.5699 30.223 17.5408 30.2203C17.5255 30.2191 17.5006 30.2175 17.4911 30.217C17.4739 30.2162 17.4605 30.2158 17.4562 30.2157C17.4456 30.2154 17.4373 30.2153 17.4352 30.2153C17.4294 30.2152 17.4248 30.2152 17.4239 30.2152C17.421 30.2152 17.4187 30.2152 17.4185 30.2152C17.4179 30.2152 17.4174 30.2152 17.4173 30.2152V33.2152C17.4172 33.2152 17.4168 33.2152 17.4162 33.2152C17.416 33.2152 17.4138 33.2152 17.4109 33.2152C17.4101 33.2152 17.4055 33.2152 17.3996 33.2151C17.3975 33.2151 17.3892 33.215 17.3786 33.2147C17.3743 33.2146 17.3609 33.2142 17.3438 33.2134C17.3343 33.2129 17.3094 33.2113 17.294 33.2101C17.265 33.2074 17.1612 33.1932 17.0872 33.1784C16.6152 32.9826 15.9753 31.3026 16.904 30.3058C17.0387 30.2638 17.2181 30.2285 17.2596 30.2235C17.2793 30.2216 17.3107 30.219 17.3222 30.2182C17.3298 30.2177 17.3427 30.2171 17.348 30.2168C17.3659 30.216 17.3801 30.2157 17.3814 30.2156C17.389 30.2154 17.395 30.2154 17.3957 30.2153C17.4008 30.2153 17.4079 30.2152 17.4029 30.2153C17.4013 30.2153 17.3988 30.2153 17.3956 30.2153C17.3894 30.2154 17.3815 30.2155 17.3716 30.2157L17.4276 33.2152ZM17.3793 33.2163L17.4334 33.2151L17.3658 30.2158L17.3116 30.2171L17.3793 33.2163ZM17.3334 33.2175C17.3524 33.217 17.3687 33.2166 17.3823 33.2162L17.3085 30.2171C17.2933 30.2175 17.2756 30.218 17.2569 30.2184L17.3334 33.2175ZM17.2025 33.2207C17.2505 33.2196 17.2964 33.2184 17.3334 33.2175L17.2569 30.2184C17.2197 30.2194 17.1767 30.2205 17.1322 30.2215L17.2025 33.2207ZM16.6055 33.229C16.8488 33.2281 17.051 33.2243 17.2025 33.2207L17.1322 30.2215C16.9931 30.2248 16.812 30.2282 16.5951 30.229L16.6055 33.229ZM14.7212 33.1721C15.4734 33.2203 16.1198 33.2307 16.6055 33.229L16.5951 30.229C16.1612 30.2305 15.584 30.2213 14.9134 30.1782L14.7212 33.1721ZM9.25201 32.1873C11.2565 32.8285 13.2349 33.0766 14.7212 33.1721L14.9134 30.1782C13.5721 30.0921 11.8569 29.8708 10.166 29.33L9.25201 32.1873ZM3.34791 28.5857C5.06289 30.4668 7.2587 31.5498 9.25201 32.1873L10.166 29.33C8.47497 28.7891 6.80855 27.9287 5.56484 26.5645L3.34791 28.5857ZM0.5 20.776C0.5 24.0401 1.57403 26.6401 3.34791 28.5857L5.56483 26.5645C4.32116 25.2004 3.5 23.3324 3.5 20.776H0.5ZM3.5 17.776C1.84315 17.776 0.5 19.1192 0.5 20.776H3.5V17.776ZM29.1331 21.4639C27.771 20.5205 25.9021 20.86 24.9587 22.2221L27.425 23.9302L29.1331 21.4639ZM38.2081 27.749L29.1331 21.4639L27.425 23.9302L36.5 30.2152L38.2081 27.749ZM39.5 30.2152C39.5 29.231 39.0172 28.3094 38.2081 27.749L36.5 30.2152H39.5ZM38.2081 32.6815C39.0172 32.1211 39.5 31.1995 39.5 30.2152H36.5H36.5L38.2081 32.6815ZM29.1331 38.9666L38.2081 32.6815L36.5 30.2152L27.425 36.5003L29.1331 38.9666ZM24.9587 38.2084C25.9021 39.5705 27.771 39.9099 29.1331 38.9666L27.425 36.5003L24.9587 38.2084ZM25.7169 34.0341C24.3548 34.9774 24.0154 36.8463 24.9587 38.2084L27.425 36.5003V36.5003L25.7169 34.0341ZM33.0114 28.9821L25.7169 34.0341L27.425 36.5003L34.7195 31.4484L33.0114 28.9821ZM25.7169 26.3964L33.0114 31.4484L34.7195 28.9821L27.425 23.9302L25.7169 26.3964ZM24.9587 22.2221C24.0154 23.5842 24.3548 25.4531 25.7169 26.3964L27.425 23.9302L24.9587 22.2221Z" fill="#9996A7"/>
</svg>
