<svg width="104" height="114" viewBox="0 0 104 114" fill="none" xmlns="http://www.w3.org/2000/svg">
    <path fill-rule="evenodd" clip-rule="evenodd" d="M104 34.003C104 30.371 102.031 27.0245 98.8556 25.2609L56.8558 1.93361C53.8361 0.256408 50.1646 0.2564 47.1448 1.93359L5.14455 25.2609C1.96935 27.0245 0 30.371 0 34.0031V79.9969C0 83.629 1.96935 86.9755 5.14455 88.7391L47.1448 112.066C50.1646 113.744 53.8361 113.744 56.8558 112.066L98.8556 88.7391C102.031 86.9755 104 83.629 104 79.997V34.003Z" fill="#6DD400"/>
    <path fill-rule="evenodd" clip-rule="evenodd" d="M57.0092 48.0106C57.1638 45.5154 57.2411 42.8373 57.2411 39.9762V20.7139H46.4209V39.9762C46.4209 45.6984 46.7043 50.7884 47.2711 55.2464C47.8378 59.7044 48.5849 64.1623 49.5124 68.6203H54.1496C54.5618 66.4246 54.9483 64.2289 55.3089 62.0332C55.6696 59.8374 56.0045 57.5752 56.3137 55.2464C56.6228 52.9176 56.8547 50.5057 57.0092 48.0106ZM56.1084 89.0538C57.089 88.0109 57.5792 86.7399 57.5792 85.2408C57.5792 83.7417 57.089 82.4707 56.1084 81.4279C55.1278 80.385 53.7584 79.8636 52.0001 79.8636C50.2418 79.8636 48.8724 80.385 47.8918 81.4279C46.9112 82.4707 46.4209 83.7417 46.4209 85.2408C46.4209 86.7399 46.9112 88.0109 47.8918 89.0538C48.8724 90.0966 50.2418 90.6181 52.0001 90.6181C53.7584 90.6181 55.1278 90.0966 56.1084 89.0538Z" fill="white"/>
</svg>
