<svg width="19" height="16" viewBox="0 0 19 16"  xmlns="http://www.w3.org/2000/svg">
    <path fill-rule="evenodd" clip-rule="evenodd" d="M7.53237 2.40001H11.2939V1.60001H7.53237V2.40001ZM14.3032 4H15.4963L10.5416 9.2688L7.53237 6.0688L1.51387 12.4688V4H12.7986V3.2V2.4V0H6.02775V2.4H1.51387C0.684071 2.4 0.00924683 3.1176 0.00924683 4V14.4C0.00924683 15.2824 0.684071 16 1.51387 16H16.5601C17.3899 16 18.0647 15.2824 18.0647 14.4V8H16.5601V14.4H1.82533L7.53237 8.3312L10.5416 11.5312L16.5601 5.1312V6.4H18.0647V2.4H14.3032V4Z"/>
</svg>
