<svg width="19" height="17" viewBox="0 0 19 17"  xmlns="http://www.w3.org/2000/svg">
    <mask id="mask0" mask-type="alpha" maskUnits="userSpaceOnUse" x="0" y="0" width="19" height="17">
        <path fill-rule="evenodd" clip-rule="evenodd" d="M0.00924683 0H18.0647V17H0.00924683V0Z" />
    </mask>
    <g mask="url(#mask0)">
        <path fill-rule="evenodd" clip-rule="evenodd" d="M16.5601 11.617C16.5601 12.0178 16.2231 12.3431 15.8078 12.3431H14.3032V13.4953L13.11 12.3431H9.78931C9.37403 12.3431 9.037 12.0178 9.037 11.617H9.04V10.1649H9.037V5.8085C9.037 5.40844 9.37403 5.08244 9.78931 5.08244H15.8078C16.2231 5.08244 16.5601 5.40844 16.5601 5.8085V11.617ZM15.8078 3.63031V2.17818C15.8078 0.977279 14.7952 0 13.5509 0H7.53237V1.45212H13.5509C13.9661 1.45212 14.3032 1.77812 14.3032 2.17818V3.63031H9.78931C8.54498 3.63031 7.53237 4.60758 7.53237 5.80849V10.1649H6.87033L4.52312 12.1782V10.1649H2.26618C1.85091 10.1649 1.51387 9.83958 1.51387 9.4388V4.35637H0.00924683V9.4388C0.00924683 10.6397 1.02186 11.617 2.26618 11.617H3.0185V15.4136L7.44209 11.617H7.53237C7.53237 12.8179 8.54498 13.7952 9.78931 13.7952H12.4871L15.8078 17.0007V13.7952C17.0521 13.7952 18.0647 12.8179 18.0647 11.617V5.80849C18.0647 4.60758 17.0521 3.63031 15.8078 3.63031Z" />
    </g>
    <mask id="mask1" mask-type="alpha" maskUnits="userSpaceOnUse" x="0" y="0" width="19" height="17">
        <path fill-rule="evenodd" clip-rule="evenodd" d="M0.00924683 17H18.0647V0H0.00924683V17Z" />
    </mask>
    <g mask="url(#mask1)">
        <path fill-rule="evenodd" clip-rule="evenodd" d="M3.01849 8.71189H4.52312V7.25977H3.01849V8.71189Z" />
        <path fill-rule="evenodd" clip-rule="evenodd" d="M12.0462 11.6162H13.5509V10.1641H12.0462V11.6162Z" />
        <path fill-rule="evenodd" clip-rule="evenodd" d="M12.0462 9.43792H13.5509V5.80762H12.0462V9.43792Z" />
        <path fill-rule="evenodd" clip-rule="evenodd" d="M4.52313 5.71701C5.82012 5.39391 6.78007 4.25545 6.78007 2.90425C6.78007 1.30328 5.43042 0 3.77082 0C2.11121 0 0.761566 1.30328 0.761566 2.90425H2.26619C2.26619 2.1034 2.94102 1.45212 3.77082 1.45212C4.60062 1.45212 5.27544 2.1034 5.27544 2.90425C5.27544 3.70509 4.60062 4.35637 3.77082 4.35637H3.0185V6.53455H4.52313V5.71701Z" />
    </g>
</svg>
