<svg width="19" height="18" viewBox="0 0 19 18"  xmlns="http://www.w3.org/2000/svg">
<path fill-rule="evenodd" clip-rule="evenodd" d="M1.57929 9.63094H2.41141L2.59668 9.07272C2.85652 8.28686 3.33931 7.61315 3.95712 7.12022H5.5044V3.93243C6.84443 4.30402 7.0658 5.06059 7.07287 5.78618V6.28331H11.7846C13.9489 6.28331 15.7097 8.16049 15.7097 10.4678C15.7097 11.9525 14.9568 13.3401 13.7456 14.0891L13.3538 14.3302V16.3262H11.7846V14.6524H7.85946V16.3262H6.28942V14.7043L5.63471 14.5871C4.45561 14.3745 3.41074 13.582 2.83925 12.4655L2.72228 12.2346L1.57929 11.6245V9.63094ZM4.71938 16.0743V18H9.42951V16.3262H10.2145V18H14.9239V15.2708C16.3872 14.1812 17.2797 12.3827 17.2797 10.4678C17.2797 9.48614 17.0489 8.56136 16.6462 7.74704C17.4799 7.35956 18.0647 6.47495 18.0647 5.44639H16.4947C16.4947 5.90752 16.143 6.28329 15.7097 6.28329V6.37535C14.7119 5.28821 13.3216 4.60948 11.7846 4.60948H8.47099C8.12009 3.46459 7.14666 2.3833 4.80651 2.10378L3.93435 2V5.19531C2.79686 5.77613 1.87053 6.74778 1.33201 7.95711H0.00924683V12.6589L1.58871 13.5016C2.29366 14.7377 3.42331 15.66 4.71938 16.0743Z" />
<path fill-rule="evenodd" clip-rule="evenodd" d="M10.1834 1.5C10.1834 2.328 10.8575 3 11.688 3C12.5186 3 13.1926 2.328 13.1926 1.5C13.1926 0.672 12.5186 0 11.688 0C10.8575 0 10.1834 0.672 10.1834 1.5Z" />
</svg>
