<svg width="19" height="16" viewBox="0 0 19 16"  xmlns="http://www.w3.org/2000/svg">
<path fill-rule="evenodd" clip-rule="evenodd" d="M11.3024 14.5133H1.51501V13.7699C1.51501 12.5402 2.52838 11.5396 3.77364 11.5396H9.04378C10.289 11.5396 11.3024 12.5402 11.3024 13.7699V14.5133ZM12.8082 13.7699C12.8082 11.7202 11.1195 10.0527 9.04377 10.0527H3.77363C1.69795 10.0527 0.00924683 11.7202 0.00924683 13.7699V16.0001H12.8082V13.7699Z" />
<path fill-rule="evenodd" clip-rule="evenodd" d="M8.2909 5.96357C8.2909 6.98801 7.44692 7.82214 6.4087 7.82214C5.37049 7.82214 4.52651 6.98801 4.52651 5.96357C4.52651 4.93913 5.37049 4.10501 6.4087 4.10501C7.44692 4.10501 8.2909 4.93913 8.2909 5.96357ZM3.02075 5.96358C3.02075 7.80876 4.54081 9.30899 6.4087 9.30899C8.27659 9.30899 9.79665 7.80876 9.79665 5.96358C9.79665 4.11914 8.27659 2.61816 6.4087 2.61816C4.54081 2.61816 3.02075 4.11914 3.02075 5.96358Z" />
<mask id="mask0" mask-type="alpha" maskUnits="userSpaceOnUse" x="10" y="0" width="9" height="7">
<path fill-rule="evenodd" clip-rule="evenodd" d="M10.642 0H18.0647V6.97117H10.642V0Z" fill="white"/>
</mask>
<g mask="url(#mask0)">
<path fill-rule="evenodd" clip-rule="evenodd" d="M15.23 2.66197L14.3537 -0.000976562L13.4781 2.66197H10.642L12.936 4.30866L12.0596 6.97087L14.3537 5.32492L16.6477 6.97087L15.7713 4.30866L18.0653 2.66197H15.23Z" />
</g>
</svg>
