<svg width="221" height="220" viewBox="0 0 221 220" fill="none" xmlns="http://www.w3.org/2000/svg">
<path d="M158.5 80.4983C158.5 87.4031 152.906 93 146 93C139.098 93 133.5 87.4031 133.5 80.4983C133.5 73.5935 139.098 68 146 68C152.906 68 158.5 73.5935 158.5 80.4983Z" fill="#E02020"/>
<path d="M86.5 80.4983C86.5 87.4031 80.9023 93 74 93C67.0977 93 61.5 87.4031 61.5 80.4983C61.5 73.5935 67.0977 68 74 68C80.9023 68 86.5 73.5935 86.5 80.4983Z" fill="#E02020"/>
<path d="M67.6986 176C64.8291 176 62.5 173.669 62.5 170.79C62.5 148.299 80.5501 130 102.738 130H120.262C142.45 130 160.5 148.198 160.5 170.564C160.5 173.443 158.174 175.778 155.301 175.778C152.431 175.778 150.106 173.443 150.106 170.564C150.106 153.946 136.718 140.424 120.262 140.424H102.739C86.2829 140.424 72.898 154.044 72.898 170.789C72.8973 173.669 70.5681 176 67.6986 176Z" fill="#E02020"/>
<path fill-rule="evenodd" clip-rule="evenodd" d="M0.5 109.998C0.5 170.653 49.8457 220 110.502 220C171.154 220 220.5 170.652 220.5 109.998C220.5 49.3471 171.154 0 110.502 0C49.8457 0 0.5 49.3471 0.5 109.998ZM10.9467 109.998C10.9467 55.1056 55.6052 10.4475 110.502 10.4475C165.395 10.4475 210.053 55.1052 210.053 109.998C210.053 164.894 165.395 209.552 110.502 209.552C55.6056 209.552 10.9467 164.895 10.9467 109.998Z" fill="#E02020"/>
</svg>
