<svg width="139" height="81" viewBox="0 0 139 81" fill="none" xmlns="http://www.w3.org/2000/svg">
<path fill-rule="evenodd" clip-rule="evenodd" d="M0 53.9307V74.9846H6.11791V68.3376H13.1535V62.5017H6.11791V59.7656H13.3065V53.9307H0Z" fill="white"/>
<path fill-rule="evenodd" clip-rule="evenodd" d="M15.3536 74.9852H21.495V52.9287H15.3536V74.9852Z" fill="white"/>
<path fill-rule="evenodd" clip-rule="evenodd" d="M33.256 60.0068H39.75L34.4929 74.9617C33.7298 77.1388 32.5447 78.7127 30.9366 79.6824C29.3276 80.6511 27.2048 81.0852 24.5663 80.9856V75.7409C25.6177 75.7409 26.4207 75.6655 26.9784 75.5156C27.535 75.3668 27.9779 75.0912 28.3081 74.692L22.1233 60.0068H28.6173L31.3686 68.0087L33.256 60.0068Z" fill="white"/>
<path fill-rule="evenodd" clip-rule="evenodd" d="M48.2971 75.2904C46.1923 75.2904 44.4426 74.6136 43.045 73.2602C41.6495 71.9067 40.9512 70.2284 40.9512 68.2253C40.9512 66.2221 41.6495 64.5438 43.045 63.1904C44.4426 61.8369 46.1923 61.1602 48.2971 61.1602C49.6558 61.1602 50.8848 61.4715 51.9831 62.094C53.0824 62.7166 53.8834 63.5606 54.3862 64.625L53.241 65.2747C52.831 64.4085 52.1836 63.723 51.2998 63.2174C50.4149 62.7128 49.4144 62.4595 48.2971 62.4595C46.6202 62.4595 45.2147 63.0144 44.0785 64.1242C42.9433 65.2341 42.3747 66.6011 42.3747 68.2253C42.3747 69.8494 42.9433 71.2164 44.0785 72.3263C45.2147 73.4361 46.6202 73.991 48.2971 73.991C49.4144 73.991 50.4149 73.7387 51.2998 73.2331C52.1836 72.7284 52.8589 72.042 53.3248 71.1758L54.4979 71.8525C53.9383 72.8995 53.1053 73.7339 51.998 74.3565C50.8898 74.9791 49.6558 75.2904 48.2971 75.2904Z" fill="white"/>
<path fill-rule="evenodd" clip-rule="evenodd" d="M63.9666 61.1601C65.6236 61.1601 66.9403 61.6521 67.9189 62.6353C68.8955 63.6195 69.3853 64.9324 69.3853 66.5739V74.9925H67.9608V66.5739C67.9608 65.3113 67.6017 64.3098 66.8855 63.5692C66.1682 62.8296 65.1577 62.4594 63.8549 62.4594C62.4204 62.4594 61.2473 62.9196 60.3346 63.8399C59.4228 64.7603 58.9659 66.0963 58.9659 67.8462V74.9925H57.5703V56.0439H58.9659V64.0294C59.9724 62.1171 61.6384 61.1601 63.9666 61.1601Z" fill="white"/>
<path fill-rule="evenodd" clip-rule="evenodd" d="M75.5155 72.3127C76.6607 73.4323 78.0622 73.991 79.7202 73.991C81.3771 73.991 82.7727 73.4323 83.9089 72.3127C85.0451 71.1942 85.6127 69.832 85.6127 68.2253C85.6127 66.6195 85.0451 65.2573 83.9089 64.1378C82.7727 63.0193 81.3771 62.4595 79.7202 62.4595C78.0622 62.4595 76.6607 63.0193 75.5155 64.1378C74.3713 65.2573 73.7977 66.6195 73.7977 68.2253C73.7977 69.832 74.3713 71.1942 75.5155 72.3127ZM85.6127 61.4579H87.0382V74.9926H85.6127V71.9338C85.0162 72.9808 84.1982 73.8015 83.1547 74.3971C82.1123 74.9926 80.9302 75.2904 79.6084 75.2904C77.6143 75.2904 75.9105 74.6088 74.497 73.2466C73.0815 71.8844 72.3742 70.211 72.3742 68.2253C72.3742 66.2405 73.0815 64.567 74.497 63.2039C75.9105 61.8417 77.6143 61.1602 79.6084 61.1602C80.9302 61.1602 82.1123 61.4579 83.1547 62.0534C84.1982 62.649 85.0162 63.4707 85.6127 64.5168V61.4579Z" fill="white"/>
<path fill-rule="evenodd" clip-rule="evenodd" d="M97.7353 61.1592C99.3922 61.1592 100.709 61.6513 101.688 62.6345C102.664 63.6186 103.154 64.9315 103.154 66.573V74.9916H101.729V66.573C101.729 65.3105 101.37 64.3089 100.654 63.5684C99.9369 62.8288 98.9264 62.4585 97.6236 62.4585C96.1891 62.4585 95.016 62.9187 94.1032 63.839C93.1914 64.7594 92.7346 66.0955 92.7346 67.8453V74.9916H91.339V61.4569H92.7346V64.0285C93.7411 62.1163 95.407 61.1592 97.7353 61.1592Z" fill="white"/>
<path fill-rule="evenodd" clip-rule="evenodd" d="M109.369 72.3127C110.513 73.4323 111.915 73.991 113.573 73.991C115.229 73.991 116.63 73.4323 117.776 72.3127C118.92 71.1942 119.493 69.832 119.493 68.2253C119.493 66.6195 118.92 65.2573 117.776 64.1378C116.63 63.0193 115.229 62.4595 113.573 62.4595C111.915 62.4595 110.513 63.0193 109.369 64.1378C108.224 65.2573 107.65 66.6195 107.65 68.2253C107.65 69.832 108.224 71.1942 109.369 72.3127ZM119.493 61.4579H120.891V74.3429C120.891 76.3093 120.229 77.8619 118.907 78.9989C117.585 80.1358 115.928 80.7042 113.935 80.7042C112.334 80.7042 110.965 80.4152 109.83 79.838C108.692 79.2608 107.865 78.4662 107.344 77.4559L108.572 76.7792C109.467 78.529 111.254 79.4049 113.935 79.4049C115.666 79.4049 117.026 78.9486 118.013 78.0379C118.999 77.1262 119.493 75.8946 119.493 74.3429V71.8525C118.915 72.917 118.101 73.7571 117.049 74.37C115.998 74.9839 114.81 75.2904 113.489 75.2904C111.477 75.2904 109.768 74.6088 108.362 73.2466C106.957 71.8845 106.254 70.211 106.254 68.2253C106.254 66.2405 106.957 64.567 108.362 63.2039C109.768 61.8417 111.477 61.1602 113.489 61.1602C114.81 61.1602 115.998 61.4676 117.049 62.0805C118.101 62.6944 118.915 63.5336 119.493 64.598V61.4579Z" fill="white"/>
<mask id="mask0" mask-type="alpha" maskUnits="userSpaceOnUse" x="124" y="61" width="15" height="15">
<path fill-rule="evenodd" clip-rule="evenodd" d="M124.241 61.1602H138.375V75.2904H124.241V61.1602Z" fill="white"/>
</mask>
<g mask="url(#mask0)">
<path fill-rule="evenodd" clip-rule="evenodd" d="M131.476 62.4595C129.893 62.4595 128.571 62.9381 127.509 63.8942C126.448 64.8513 125.843 66.0868 125.694 67.6027H136.922C136.774 65.9969 136.182 64.7372 135.149 63.8265C134.115 62.9158 132.89 62.4595 131.476 62.4595ZM131.476 61.1602C133.524 61.1602 135.186 61.864 136.462 63.2716C137.737 64.6792 138.376 66.3478 138.376 68.2794C138.376 68.3519 138.371 68.4602 138.362 68.6042C138.352 68.7483 138.347 68.8575 138.347 68.9291H125.694C125.861 70.4449 126.49 71.6679 127.579 72.597C128.669 73.526 130.013 73.991 131.615 73.991C132.733 73.991 133.711 73.7658 134.549 73.3143C135.386 72.8638 136.019 72.2683 136.448 71.5277L137.676 72.2315C137.099 73.1702 136.281 73.9146 135.218 74.4647C134.157 75.0148 132.947 75.2904 131.587 75.2904C129.446 75.2904 127.686 74.6272 126.308 73.3008C124.93 71.9744 124.241 70.2825 124.241 68.2253C124.241 66.2047 124.917 64.5216 126.266 63.1768C127.616 61.833 129.353 61.1602 131.476 61.1602Z" fill="white"/>
</g>
<mask id="mask1" mask-type="alpha" maskUnits="userSpaceOnUse" x="28" y="0" width="66" height="49">
<path fill-rule="evenodd" clip-rule="evenodd" d="M28.2254 0H93.7374V48.9233H28.2254V0Z" fill="white"/>
</mask>
<g mask="url(#mask1)">
<path fill-rule="evenodd" clip-rule="evenodd" d="M36.513 7.59023C37.2602 10.5282 38.9132 13.21 41.0349 15.4133C43.1916 17.5605 46.0446 18.8907 48.9535 19.7966C49.4343 20.0151 50.1974 20.0615 50.3002 20.6802C50.3361 22.4726 50.2842 24.2707 50.3571 26.0631C50.79 29.9688 52.6953 33.6851 55.5772 36.4384C58.4322 39.2072 62.2957 40.9368 66.3039 41.3418C67.5618 41.3844 68.8227 41.3844 70.0786 41.3389C73.2488 40.9745 76.3472 39.8434 78.889 37.9543C81.5694 35.9724 83.7451 33.3022 84.9431 30.2357C86.1941 27.0763 86.4065 23.5447 85.5746 20.2606C84.6558 16.5222 82.2976 13.1926 79.1952 10.8299C76.0669 8.54443 72.0907 7.48969 68.2012 7.56896C57.6382 7.58347 47.0741 7.53803 36.513 7.59023ZM28.2254 0.191617C28.4828 0.117177 28.7342 -0.00560223 29.0095 0.000198339C42.0155 0.00213186 55.0216 0.000198339 68.0286 0.000198339C68.9514 0.112343 69.8781 0.166481 70.8098 0.164548C75.7148 0.605392 80.5519 2.29626 84.4164 5.29806C89.1418 9.01526 92.4596 14.4175 93.4352 20.251C93.8542 22.2193 93.7186 24.2389 93.7086 26.2343C93.3395 30.6311 91.7005 34.9235 89.0231 38.4947C84.6598 44.4432 77.4794 48.4089 69.9449 48.8236C68.2222 49.0431 66.4834 48.8575 64.7677 48.6893C60.3904 48.1179 56.1648 46.4541 52.6564 43.8487C48.8747 41.0451 45.8751 37.237 44.1932 32.9136C43.3343 30.6446 42.6829 28.2596 42.65 25.8321C42.6201 25.4405 42.252 25.224 41.9218 25.0751C34.5758 21.676 29.5721 14.3721 28.4489 6.64186C28.405 5.96802 28.37 5.29612 28.2513 4.63099C28.2005 3.15281 28.2493 1.6698 28.2254 0.191617Z" fill="white"/>
</g>
<path fill-rule="evenodd" clip-rule="evenodd" d="M74.3791 25.9818C74.1107 25.4627 73.7377 25.015 73.2598 24.6409C72.783 24.2677 72.2154 23.9439 71.558 23.6693C70.9006 23.3948 70.1814 23.1337 69.4033 22.8843C68.9993 22.7567 68.6452 22.6378 68.3399 22.5266C68.0357 22.4164 67.7803 22.2984 67.5748 22.1747C67.3683 22.05 67.2147 21.9137 67.1109 21.7687C67.0082 21.6227 66.9583 21.4496 66.9583 21.2495C66.9583 21.0513 67.0052 20.8821 67.1 20.7439C67.1957 20.6047 67.3234 20.4925 67.486 20.4065C67.6476 20.3214 67.8342 20.2595 68.0486 20.2199C68.2611 20.1812 68.4885 20.1609 68.731 20.1609C68.9664 20.1609 69.1978 20.1948 69.4262 20.2624C69.6527 20.3301 69.8702 20.4162 70.0757 20.5186C70.2811 20.6221 70.4747 20.7381 70.6542 20.8657C70.8348 20.9943 70.9974 21.119 71.145 21.2398L71.2438 21.3259C71.3465 21.411 71.4403 21.4815 71.5251 21.5386C71.6099 21.5956 71.7027 21.6246 71.8064 21.6246C71.9311 21.6246 72.0558 21.5637 72.1805 21.4429L73.8663 19.7017C73.9621 19.6021 74.0329 19.5132 74.0818 19.4349C74.1297 19.3566 74.1536 19.2715 74.1536 19.1787C74.1536 19.0869 74.1038 18.9757 74.005 18.8471C73.9052 18.7195 73.7706 18.5822 73.603 18.4362C73.4334 18.2902 73.2369 18.1433 73.0134 17.9935C72.788 17.8446 72.5506 17.6976 72.3012 17.5555C71.7146 17.2345 71.1101 17.0016 70.4896 16.8565C70.3031 16.8121 70.1106 16.7879 69.921 16.757V15.3126C69.921 15.1705 69.8612 15.0564 69.7405 14.9704C69.6188 14.8853 69.5031 14.8428 69.3923 14.8428H67.3204C67.1588 14.8428 67.0381 14.8892 66.9583 14.982C66.8765 15.0738 66.8356 15.185 66.8356 15.3126V16.8111C66.6062 16.8546 66.3678 16.8894 66.1523 16.9522C65.4331 17.162 64.8176 17.4598 64.3058 17.8446C63.7971 18.2284 63.404 18.6905 63.1287 19.2319C62.8524 19.7733 62.7147 20.3746 62.7147 21.0368C62.7147 21.6565 62.8255 22.2221 63.0449 22.7345C63.2654 23.2478 63.5956 23.7157 64.0365 24.1392C64.4784 24.5636 65.029 24.9483 65.6894 25.2925C66.3508 25.6386 67.1229 25.9605 68.0037 26.2593C68.2023 26.3231 68.4367 26.4043 68.71 26.5C68.9813 26.5957 69.2427 26.7117 69.4921 26.8471C69.7415 26.9824 69.953 27.1361 70.1255 27.3111C70.2981 27.4861 70.3849 27.6833 70.3849 27.9037C70.3849 28.1029 70.353 28.2924 70.2911 28.4703C70.2283 28.6481 70.1235 28.8048 69.9769 28.9401C69.8293 29.0754 69.6297 29.1837 69.3754 29.2649C69.123 29.3471 68.8088 29.3887 68.4347 29.3887C68.0297 29.3887 67.6426 29.321 67.2705 29.1857C66.9005 29.0503 66.5314 28.8618 66.1643 28.6201C65.9139 28.4558 65.6924 28.2904 65.4969 28.1232C65.3014 27.9559 65.1428 27.8225 65.0181 27.7229C64.9143 27.6369 64.8265 27.5731 64.7537 27.5306C64.6789 27.488 64.6111 27.4658 64.5442 27.4658C64.4485 27.4658 64.3238 27.5199 64.1682 27.6263L62.2628 29.3887C62.0943 29.5385 62.0095 29.6729 62.0095 29.7938C62.0095 29.9078 62.0943 30.0499 62.2628 30.222C62.2778 30.2356 62.2918 30.2501 62.3067 30.2646C62.3217 30.2781 62.3357 30.2926 62.3506 30.3071L62.3835 30.339C62.7367 30.716 63.1427 31.0689 63.6016 31.3966C64.0604 31.7244 64.5492 32.0105 65.067 32.2561C65.5847 32.5017 66.1254 32.694 66.687 32.8323C66.7359 32.8449 66.7867 32.8487 66.8356 32.8603V34.4294C66.8356 34.7426 66.9982 34.8992 67.3204 34.8992H69.3923C69.7455 34.8992 69.921 34.7426 69.921 34.4294V32.8932C70.2512 32.8342 70.5794 32.7704 70.8907 32.6728C71.6697 32.4272 72.3471 32.0792 72.9247 31.6306C73.5012 31.182 73.9541 30.6397 74.2853 30.0026C74.6155 29.3655 74.7811 28.6549 74.7811 27.8728C74.7811 27.1313 74.6474 26.501 74.3791 25.9818Z" fill="white"/>
</svg>
