<svg width="156" height="38" viewBox="0 0 156 38" fill="none" xmlns="http://www.w3.org/2000/svg">
<path fill-rule="evenodd" clip-rule="evenodd" d="M54.9072 11.1299V27.483H59.3768V22.3201H64.5168V17.7872H59.3768V15.662H64.6286V11.1299H54.9072Z" fill="white"/>
<path fill-rule="evenodd" clip-rule="evenodd" d="M66.1235 27.4829H70.6103V10.3511H66.1235V27.4829Z" fill="white"/>
<path fill-rule="evenodd" clip-rule="evenodd" d="M79.2029 15.8496H83.9472L80.1065 27.4654C79.549 29.1565 78.6832 30.379 77.5084 31.1321C76.3329 31.8845 74.7821 32.2217 72.8544 32.1444V28.0707C73.6226 28.0707 74.2092 28.0121 74.6166 27.8957C75.0233 27.7801 75.3469 27.5661 75.5881 27.2559L71.0696 15.8496H75.814L77.824 22.0649L79.2029 15.8496Z" fill="white"/>
<path fill-rule="evenodd" clip-rule="evenodd" d="M90.1905 27.7199C88.6528 27.7199 87.3745 27.1943 86.3534 26.143C85.3339 25.0917 84.8237 23.7882 84.8237 22.2323C84.8237 20.6764 85.3339 19.3728 86.3534 18.3215C87.3745 17.2703 88.6528 16.7446 90.1905 16.7446C91.1831 16.7446 92.0809 16.9864 92.8833 17.47C93.6865 17.9536 94.2717 18.6091 94.639 19.4359L93.8023 19.9405C93.5028 19.2677 93.0298 18.7353 92.3841 18.3426C91.7377 17.9506 91.0067 17.7539 90.1905 17.7539C88.9654 17.7539 87.9385 18.1849 87.1085 19.0469C86.2791 19.909 85.8637 20.9708 85.8637 22.2323C85.8637 23.4938 86.2791 24.5556 87.1085 25.4176C87.9385 26.2797 88.9654 26.7107 90.1905 26.7107C91.0067 26.7107 91.7377 26.5147 92.3841 26.122C93.0298 25.73 93.5232 25.1969 93.8636 24.5241L94.7206 25.0497C94.3118 25.8629 93.7032 26.511 92.8943 26.9946C92.0846 27.4781 91.1831 27.7199 90.1905 27.7199Z" fill="white"/>
<path fill-rule="evenodd" clip-rule="evenodd" d="M101.638 16.7448C102.849 16.7448 103.811 17.127 104.526 17.8907C105.239 18.6551 105.597 19.6749 105.597 20.9499V27.4888H104.557V20.9499C104.557 19.9692 104.294 19.1913 103.771 18.6161C103.247 18.0416 102.509 17.754 101.557 17.754C100.509 17.754 99.6518 18.1115 98.985 18.8263C98.3189 19.5412 97.9851 20.579 97.9851 21.9381V27.4888H96.9655V12.771H97.9851V18.9735C98.7204 17.4882 99.9375 16.7448 101.638 16.7448Z" fill="white"/>
<path fill-rule="evenodd" clip-rule="evenodd" d="M110.077 25.4071C110.913 26.2767 111.937 26.7107 113.148 26.7107C114.359 26.7107 115.379 26.2767 116.209 25.4071C117.039 24.5383 117.453 23.4803 117.453 22.2323C117.453 20.985 117.039 19.927 116.209 19.0574C115.379 18.1886 114.359 17.7538 113.148 17.7538C111.937 17.7538 110.913 18.1886 110.077 19.0574C109.241 19.927 108.822 20.985 108.822 22.2323C108.822 23.4803 109.241 24.5383 110.077 25.4071ZM117.452 16.9759H118.494V27.4887H117.452V25.1128C117.017 25.926 116.419 26.5635 115.657 27.0261C114.895 27.4887 114.031 27.7199 113.066 27.7199C111.609 27.7199 110.364 27.1905 109.331 26.1325C108.297 25.0745 107.781 23.7746 107.781 22.2323C107.781 20.6907 108.297 19.3908 109.331 18.3321C110.364 17.274 111.609 16.7446 113.066 16.7446C114.031 16.7446 114.895 16.9759 115.657 17.4385C116.419 17.901 117.017 18.5393 117.452 19.3518V16.9759Z" fill="white"/>
<path fill-rule="evenodd" clip-rule="evenodd" d="M126.309 16.7446C127.52 16.7446 128.482 17.1268 129.197 17.8905C129.91 18.6549 130.268 19.6747 130.268 20.9497V27.4887H129.227V20.9497C129.227 19.969 128.965 19.1911 128.442 18.6159C127.918 18.0415 127.179 17.7539 126.228 17.7539C125.18 17.7539 124.323 18.1113 123.656 18.8262C122.99 19.541 122.656 20.5788 122.656 21.9379V27.4887H121.636V16.9759H122.656V18.9733C123.391 17.488 124.608 16.7446 126.309 16.7446Z" fill="white"/>
<path fill-rule="evenodd" clip-rule="evenodd" d="M134.808 25.4071C135.644 26.2767 136.668 26.7107 137.879 26.7107C139.089 26.7107 140.113 26.2767 140.95 25.4071C141.786 24.5383 142.204 23.4803 142.204 22.2323C142.204 20.985 141.786 19.927 140.95 19.0574C140.113 18.1886 139.089 17.7538 137.879 17.7538C136.668 17.7538 135.644 18.1886 134.808 19.0574C133.971 19.927 133.552 20.985 133.552 22.2323C133.552 23.4803 133.971 24.5383 134.808 25.4071ZM142.204 16.9759H143.225V26.984C143.225 28.5114 142.742 29.7174 141.777 30.6004C140.81 31.4835 139.6 31.925 138.144 31.925C136.974 31.925 135.974 31.7005 135.145 31.2522C134.314 30.8039 133.709 30.1867 133.329 29.402L134.226 28.8763C134.879 30.2355 136.185 30.9158 138.144 30.9158C139.409 30.9158 140.402 30.5614 141.123 29.854C141.844 29.1459 142.204 28.1893 142.204 26.984V25.0497C141.782 25.8764 141.188 26.529 140.419 27.0051C139.651 27.4819 138.783 27.7199 137.818 27.7199C136.348 27.7199 135.099 27.1905 134.073 26.1325C133.046 25.0745 132.533 23.7747 132.533 22.2323C132.533 20.6907 133.046 19.3908 134.073 18.3321C135.099 17.274 136.348 16.7446 137.818 16.7446C138.783 16.7446 139.651 16.9834 140.419 17.4595C141.188 17.9363 141.782 18.5881 142.204 19.4149V16.9759Z" fill="white"/>
<path fill-rule="evenodd" clip-rule="evenodd" d="M150.959 17.7538C149.802 17.7538 148.837 18.1255 148.061 18.8682C147.286 19.6116 146.844 20.5712 146.735 21.7487H154.938C154.83 20.5014 154.397 19.523 153.642 18.8156C152.887 18.1083 151.992 17.7538 150.959 17.7538ZM150.959 16.7446C152.455 16.7446 153.669 17.2913 154.602 18.3846C155.533 19.4779 156 20.774 156 22.2743C156 22.3306 155.996 22.4148 155.99 22.5266C155.982 22.6385 155.979 22.7234 155.979 22.7789H146.735C146.857 23.9564 147.316 24.9063 148.112 25.6279C148.908 26.3495 149.89 26.7107 151.061 26.7107C151.877 26.7107 152.592 26.5357 153.204 26.1851C153.816 25.8351 154.278 25.3726 154.592 24.7974L155.489 25.3441C155.067 26.0732 154.469 26.6514 153.693 27.0787C152.918 27.5059 152.034 27.7199 151.04 27.7199C149.476 27.7199 148.19 27.2048 147.184 26.1746C146.177 25.1443 145.674 23.8302 145.674 22.2323C145.674 20.6629 146.167 19.3555 147.153 18.311C148.139 17.2673 149.408 16.7446 150.959 16.7446Z" fill="white"/>
<mask id="mask0" mask-type="alpha" maskUnits="userSpaceOnUse" x="0" y="0" width="48" height="38">
<path fill-rule="evenodd" clip-rule="evenodd" d="M0 0H47.8612V38H0V0Z" fill="white"/>
</mask>
<g mask="url(#mask0)">
<path fill-rule="evenodd" clip-rule="evenodd" d="M6.05444 5.89541C6.6003 8.17743 7.80789 10.2605 9.35802 11.9718C10.9336 13.6395 13.018 14.6728 15.1431 15.3764C15.4944 15.5461 16.0519 15.5822 16.1269 16.0627C16.1532 17.4549 16.1153 18.8516 16.1685 20.2438C16.4848 23.2775 17.8768 26.164 19.9822 28.3026C22.068 30.4532 24.8906 31.7966 27.8188 32.1112C28.7378 32.1442 29.659 32.1442 30.5765 32.1089C32.8926 31.8258 35.1562 30.9473 37.0131 29.48C38.9714 27.9406 40.5608 25.8666 41.4361 23.4847C42.35 21.0308 42.5052 18.2877 41.8974 15.7368C41.2262 12.8331 39.5034 10.2469 37.2369 8.41171C34.9514 6.63656 32.0465 5.81732 29.205 5.87889C21.4879 5.89016 13.7701 5.85486 6.05444 5.89541ZM0 0.148346C0.188026 0.0905259 0.371679 -0.00483969 0.572823 -0.000334226C10.0747 0.00116759 19.5766 -0.000334226 29.0792 -0.000334226C29.7533 0.0867713 30.4303 0.128822 31.111 0.12732C34.6944 0.469735 38.2283 1.78308 41.0516 4.11465C44.5038 7.0019 46.9278 11.198 47.6405 15.729C47.9466 17.2578 47.8475 18.8265 47.8402 20.3764C47.5706 23.7915 46.3732 27.1255 44.4171 29.8994C41.2294 34.5198 35.9836 37.6 30.4791 37.9221C29.2205 38.0926 27.9503 37.9484 26.6968 37.8177C23.4989 37.374 20.4117 36.0816 17.8486 34.0579C15.0858 31.8803 12.8944 28.9225 11.6656 25.5644C11.0381 23.802 10.5622 21.9495 10.5382 20.064C10.5163 19.7599 10.2474 19.5917 10.0062 19.476C4.63943 16.8358 0.983857 11.1627 0.163247 5.15842C0.131181 4.63503 0.105673 4.11315 0.0189484 3.59652C-0.0182196 2.44838 0.0174908 1.29649 0 0.148346Z" fill="white"/>
</g>
<path fill-rule="evenodd" clip-rule="evenodd" d="M33.7192 20.1803C33.5231 19.7771 33.2505 19.4294 32.9015 19.1388C32.5531 18.8489 32.1384 18.5974 31.6582 18.3841C31.1779 18.1709 30.6524 17.9681 30.084 17.7744C29.7888 17.6753 29.5301 17.5829 29.3071 17.4966C29.0848 17.4109 28.8983 17.3193 28.7481 17.2232C28.5973 17.1264 28.485 17.0205 28.4092 16.9078C28.3342 16.7945 28.2977 16.66 28.2977 16.5046C28.2977 16.3507 28.332 16.2193 28.4012 16.1119C28.4712 16.0037 28.5645 15.9166 28.6833 15.8498C28.8013 15.7837 28.9376 15.7357 29.0943 15.7049C29.2495 15.6748 29.4157 15.6591 29.5928 15.6591C29.7648 15.6591 29.9339 15.6854 30.1007 15.7379C30.2662 15.7905 30.4251 15.8573 30.5752 15.9369C30.7253 16.0173 30.8667 16.1074 30.9979 16.2065C31.1298 16.3064 31.2486 16.4032 31.3564 16.4971L31.4286 16.5639C31.5037 16.63 31.5722 16.6848 31.6341 16.7291C31.6961 16.7734 31.7638 16.796 31.8396 16.796C31.9307 16.796 32.0218 16.7486 32.1129 16.6548L33.3446 15.3024C33.4145 15.2251 33.4663 15.156 33.502 15.0951C33.537 15.0343 33.5545 14.9682 33.5545 14.8962C33.5545 14.8248 33.518 14.7385 33.4459 14.6386C33.373 14.5395 33.2746 14.4328 33.1522 14.3195C33.0283 14.2061 32.8847 14.0919 32.7215 13.9755C32.5567 13.8599 32.3833 13.7458 32.2011 13.6354C31.7726 13.3861 31.3309 13.2051 30.8776 13.0925C30.7413 13.0579 30.6007 13.0392 30.4622 13.0151V11.8933C30.4622 11.7829 30.4185 11.6943 30.3303 11.6274C30.2414 11.5614 30.1569 11.5283 30.076 11.5283H28.5623C28.4442 11.5283 28.356 11.5644 28.2977 11.6365C28.238 11.7078 28.2081 11.7941 28.2081 11.8933V13.0572C28.0405 13.091 27.8663 13.118 27.7089 13.1668C27.1834 13.3298 26.7338 13.561 26.3599 13.8599C25.9882 14.158 25.7011 14.5169 25.4999 14.9375C25.2981 15.358 25.1975 15.825 25.1975 16.3394C25.1975 16.8207 25.2784 17.26 25.4387 17.658C25.5998 18.0567 25.841 18.4202 26.1631 18.7491C26.486 19.0787 26.8883 19.3776 27.3707 19.6449C27.8539 19.9137 28.418 20.1638 29.0615 20.3958C29.2065 20.4454 29.3778 20.5085 29.5775 20.5828C29.7757 20.6571 29.9667 20.7472 30.1488 20.8524C30.331 20.9575 30.4855 21.0769 30.6116 21.2128C30.7377 21.3487 30.8011 21.5019 30.8011 21.6731C30.8011 21.8278 30.7778 21.975 30.7326 22.1131C30.6867 22.2513 30.6102 22.373 30.503 22.4781C30.3952 22.5832 30.2494 22.6673 30.0636 22.7304C29.8792 22.7942 29.6496 22.8265 29.3763 22.8265C29.0805 22.8265 28.7977 22.7739 28.5259 22.6688C28.2555 22.5637 27.9858 22.4173 27.7176 22.2295C27.5347 22.1019 27.3729 21.9735 27.2301 21.8436C27.0872 21.7137 26.9714 21.61 26.8803 21.5327C26.8045 21.4659 26.7403 21.4163 26.6871 21.3833C26.6325 21.3502 26.5829 21.333 26.5341 21.333C26.4641 21.333 26.373 21.375 26.2593 21.4576L24.8674 22.8265C24.7442 22.9429 24.6823 23.0473 24.6823 23.1411C24.6823 23.2298 24.7442 23.3401 24.8674 23.4738C24.8783 23.4843 24.8885 23.4956 24.8994 23.5068C24.9104 23.5174 24.9206 23.5286 24.9315 23.5399L24.9555 23.5647C25.2135 23.8575 25.5101 24.1316 25.8454 24.3862C26.1806 24.6407 26.5377 24.863 26.916 25.0537C27.2942 25.2444 27.6892 25.3939 28.0995 25.5013C28.1352 25.511 28.1724 25.514 28.2081 25.523V26.7418C28.2081 26.9851 28.3269 27.1067 28.5623 27.1067H30.076C30.334 27.1067 30.4622 26.9851 30.4622 26.7418V25.5486C30.7035 25.5028 30.9432 25.4532 31.1706 25.3774C31.7398 25.1866 32.2346 24.9163 32.6566 24.5679C33.0778 24.2195 33.4087 23.7982 33.6507 23.3033C33.8919 22.8085 34.0129 22.2566 34.0129 21.6491C34.0129 21.0731 33.9152 20.5835 33.7192 20.1803Z" fill="white"/>
</svg>
