<svg width="413" height="98" viewBox="0 0 413 98" fill="none" xmlns="http://www.w3.org/2000/svg">
    <path d="M23.1035 19.2744V86.436H29.9523C31.2308 86.436 31.87 87.0801 31.87 88.3681V94.7162C31.87 96.0043 31.2308 96.6483 29.9523 96.6483H1.91768C0.639225 96.6483 0 96.0043 0 94.7162V88.3681C0 87.0801 0.639225 86.436 1.91768 86.436H8.76653V19.2744H1.91768C0.639225 19.2744 0 18.6304 0 17.3424V10.7182C0 9.43021 0.639225 8.78619 1.91768 8.78619H29.9523C31.2308 8.78619 31.87 9.43021 31.87 10.7182V17.3424C31.87 18.6304 31.2308 19.2744 29.9523 19.2744H23.1035Z" fill="white"/>
    <path d="M40.007 41.3246V34.4091C40.007 33.1182 40.6475 32.4728 41.9284 32.4728H59.4038C60.5018 32.4728 61.2337 33.1182 61.4167 34.4091L62.6062 41.97C67.3639 34.6857 74.226 31.0897 83.1924 31.0897C96.4591 31.0897 103.138 38.4662 103.138 53.127V86.4134H110.641C111.922 86.4134 112.562 87.0588 112.562 88.3497V94.712C112.562 96.0029 111.922 96.6483 110.641 96.6483H82.552C81.271 96.6483 80.6306 96.0029 80.6306 94.712V88.3497C80.6306 87.0588 81.271 86.4134 82.552 86.4134H88.6821V59.5814C88.6821 54.1412 87.9501 50.1764 86.6692 47.6868C85.2968 45.1972 82.4605 43.9063 78.1602 43.9063C73.86 43.9063 70.2917 45.1972 67.4554 47.779C64.619 50.3608 63.2466 53.3114 63.2466 56.6308V86.4134H71.2066C72.4876 86.4134 73.128 87.0588 73.128 88.3497V94.712C73.128 96.0029 72.4876 96.6483 71.2066 96.6483H42.0199C40.739 96.6483 40.0985 96.0029 40.0985 94.712V88.3497C40.0985 87.0588 40.739 86.4134 42.0199 86.4134H48.882V43.0765H41.9284C40.6475 43.1687 40.007 42.5232 40.007 41.3246Z" fill="white"/>
    <path d="M135.602 34.2838L150.36 82.1856L163.76 43.0351H157.241C155.973 43.0351 155.339 42.3902 155.339 41.1006V34.3759C155.339 33.0862 155.973 32.4414 157.241 32.4414H175.801C176.797 32.4414 177.522 32.7177 177.793 33.3626C178.155 34.0074 178.336 34.468 178.336 35.0207C178.336 35.4813 178.246 35.9419 178.065 36.4025L156.335 94.8059C155.973 96.0035 155.158 96.6483 153.8 96.6483H142.845C141.668 96.6483 140.853 96.0035 140.31 94.8059L122.836 43.1272H116.498C115.23 43.1272 114.596 42.4823 114.596 41.1927V34.468C114.596 33.1783 115.23 32.5335 116.498 32.5335H133.157C134.425 32.4414 135.24 33.0862 135.602 34.2838Z" fill="white"/>
    <path d="M185.117 65.5086C185.117 59.0837 186.129 53.4849 188.059 48.7121C190.082 43.9394 192.657 40.4516 195.783 37.9734C201.943 33.3843 208.563 31.0897 215.735 31.0897C220.975 31.0897 225.389 31.9157 229.066 33.5678C232.652 35.2199 235.502 37.0556 237.525 39.2584C239.548 41.3694 241.295 44.4901 242.674 48.5286C244.053 52.5671 244.789 57.3398 244.789 62.7551C244.789 74.3198 241.847 83.0393 236.054 89.0052C230.262 94.9712 222.814 98 213.712 98C204.701 98 197.622 95.2465 192.565 89.8313C187.6 84.3242 185.117 76.2473 185.117 65.5086ZM214.815 87.4449C219.964 87.4449 223.734 85.5174 226.124 81.6625C228.515 77.8076 229.71 72.117 229.71 64.5907C229.71 57.0645 228.515 51.2821 226.124 47.519C223.734 43.664 219.872 41.7366 214.539 41.7366C204.609 41.7366 199.644 48.7121 199.644 62.6633C199.736 79.1844 204.793 87.4449 214.815 87.4449Z" fill="white"/>
    <path d="M275.384 1.85294V86.4126H283.548C284.832 86.4126 285.474 87.0581 285.474 88.3491V94.7118C285.474 96.0028 284.832 96.6483 283.548 96.6483H252.818C251.534 96.6483 250.892 96.0028 250.892 94.7118V88.3491C250.892 87.0581 251.534 86.4126 252.818 86.4126H260.982V10.6132H254.01C252.726 10.6132 252.084 9.96771 252.084 8.67672V1.94515C252.084 0.65416 252.726 0.00866765 254.01 0.00866765H273.457C274.741 -0.0835457 275.384 0.561948 275.384 1.85294Z" fill="white"/>
    <path d="M308.059 34.2838L322.974 82.1856L336.516 43.0351H329.928C328.647 43.0351 328.006 42.3902 328.006 41.1006V34.3759C328.006 33.0862 328.647 32.4414 329.928 32.4414H348.686C349.693 32.4414 350.425 32.7177 350.699 33.3626C351.065 34.0074 351.248 34.468 351.248 35.0207C351.248 35.4813 351.157 35.9419 350.974 36.4025L329.013 94.8059C328.647 96.0035 327.823 96.6483 326.451 96.6483H315.379C314.189 96.6483 313.366 96.0035 312.817 94.8059L295.157 43.1272H288.752C287.471 43.1272 286.83 42.4823 286.83 41.1927V34.468C286.83 33.1783 287.471 32.5335 288.752 32.5335H305.588C306.869 32.4414 307.693 33.0862 308.059 34.2838Z" fill="white"/>
    <path d="M387.428 98C377.234 98 369.861 94.967 365.129 88.9929C360.396 83.0187 358.029 75.1145 358.029 65.1882C358.029 55.3539 360.578 47.1739 365.584 40.7402C370.59 34.3065 377.871 31.0897 387.337 31.0897C392.07 31.0897 396.075 32.0088 399.442 33.755C402.81 35.5013 405.358 37.891 407.179 40.924C410.546 46.8062 412.276 53.5157 412.276 61.2361C412.276 64.8206 412.094 66.8426 411.73 67.2102C411.366 67.5779 410.729 67.7617 409.818 67.7617H372.228C372.683 73.9196 374.139 78.7909 376.779 82.1915C379.418 85.5922 383.878 87.3385 390.249 87.3385C394.982 87.3385 399.806 86.2356 404.721 83.9378C405.905 83.2945 406.724 83.6621 407.27 84.9488L409.727 90.923C410.182 91.934 409.727 92.8531 408.544 93.4964C402.901 96.4376 395.893 98 387.428 98ZM372.228 58.1112H398.805C398.987 47.3577 394.8 41.935 386.245 41.935C381.239 41.935 377.689 43.5894 375.596 46.8062C373.502 50.0231 372.41 53.7914 372.228 58.1112Z" fill="white"/>
</svg>