<svg width="35" height="32" viewBox="0 0 35 32" fill="none" xmlns="http://www.w3.org/2000/svg">
<path d="M3.22907 16.6941H16.7769C17.2532 18.5056 19.0225 19.8541 21.132 19.8541C23.2415 19.8541 25.0046 18.5056 25.4871 16.6941H31.4135C32.0012 16.6941 32.4775 16.2541 32.4775 15.7113C32.4775 15.1684 32.0012 14.7341 31.4135 14.7341H25.4871C25.0108 12.9227 23.2415 11.5741 21.132 11.5741C19.0225 11.5741 17.2594 12.9227 16.7769 14.7341H3.22907C2.64138 14.7341 2.16504 15.1741 2.16504 15.7113C2.17123 16.2599 2.64756 16.6941 3.22907 16.6941Z" fill="#7FC5E8"/>
<path d="M9.73079 26.197H3.22907C2.64756 26.197 2.17123 25.757 2.16504 25.2199C2.16504 24.677 2.64138 24.237 3.22907 24.237H9.73079C10.2133 22.4256 11.9764 21.077 14.0859 21.077C16.1954 21.077 17.9647 22.4256 18.441 24.237H31.4135C32.0012 24.237 32.4793 24.6771 32.4775 25.2199C32.4758 25.7611 32.0012 26.197 31.4135 26.197H18.441C17.9585 28.0085 16.1954 29.357 14.0859 29.357C11.9764 29.357 10.2071 28.0085 9.73079 26.197Z" fill="#7FC5E8"/>
<path d="M9.73079 7.19716H3.22907C2.64756 7.19716 2.17123 6.75716 2.16504 6.21431C2.16504 5.67716 2.64138 5.23716 3.22907 5.23716H9.73079C10.2133 3.42574 11.9764 2.07716 14.0859 2.07716C16.1954 2.07716 17.9647 3.42574 18.441 5.23716H31.4135C32.0012 5.23716 32.4775 5.67145 32.4775 6.21431C32.4775 6.75716 32.0012 7.19716 31.4135 7.19716H18.441C17.9585 9.00859 16.1954 10.3572 14.0859 10.3572C11.9764 10.3572 10.2071 9.00859 9.73079 7.19716Z" fill="#7FC5E8"/>
</svg>
