<svg width="62" height="62" viewBox="0 0 62 62" fill="none" xmlns="http://www.w3.org/2000/svg">
<path fill-rule="evenodd" clip-rule="evenodd" d="M24.2347 30.631C24.2347 27.0934 27.1129 24.199 30.6307 24.199C34.1486 24.199 37.0268 27.0934 37.0268 30.631C37.0268 34.1686 34.1486 37.063 30.6307 37.063C27.1129 37.063 24.2347 34.1686 24.2347 30.631ZM47.2604 32.8179C47.3564 32.1103 47.4203 31.3707 47.4203 30.631C47.4203 29.8913 47.3564 29.1516 47.2604 28.412L51.9935 24.6814C52.4092 24.3277 52.5371 23.7166 52.2493 23.2342L47.7721 15.4515C47.4843 14.9691 46.9086 14.7762 46.397 14.9691L40.8324 17.2203C39.6811 16.3198 38.4339 15.5802 37.0588 15.0013L36.2273 9.05172C36.1313 8.53716 35.6516 8.11908 35.108 8.11908H26.1535C25.6099 8.11908 25.1302 8.53716 25.0342 9.08388L24.2027 15.0335C22.8596 15.6123 21.5804 16.352 20.4291 17.2525L14.8645 15.0013C14.3528 14.8083 13.7772 15.0013 13.4894 15.4837L9.01216 23.2664C8.72434 23.7488 8.85226 24.3598 9.268 24.7136L14.0011 28.4441C13.9051 29.1516 13.8412 29.8913 13.8412 30.631C13.8412 31.3707 13.9051 32.1103 14.0011 32.85L9.268 36.5806C8.85226 36.9343 8.72434 37.5454 9.01216 38.0278L13.4894 45.8104C13.7772 46.2928 14.3528 46.4858 14.8645 46.2928L20.4291 44.0416C21.5804 44.9421 22.8276 45.6818 24.2027 46.2607L25.0342 52.2102C25.1302 52.7248 25.6099 53.1429 26.1535 53.1429H35.108C35.6516 53.1429 36.1313 52.7248 36.2273 52.1781L37.0588 46.2285C38.4019 45.6496 39.6811 44.91 40.8324 44.0095L46.397 46.2607C46.9086 46.4536 47.4843 46.2607 47.7721 45.7783L52.2493 37.9956C52.5371 37.5132 52.4092 36.9022 51.9935 36.5484L47.2604 32.8179Z" fill="#8AD8FF"/>
</svg>
