<svg width="62" height="62" viewBox="0 0 62 62" fill="none" xmlns="http://www.w3.org/2000/svg">
<path d="M7.75 12.9167H12.9167V7.75C10.075 7.75 7.75 10.075 7.75 12.9167ZM7.75 33.5833H12.9167V28.4167H7.75V33.5833ZM18.0833 54.25H23.25V49.0833H18.0833V54.25ZM7.75 23.25H12.9167V18.0833H7.75V23.25ZM33.5833 7.75H28.4167V12.9167H33.5833V7.75ZM49.0833 7.75V12.9167H54.25C54.25 10.075 51.925 7.75 49.0833 7.75ZM12.9167 54.25V49.0833H7.75C7.75 51.925 10.075 54.25 12.9167 54.25ZM7.75 43.9167H12.9167V38.75H7.75V43.9167ZM23.25 7.75H18.0833V12.9167H23.25V7.75ZM28.4167 54.25H33.5833V49.0833H28.4167V54.25ZM49.0833 33.5833H54.25V28.4167H49.0833V33.5833ZM49.0833 54.25C51.925 54.25 54.25 51.925 54.25 49.0833H49.0833V54.25ZM49.0833 23.25H54.25V18.0833H49.0833V23.25ZM49.0833 43.9167H54.25V38.75H49.0833V43.9167ZM38.75 54.25H43.9167V49.0833H38.75V54.25ZM38.75 12.9167H43.9167V7.75H38.75V12.9167ZM18.0833 43.9167H43.9167V18.0833H18.0833V43.9167ZM23.25 23.25H38.75V38.75H23.25V23.25Z" fill="#8AD8FF"/>
</svg>
