<svg width="96" height="96" viewBox="0 0 96 96" fill="none" xmlns="http://www.w3.org/2000/svg">
    <path d="M46.2726 14C47.0403 12.6667 48.9597 12.6667 49.7274 14L87.7298 80C88.4975 81.3333 87.5379 83 86.0024 83H9.99759C8.46214 83 7.50248 81.3333 8.2702 80L46.2726 14Z" fill="#F8A403"/>
    <path d="M44.153 41.1425C44.0703 39.9848 44.9873 39 46.148 39H49.852C51.0127 39 51.9297 39.9848 51.847 41.1425L50.1327 65.1425C50.0579 66.1891 49.187 67 48.1378 67H47.8622C46.813 67 45.9421 66.1891 45.8673 65.1425L44.153 41.1425Z" fill="white"/>
    <rect x="46" y="71" width="4" height="4" rx="2" fill="white"/>
</svg>
