<svg width="103" height="41" viewBox="0 0 103 41" fill="none" xmlns="http://www.w3.org/2000/svg">
<path d="M11.9689 13.2111V27.9004H13.4575C13.7354 27.9004 13.8744 28.0412 13.8744 28.3229V29.7114C13.8744 29.9931 13.7354 30.1339 13.4575 30.1339H7.36391C7.08602 30.1339 6.94708 29.9931 6.94708 29.7114V28.3229C6.94708 28.0412 7.08602 27.9004 7.36391 27.9004H8.85258V13.2111H7.36391C7.08602 13.2111 6.94708 13.0702 6.94708 12.7885V11.3397C6.94708 11.058 7.08602 10.9171 7.36391 10.9171H13.4575C13.7354 10.9171 13.8744 11.058 13.8744 11.3397V12.7885C13.8744 13.0702 13.7354 13.2111 13.4575 13.2111H11.9689Z" fill="white"/>
<path d="M15.6807 18.0606V16.5514C15.6807 16.2697 15.8196 16.1288 16.0975 16.1288H19.8886C20.1268 16.1288 20.2856 16.2697 20.3253 16.5514L20.5834 18.2014C21.6155 16.6118 23.1042 15.827 25.0494 15.827C27.9275 15.827 29.3764 17.4368 29.3764 20.6362V27.9004H31.0041C31.2819 27.9004 31.4209 28.0412 31.4209 28.323V29.7114C31.4209 29.9931 31.2819 30.134 31.0041 30.134H24.9104C24.6325 30.134 24.4936 29.9931 24.4936 29.7114V28.323C24.4936 28.0412 24.6325 27.9004 24.9104 27.9004H26.2403V22.0448C26.2403 20.8576 26.0815 19.9923 25.8036 19.449C25.5059 18.9057 24.8906 18.624 23.9577 18.624C23.0248 18.624 22.2507 18.9057 21.6353 19.4691C21.02 20.0326 20.7223 20.6765 20.7223 21.4009V27.9004H22.4492C22.727 27.9004 22.866 28.0412 22.866 28.323V29.7114C22.866 29.9931 22.727 30.134 22.4492 30.134H16.1173C15.8395 30.134 15.7005 29.9931 15.7005 29.7114V28.323C15.7005 28.0412 15.8395 27.9004 16.1173 27.9004H17.606V18.4429H16.0975C15.8196 18.463 15.6807 18.3222 15.6807 18.0606Z" fill="white"/>
<path d="M36.4426 16.5313L39.678 26.9949L42.6156 18.4429H41.1865C40.9086 18.4429 40.7697 18.302 40.7697 18.0203V16.5514C40.7697 16.2697 40.9086 16.1288 41.1865 16.1288H45.2555C45.4739 16.1288 45.6327 16.1892 45.6922 16.33C45.7716 16.4709 45.8113 16.5715 45.8113 16.6922C45.8113 16.7929 45.7915 16.8935 45.7518 16.9941L40.988 29.7516C40.9086 30.0132 40.73 30.1541 40.4322 30.1541H38.0305C37.7725 30.1541 37.5938 30.0132 37.4747 29.7516L33.6439 18.463H32.2545C31.9766 18.463 31.8376 18.3221 31.8376 18.0404V16.5715C31.8376 16.2898 31.9766 16.1489 32.2545 16.1489H35.9067C36.1846 16.1288 36.3632 16.2697 36.4426 16.5313Z" fill="white"/>
<path d="M47.3 23.3527C47.3 21.9441 47.5184 20.7167 47.9352 19.6703C48.3719 18.6239 48.9277 17.8593 49.6025 17.316C50.9324 16.3099 52.3615 15.8068 53.9097 15.8068C55.0411 15.8068 55.9939 15.9879 56.7878 16.3501C57.562 16.7123 58.1773 17.1148 58.6139 17.5977C59.0506 18.0605 59.4278 18.7447 59.7255 19.6301C60.0232 20.5154 60.182 21.5618 60.182 22.749C60.182 25.2844 59.5469 27.1961 58.2964 28.504C57.0459 29.812 55.4381 30.476 53.4731 30.476C51.5279 30.476 49.9995 29.8723 48.9078 28.6851C47.836 27.4778 47.3 25.707 47.3 23.3527ZM53.7113 28.1619C54.8228 28.1619 55.6366 27.7394 56.1527 26.8942C56.6688 26.0491 56.9268 24.8015 56.9268 23.1515C56.9268 21.5014 56.6688 20.2337 56.1527 19.4087C55.6366 18.5636 54.8029 18.141 53.6517 18.141C51.508 18.141 50.4362 19.6703 50.4362 22.7289C50.456 26.3509 51.5477 28.1619 53.7113 28.1619Z" fill="white"/>
<path d="M66.9108 9.44819V27.9004H68.6773C68.9552 27.9004 69.0942 28.0412 69.0942 28.3229V29.7114C69.0942 29.9931 68.9552 30.1339 68.6773 30.1339H62.0279C61.75 30.1339 61.6111 29.9931 61.6111 29.7114V28.3229C61.6111 28.0412 61.75 27.9004 62.0279 27.9004H63.7945V11.3598H62.2859C62.0081 11.3598 61.8691 11.219 61.8691 10.9372V9.46831C61.8691 9.1866 62.0081 9.04575 62.2859 9.04575H66.4939C66.7718 9.02562 66.9108 9.16648 66.9108 9.44819Z" fill="white"/>
<path d="M73.977 16.5313L77.2123 26.9949L80.15 18.4429H78.7209C78.443 18.4429 78.304 18.302 78.304 18.0203V16.5514C78.304 16.2697 78.443 16.1288 78.7209 16.1288H82.7899C83.0082 16.1288 83.167 16.1892 83.2266 16.33C83.306 16.4709 83.3457 16.5715 83.3457 16.6922C83.3457 16.7929 83.3258 16.8935 83.2861 16.9941L78.5224 29.7516C78.443 30.0132 78.2643 30.1541 77.9666 30.1541H75.5649C75.3069 30.1541 75.1282 30.0132 75.0091 29.7516L71.1783 18.463H69.7888C69.511 18.463 69.372 18.3221 69.372 18.0404V16.5715C69.372 16.2898 69.511 16.1489 69.7888 16.1489H73.441C73.7189 16.1288 73.8976 16.2697 73.977 16.5313Z" fill="white"/>
<path d="M91.2456 30.476C89.0225 30.476 87.4148 29.812 86.3826 28.5041C85.3505 27.1961 84.8344 25.4656 84.8344 23.2924C84.8344 21.1393 85.3902 19.3484 86.4819 17.9398C87.5736 16.5313 89.1615 15.827 91.2258 15.827C92.2579 15.827 93.1313 16.0282 93.8657 16.4105C94.6001 16.7929 95.1559 17.316 95.5528 17.9801C96.2873 19.2679 96.6644 20.7368 96.6644 22.4271C96.6644 23.2119 96.6247 23.6546 96.5453 23.7351C96.4659 23.8156 96.327 23.8558 96.1285 23.8558H87.9308C88.0301 25.204 88.3477 26.2705 88.9233 27.015C89.4989 27.7595 90.4715 28.1418 91.8609 28.1418C92.8931 28.1418 93.9451 27.9004 95.0169 27.3973C95.275 27.2565 95.4536 27.337 95.5727 27.6187L96.1086 28.9266C96.2079 29.148 96.1086 29.3492 95.8506 29.49C94.6199 30.134 93.0916 30.476 91.2456 30.476ZM87.9308 21.743H93.7267C93.7664 19.3886 92.8534 18.2014 90.9876 18.2014C89.8959 18.2014 89.1218 18.5636 88.6653 19.2679C88.2087 19.9722 87.9705 20.7972 87.9308 21.743Z" fill="white"/>
</svg>
