<svg width="32" height="32" viewBox="0 0 32 32" fill="none" xmlns="http://www.w3.org/2000/svg">
    <circle cx="16" cy="16" r="16" fill="#363636"/>
    <path d="M16.1009 7.32568C12.7925 7.32568 10.1009 10.1417 10.1009 13.6031C10.1009 17.8988 15.4703 24.2052 15.6989 24.4715C15.9136 24.7217 16.2885 24.7213 16.5029 24.4715C16.7315 24.2052 22.1009 17.8988 22.1009 13.6031C22.1008 10.1417 19.4093 7.32568 16.1009 7.32568ZM16.1009 16.7615C14.4363 16.7615 13.0822 15.3447 13.0822 13.6031C13.0822 11.8616 14.4364 10.4448 16.1009 10.4448C17.7654 10.4448 19.1196 11.8616 19.1196 13.6032C19.1196 15.3447 17.7654 16.7615 16.1009 16.7615Z" fill="white"/>
</svg>