<svg width="56" height="62" viewBox="0 0 56 62" fill="none" xmlns="http://www.w3.org/2000/svg">
    <path d="M55.563 13.5929C51.7281 11.0678 48.8053 7.43867 47.1107 3.09794C47.003 2.82209 46.7748 2.61005 46.4908 2.52262C41.1447 0.872238 34.7507 0 28 0C21.2494 0 14.8554 0.872238 9.50933 2.5225C9.22538 2.61018 8.99722 2.82197 8.8894 3.09782C7.19491 7.43867 4.2721 11.0677 0.437133 13.5929C0.137376 13.7903 -0.0289121 14.136 0.0041511 14.4924C0.517603 20.0072 2.46967 38.5725 6.03235 45.9192C8.28369 50.5615 16.7381 58.8712 27.7352 61.9636C27.822 61.9879 27.9109 62 28 62C28.0891 62 28.1781 61.9879 28.2648 61.9636C39.262 58.8712 47.7164 50.5615 49.9676 45.9192C53.5303 38.5725 55.4824 20.0074 55.9958 14.4924C56.029 14.1359 55.8626 13.7903 55.563 13.5929ZM48.2126 45.0745C47.3629 46.8266 45.1051 49.8026 41.3161 52.901C38.4887 55.2131 33.8982 58.308 27.9999 60.0194C22.1017 58.3081 17.511 55.2132 14.6837 52.901C10.8947 49.8026 8.63693 46.8266 7.78725 45.0745C4.42635 38.1439 2.4738 19.814 1.99876 14.8831C5.80431 12.2427 8.73928 8.58155 10.5286 4.24288C15.6001 2.73672 21.6289 1.9415 28 1.9415C34.3712 1.9415 40.4 2.73672 45.4714 4.243C47.2607 8.58167 50.1957 12.2427 54.0012 14.8833C53.5262 19.814 51.5736 38.1439 48.2126 45.0745Z" fill="#ECECEC"/>
    <path d="M49.1149 16.4942C47.8274 15.375 46.6359 14.1308 45.573 12.7966C45.2385 12.3766 44.6256 12.3063 44.204 12.6396C43.7823 12.9728 43.7118 13.5834 44.0463 14.0035C45.0766 15.2972 46.2205 16.5117 47.4512 17.6193C45.914 31.6496 43.9412 39.6 42.5969 42.3721C41.6215 44.3835 36.416 50.0825 28.9745 53.1057V21.681C28.9745 21.1448 28.5382 20.7102 28 20.7102C27.4617 20.7102 27.0254 21.1447 27.0254 21.681V53.1055C19.5838 50.0822 14.3783 44.3831 13.403 42.372C13.2207 41.996 13.0333 41.5438 12.8456 41.0281C12.6623 40.5238 12.1037 40.2632 11.5976 40.4457C11.0915 40.6283 10.8298 41.1849 11.0131 41.689C11.2232 42.2671 11.4369 42.7809 11.648 43.2165C12.9498 45.9009 19.1779 52.4516 27.6764 55.4305C27.7812 55.467 27.8903 55.4855 27.9997 55.4855C28.1091 55.4855 28.2185 55.467 28.3231 55.4305C36.8215 52.4517 43.0498 45.9008 44.3515 43.2165C46.5339 38.7158 48.4125 26.8929 49.4428 17.3292C49.4771 17.0142 49.3546 16.7025 49.1149 16.4942Z" fill="#ECECEC"/>
    <path d="M43.4837 9.79291C43.1763 9.28371 42.8806 8.75731 42.6048 8.22813C42.4742 7.97771 42.2407 7.79619 41.965 7.73104C37.7656 6.73783 32.9367 6.21289 28.0001 6.21289C23.0637 6.21289 18.2345 6.73783 14.035 7.73104C13.7594 7.79619 13.5259 7.97759 13.3954 8.22813C11.7464 11.3913 9.55593 14.1725 6.88522 16.4944C6.64564 16.7026 6.52311 17.0145 6.55702 17.3293C7.40171 25.1712 8.57461 32.5013 9.77473 37.4399C9.88267 37.8842 10.2816 38.1825 10.7212 38.1825C10.797 38.1825 10.8742 38.1736 10.9513 38.155C11.4742 38.0288 11.7956 37.5041 11.6691 36.9829C10.5132 32.2265 9.3804 25.1923 8.54896 17.619C11.1207 15.3061 13.2589 12.5856 14.9139 9.52081C18.5889 8.68926 22.7477 8.22365 27.0257 8.16202V11.3252C27.0257 11.8613 27.462 12.296 28.0002 12.296C28.5385 12.296 28.9747 11.8614 28.9747 11.3252V8.16202C33.2528 8.22365 37.4117 8.68938 41.0865 9.52081C41.3191 9.95118 41.5629 10.3778 41.8139 10.7935C42.0912 11.2529 42.6901 11.4014 43.1512 11.1249C43.6121 10.8487 43.7611 10.2522 43.4837 9.79291Z" fill="#ECECEC"/>
    <path d="M28 14.4966C27.4619 14.4966 27.0255 14.9311 27.0255 15.4674V17.5392C27.0255 18.0753 27.4618 18.51 28 18.51C28.5383 18.51 28.9746 18.0754 28.9746 17.5392V15.4674C28.9746 14.9311 28.5382 14.4966 28 14.4966Z" fill="#ECECEC"/>
</svg>