<svg width="56" height="56" viewBox="0 0 56 56" fill="none" xmlns="http://www.w3.org/2000/svg">
    <path d="M53.6421 31.3185V13.1682C53.6421 10.7304 51.6589 8.74715 49.221 8.74715H45.3393L43.6373 4.05639C43.2743 3.05593 42.4881 2.28812 41.4804 1.94993C40.4739 1.61218 39.3858 1.74989 38.4952 2.32771L34.515 4.90864L34.2058 4.05639C33.8428 3.05593 33.0566 2.28812 32.0488 1.94993C31.0424 1.61218 29.9544 1.74989 29.0637 2.32771L26.9784 3.67981C26.5687 3.94548 26.4519 4.49301 26.7177 4.90273C26.9836 5.31256 27.5309 5.42915 27.9407 5.16348L30.026 3.81139C30.4616 3.52865 30.9938 3.46128 31.4864 3.62643C31.9802 3.79203 32.3655 4.16861 32.5437 4.65959L32.9923 5.89618L19.4859 14.6547H13.3044L24.9442 7.10675C25.3539 6.84096 25.4706 6.29354 25.2049 5.88382C24.939 5.474 24.3917 5.35729 23.9819 5.62307L19.1532 8.75459C19.1162 8.74978 19.0784 8.74737 19.04 8.74737H6.77895C3.04095 8.74726 0 11.7881 0 15.526V48.6316C0 51.7195 2.51223 54.2316 5.6 54.2316H48.0421C51.1299 54.2316 53.6421 51.7195 53.6421 48.6317V45.0359C53.6421 44.5476 53.2464 44.1517 52.7579 44.1517C52.2694 44.1517 51.8737 44.5477 51.8737 45.0359V48.6317C51.8737 50.7444 50.1549 52.4634 48.0421 52.4634H10.021V26.1726C10.021 25.6842 9.62522 25.2884 9.13686 25.2884C8.6485 25.2884 8.25267 25.6843 8.25267 26.1726V52.4632H5.6C3.4872 52.4632 1.76837 50.7444 1.76837 48.6316V20.1132C3.00912 21.475 4.79588 22.3307 6.77884 22.3307H49.2209C50.2154 22.3307 51.1342 22.0006 51.8736 21.4444V31.1959H35.0736C31.9858 31.1959 29.4736 33.7081 29.4736 36.7958V36.8165C29.4736 39.9043 31.9858 42.4164 35.0736 42.4164H52.7578C54.5454 42.4164 55.9999 40.962 55.9999 39.1743V34.438C56 32.9568 55.0014 31.7043 53.6421 31.3185ZM49.221 10.5155C50.6836 10.5155 51.8737 11.7054 51.8737 13.1682V14.6547H47.483L45.9811 10.5155H49.221ZM49.221 20.5623H6.77895C4.01614 20.5623 1.76848 18.3146 1.76848 15.5519V15.5261C1.76848 12.7634 4.01614 10.5157 6.77895 10.5157H16.4372L10.0542 14.6549H7.95791C7.46944 14.6549 7.07372 15.0509 7.07372 15.5391C7.07372 16.0275 7.46944 16.4233 7.95791 16.4233H10.3031C10.3121 16.4234 10.3211 16.4234 10.3301 16.4233H19.7348C19.7437 16.4234 19.7527 16.4234 19.7618 16.4233H37.4316C37.9201 16.4233 38.3158 16.0274 38.3158 15.5391C38.3158 15.0508 37.9201 14.6549 37.4316 14.6549H22.736L39.4575 3.81171C39.8931 3.52898 40.4252 3.46161 40.918 3.62676C41.4117 3.79236 41.797 4.16893 41.9751 4.65992L45.6017 14.655H40.9686C40.4801 14.655 40.0844 15.051 40.0844 15.5392C40.0844 16.0276 40.4801 16.4234 40.9686 16.4234H46.8428C46.8566 16.4237 46.8703 16.4237 46.8839 16.4234H51.8737V17.9099C51.8737 19.3724 50.6836 20.5623 49.221 20.5623ZM54.2316 39.1744C54.2316 39.9869 53.5706 40.6481 52.7579 40.6481H35.0737C32.9609 40.6481 31.2421 38.9293 31.2421 36.8166V36.7959C31.2421 34.6832 32.9609 32.9643 35.0737 32.9643H52.7473C52.7534 32.9644 52.7599 32.9644 52.7663 32.9643C53.5749 32.9689 54.2316 33.6282 54.2316 34.438V39.1744Z" fill="#ECECEC"/>
    <path d="M35.6631 34.1498C34.2006 34.1498 33.0105 35.3414 33.0105 36.8062C33.0105 38.2709 34.2005 39.4626 35.6631 39.4626C37.1258 39.4626 38.3158 38.271 38.3158 36.8062C38.3158 35.3413 37.1258 34.1498 35.6631 34.1498ZM35.6631 37.6943C35.1755 37.6943 34.779 37.296 34.779 36.8062C34.779 36.3164 35.1755 35.918 35.6631 35.918C36.1507 35.918 36.5473 36.3164 36.5473 36.8062C36.5473 37.296 36.1507 37.6943 35.6631 37.6943Z" fill="#ECECEC"/>
</svg>