<svg width="54" height="54" viewBox="0 0 54 54" fill="none" xmlns="http://www.w3.org/2000/svg">
    <g clip-path="url(#clip0)">
        <path d="M11.4645 54H5.39322C4.93731 54 4.55925 53.6232 4.55925 53.1688V20.8858C3.01362 17.1621 0.533951 11.2663 0.167004 10.6235C-0.0776273 10.3021 -0.0442684 9.83663 0.244841 9.53741C0.56731 9.21602 1.10105 9.21602 1.42352 9.53741C1.57919 9.69256 1.82382 9.93638 6.16047 20.4092C6.20495 20.509 6.22719 20.6198 6.22719 20.7306V52.3487H10.6305V20.9966L3.59184 5.73615C3.48064 5.48125 3.49176 5.19311 3.63632 4.9493L5.91584 1.26994C6.07151 1.02613 6.33838 0.870972 6.62749 0.870972H37.9514C38.2739 0.870972 38.563 1.05937 38.7075 1.34751L47.8256 20.3649C47.8812 20.4757 47.9034 20.5976 47.9034 20.7196V53.1577C47.9034 53.6121 47.5365 53.9889 47.0806 53.9889L11.4645 54C11.4756 54 11.4645 54 11.4645 54ZM5.29314 5.448L12.2318 20.4647C12.2874 20.5755 12.3096 20.6974 12.3096 20.8082V52.3266H46.2466V20.908L37.4288 2.53333H7.09451L5.29314 5.448Z" fill="#B3C6CB"/>
        <path d="M42.3212 22.2157H18.5252C18.2028 22.2157 17.9025 22.0273 17.7691 21.7391L10.7415 6.84439C10.6192 6.58949 10.6414 6.29027 10.7971 6.04645C10.9528 5.80264 11.2197 5.65857 11.4976 5.65857H34.3484C34.6598 5.65857 34.9378 5.82481 35.0823 6.10187L43.0551 20.9855C43.1885 21.2404 43.1885 21.5507 43.0328 21.8056C42.8883 22.0605 42.6103 22.2157 42.3212 22.2157ZM19.0479 20.5533H40.9201L33.848 7.33201H12.8098L19.0479 20.5533Z" fill="#B3C6CB"/>
        <path d="M42.3212 28.7432H31.3128C30.8569 28.7432 30.4788 28.3664 30.4788 27.9121C30.4788 27.4577 30.8569 27.0809 31.3128 27.0809H42.3212C42.7771 27.0809 43.1551 27.4577 43.1551 27.9121C43.1551 28.3664 42.7771 28.7432 42.3212 28.7432Z" fill="#B3C6CB"/>
    </g>
    <defs>
        <clipPath id="clip0">
            <rect y="0.870972" width="47.9032" height="53.129" fill="white"/>
        </clipPath>
    </defs>
</svg>