<svg width="73" height="52" viewBox="0 0 73 52" fill="none" xmlns="http://www.w3.org/2000/svg">
    <path d="M36.5 46.5722C47.9379 46.5722 57.2488 37.314 57.2488 25.9408C57.2488 14.5677 47.9379 5.32422 36.5 5.32422C25.0621 5.32422 15.7512 14.5825 15.7512 25.9556C15.7512 37.3288 25.0621 46.5722 36.5 46.5722ZM36.5 7.54265C46.7033 7.54265 55.0177 15.7952 55.0177 25.9556C55.0177 36.116 46.7182 44.3686 36.5 44.3686C26.2967 44.3686 17.9823 36.116 17.9823 25.9556C17.9823 15.7952 26.2967 7.54265 36.5 7.54265Z" fill="#ECECEC"/>
    <path d="M36.5 40.2275C44.4128 40.2275 50.8531 33.8236 50.8531 25.9556C50.8531 22.835 49.8566 19.8771 47.9825 17.3777C47.1198 16.2389 45.335 17.57 46.1976 18.7087C47.7891 20.8089 48.6221 23.3083 48.6221 25.9556C48.6221 32.6109 43.1783 38.0091 36.5 38.0091C29.8069 38.0091 24.378 32.5961 24.378 25.9556C24.378 19.3151 29.8217 13.9021 36.5 13.9021C38.6269 13.9021 40.7241 14.4641 42.5685 15.5142C43.8179 16.2241 44.9334 14.3163 43.684 13.5916C41.5124 12.3345 39.0285 11.6837 36.5 11.6837C28.5872 11.6837 22.1469 18.0876 22.1469 25.9556C22.1469 33.8236 28.5872 40.2275 36.5 40.2275Z" fill="#ECECEC"/>
    <path d="M72.7174 23.7964C72.6728 23.752 72.6133 23.7077 72.5687 23.6633C72.4645 23.5302 72.3307 23.4119 72.1522 23.3379L67.5116 21.223C66.9464 20.9716 66.292 21.2083 66.0391 21.7703C65.9648 21.9181 65.935 22.0808 65.935 22.2287C65.935 22.6428 66.173 23.0569 66.5894 23.2344L68.2107 23.9739H61.1011C60.4912 23.9739 59.9855 24.4767 59.9855 25.0831C59.9855 25.6895 60.4912 26.1923 61.1011 26.1923H68.3892L67.229 27.2276C66.991 27.4494 66.8572 27.7452 66.8572 28.0558C66.8572 28.322 66.9464 28.5882 67.1398 28.7953C67.3629 29.0319 67.6604 29.165 67.9727 29.165C68.2404 29.165 68.5082 29.0763 68.7164 28.884L72.6282 25.3641C72.8661 25.1423 73 24.8465 73 24.5359C73 24.2845 72.9108 24.0183 72.7174 23.7964Z" fill="#ECECEC"/>
    <path d="M12.7319 23.7964C12.6872 23.752 12.6278 23.7077 12.5831 23.6633C12.479 23.5302 12.3452 23.4119 12.1667 23.3379L7.52608 21.223C6.96088 20.9716 6.30644 21.2083 6.05359 21.7703C5.97922 21.9181 5.94947 22.0808 5.94947 22.2287C5.94947 22.6428 6.18745 23.0569 6.60391 23.2344L8.22514 23.9739H1.11553C0.505705 23.9739 0 24.4767 0 25.0831C0 25.6895 0.505705 26.1923 1.11553 26.1923H8.40363L7.24348 27.2276C7.0055 27.4494 6.87164 27.7452 6.87164 28.0558C6.87164 28.322 6.96088 28.5882 7.15424 28.7953C7.37734 29.0319 7.67482 29.165 7.98716 29.165C8.25489 29.165 8.52262 29.0763 8.73085 28.884L12.6426 25.3641C12.8806 25.1423 13.0145 24.8465 13.0145 24.5359C13.0145 24.2845 12.9252 24.0183 12.7319 23.7964Z" fill="#ECECEC"/>
    <path d="M67.4819 50.95C67.4819 50.8908 67.467 50.8168 67.467 50.7577C67.4819 50.595 67.4819 50.4175 67.4075 50.2401L65.6227 45.4778C65.3996 44.901 64.7749 44.6052 64.1948 44.8271C64.0312 44.8862 63.8973 44.975 63.7932 45.0785C63.4957 45.3743 63.3767 45.8328 63.5404 46.2469L64.165 47.9033L59.1378 42.9044C58.7064 42.4755 57.9925 42.4755 57.5611 42.9044C57.1298 43.3333 57.1298 44.0432 57.5611 44.4721L62.7074 49.5893L61.1457 49.5006C60.8185 49.4858 60.521 49.6041 60.2979 49.8259C60.1045 50.0182 59.9855 50.2696 59.9707 50.5506C59.9558 50.876 60.0748 51.1718 60.2979 51.3936C60.4913 51.5859 60.7441 51.7042 61.0267 51.719L66.292 51.9852C66.6192 52 66.9167 51.8817 67.1398 51.6598C67.3331 51.4972 67.467 51.2457 67.4819 50.95Z" fill="#ECECEC"/>
    <path d="M64.403 0C64.3435 0 64.2692 0.0147895 64.2097 0.0147895C64.0461 0 63.8676 0 63.6891 0.0739477L58.8998 1.84869C58.3197 2.07053 58.0222 2.6917 58.2453 3.26849C58.3048 3.43117 58.3941 3.56428 58.4982 3.6678C58.7957 3.96359 59.2567 4.08191 59.6732 3.91923L61.3391 3.29807L56.3118 8.29693C55.8804 8.72582 55.8804 9.43572 56.3118 9.86462C56.7431 10.2935 57.457 10.2935 57.8884 9.86462L63.0495 4.73265L62.9603 6.28555C62.9454 6.61092 63.0644 6.90671 63.2875 7.12856C63.4809 7.32082 63.7337 7.43914 64.0163 7.45393C64.3435 7.46871 64.641 7.3504 64.8641 7.12856C65.0575 6.93629 65.1765 6.68487 65.1913 6.40387L65.4591 1.16837C65.474 0.843003 65.355 0.547213 65.1319 0.32537C64.9534 0.147895 64.7005 0.0147895 64.403 0Z" fill="#ECECEC"/>
    <path d="M36.0389 31.8271C35.8307 31.8271 35.5778 31.8123 35.2952 31.8123C35.0126 31.7975 34.7152 31.7828 34.4177 31.7384C34.1202 31.7088 33.8227 31.6496 33.5253 31.6053C33.2278 31.5461 32.9601 31.4722 32.7072 31.3686C32.023 31.1172 31.6958 30.6587 31.6958 30.0228V21.4449C31.6958 21.1934 31.7702 20.9864 31.904 20.8533C32.0528 20.7054 32.2461 20.6019 32.4841 20.5131C32.9006 20.3652 33.4211 20.2617 34.0607 20.1878C34.6854 20.1138 35.3398 20.0842 35.9943 20.0842C37.5709 20.0842 38.7905 20.3504 39.6383 20.8681C40.4861 21.4005 40.9175 22.2139 40.9175 23.3083C40.9175 23.8556 40.7539 24.3288 40.4415 24.7281C40.1143 25.1275 39.683 25.4233 39.1475 25.6007C39.7573 25.7782 40.2779 26.0888 40.6944 26.5325C41.1108 26.9909 41.3191 27.5529 41.3191 28.2481C41.3191 29.4608 40.8729 30.363 39.9656 30.9397C39.0434 31.5313 37.7494 31.8271 36.0389 31.8271ZM34.849 24.7429H36.2025C36.738 24.7429 37.1098 24.6394 37.3627 24.4471C37.6006 24.2549 37.7196 23.9591 37.7196 23.5893C37.7196 23.264 37.5858 22.9978 37.3032 22.8055C37.0206 22.6132 36.6041 22.5097 36.0538 22.5097C35.8753 22.5097 35.6522 22.5097 35.4142 22.5245C35.1762 22.5393 34.9829 22.5541 34.849 22.5837V24.7429ZM34.849 29.2389C35.0275 29.2833 35.2357 29.3277 35.5183 29.3425C35.7861 29.3573 36.0538 29.3721 36.2918 29.3721C36.7826 29.3721 37.1991 29.2685 37.5263 29.0615C37.8535 28.8544 38.0171 28.5438 38.0171 28.1149C38.0171 27.7156 37.8832 27.4198 37.6155 27.2572C37.3478 27.0797 36.9313 27.0057 36.381 27.0057H34.8639L34.849 29.2389Z" fill="#ECECEC"/>
</svg>