<svg width="62" height="62" viewBox="0 0 62 62" fill="none" xmlns="http://www.w3.org/2000/svg">
    <g clip-path="url(#clip0)">
        <path d="M21.2476 19.2134C21.0939 17.0618 19.1045 16.4435 17.9702 16.1563V12.7285C18.7594 12.9655 19.2367 13.4689 19.2683 13.5031C20.0483 14.3682 21.4008 13.1682 20.6215 12.2915C20.5744 12.2386 19.5955 11.159 17.9702 10.8643C18.0678 9.45993 16.1018 9.45267 16.1538 10.8794C15.5401 10.9897 14.9757 11.2001 14.5114 11.5012C13.5692 12.1124 13.0503 13.0797 13.0503 14.2247C13.0503 16.4125 14.9535 17.1989 16.1539 17.553V21.0537C14.91 20.7365 14.1801 19.8311 14.1463 19.7884C13.4339 18.8617 11.9891 19.9629 12.7066 20.8959C12.7646 20.9713 14.0058 22.5511 16.1539 22.9073C16.1012 24.3186 18.0764 24.3185 17.9703 22.911C18.9899 22.7609 19.8227 22.3615 20.4087 21.7322C21.0276 21.0671 21.3177 20.1961 21.2476 19.2134ZM16.1537 15.6367C15.327 15.3231 14.8664 14.9239 14.8664 14.2247C14.8664 13.314 15.5312 12.9145 16.1537 12.7401V15.6367ZM19.079 20.4944C18.828 20.764 18.4473 20.9578 17.9702 21.0652V18.0429C18.9009 18.3274 19.3872 18.6634 19.4359 19.3428C19.4696 19.8164 19.3496 20.2039 19.079 20.4944Z" fill="#ECECEC"/>
        <path d="M39.6672 47.5255H40.6603C40.8642 48.2899 41.1692 48.9656 41.5702 49.5301C43.1009 51.6852 46.0505 52.0021 48.3621 51.0126C48.8233 50.8152 49.0369 50.2813 48.8395 49.8202C48.6421 49.3592 48.1084 49.1455 47.6472 49.3427C46.5869 49.7966 45.2478 49.9239 44.1796 49.4212C43.3876 49.0485 42.8574 48.3323 42.5605 47.5255H45.1493C46.3182 47.5255 46.3262 45.7091 45.1493 45.7091H42.1974C42.1664 45.2684 42.1664 44.8253 42.1974 44.3845H45.1493C46.3182 44.3845 46.3262 42.5681 45.1493 42.5681H42.5605C42.8522 41.7756 43.3689 41.0678 44.1412 40.6905C45.1539 40.1957 46.4248 40.2836 47.4554 40.6735C48.5508 41.0879 49.1937 39.3892 48.0983 38.9747C46.5982 38.4071 44.7961 38.3424 43.3317 39.0571C41.9267 39.7428 41.0549 41.089 40.6603 42.5681H39.6672C38.4982 42.5681 38.4903 44.3845 39.6672 44.3845H40.3771C40.3511 44.8254 40.3511 45.2682 40.3771 45.7091H39.6672C38.4982 45.7091 38.4903 47.5255 39.6672 47.5255Z" fill="#ECECEC"/>
        <path d="M16.888 33.7758C26.2 33.7758 33.7758 26.2 33.7758 16.888C33.7758 7.57599 26.2 0 16.888 0C7.57599 0 0 7.57587 0 16.8879C0 26.1998 7.57599 33.7758 16.888 33.7758ZM16.888 1.81641C25.1984 1.81641 31.9594 8.57743 31.9594 16.8879C31.9594 25.1983 25.1984 31.9594 16.888 31.9594C8.57743 31.9594 1.81641 25.1984 1.81641 16.8879C1.81641 8.57731 8.57743 1.81641 16.888 1.81641Z" fill="#ECECEC"/>
        <path d="M16.888 28.5773C23.3336 28.5773 28.5773 23.3335 28.5773 16.888C28.5773 14.3327 27.7675 11.9055 26.2358 9.86871C25.5319 8.93253 24.0802 10.0243 24.7841 10.9605C26.0774 12.68 26.7609 14.7298 26.7609 16.888C26.7609 22.332 22.3319 26.7609 16.888 26.7609C11.444 26.7609 7.01495 22.3319 7.01495 16.888C7.01495 11.4441 11.444 7.01501 16.888 7.01501C18.6249 7.01501 20.3325 7.47214 21.8262 8.33675C22.84 8.92357 23.7499 7.35166 22.7363 6.76483C20.9664 5.74026 18.9441 5.19873 16.888 5.19861C10.4423 5.19861 5.19855 10.4425 5.19855 16.8879C5.19855 23.3334 10.4423 28.5773 16.888 28.5773Z" fill="#ECECEC"/>
        <path d="M45.1122 28.2241C40.9775 28.2241 36.9989 29.7337 33.9089 32.4749C33.0327 33.2522 34.2384 34.6111 35.1144 33.8337C37.8716 31.3877 41.4222 30.0405 45.1122 30.0405C53.4226 30.0405 60.1836 36.8016 60.1836 45.1121C60.1836 53.4227 53.4226 60.1836 45.1122 60.1836C36.8016 60.1836 30.0406 53.4225 30.0406 45.1121C30.0406 42.2007 30.8719 39.3755 32.4448 36.9423C33.0805 35.9585 31.5552 34.9726 30.9192 35.9562C29.156 38.684 28.2241 41.85 28.2241 45.1121C28.2242 54.4241 35.8002 62 45.1122 62C54.4242 62 62 54.4241 62 45.1121C62 35.8001 54.4242 28.2241 45.1122 28.2241Z" fill="#ECECEC"/>
        <path d="M45.1122 56.8015C51.5577 56.8015 56.8015 51.5576 56.8015 45.1122C56.8015 38.6667 51.5576 33.4229 45.1122 33.4229C38.6665 33.4229 33.4227 38.6667 33.4227 45.1122C33.4227 51.5576 38.6666 56.8015 45.1122 56.8015ZM45.1122 35.2391C50.556 35.2391 54.985 39.6681 54.985 45.112C54.985 50.5559 50.556 54.9849 45.1122 54.9849C39.6681 54.9849 35.2391 50.5559 35.2391 45.112C35.2391 39.6681 39.6681 35.2391 45.1122 35.2391Z" fill="#ECECEC"/>
        <path d="M25.6438 55.6146C15.8377 55.6146 7.72057 48.2473 6.53507 38.757L7.41675 39.8107C8.16838 40.7089 9.56144 39.5432 8.80981 38.6449L6.22167 35.5523C5.8188 35.0708 5.03035 35.148 4.72871 35.6987L2.6987 39.4033C2.13803 40.4264 3.72714 41.3067 4.29156 40.2762L4.78611 39.3738C6.25449 49.5699 15.0477 57.4309 25.6437 57.4309C26.815 57.431 26.815 55.6146 25.6438 55.6146Z" fill="#ECECEC"/>
        <path d="M36.3562 6.38537C46.1282 6.38537 54.2231 13.7016 55.4523 23.144L54.4269 22.0545C53.6243 21.2017 52.3016 22.4466 53.1043 23.2995L55.7345 26.0937C56.1151 26.7583 57.1349 26.6616 57.3818 25.9357L59.1607 22.1858C59.6628 21.1276 58.0217 20.3492 57.5195 21.4073L57.1467 22.1931C55.4952 12.2082 46.8016 4.5686 36.3561 4.5686C35.185 4.56897 35.185 6.38537 36.3562 6.38537Z" fill="#ECECEC"/>
    </g>
    <defs>
        <clipPath id="clip0">
            <path d="M0 0H62V62H0V0Z" fill="white"/>
        </clipPath>
    </defs>
</svg>