<svg width="62" height="62" viewBox="0 0 62 62" fill="none" xmlns="http://www.w3.org/2000/svg">
    <path d="M59.1504 12.6191H2.84958C1.27839 12.6191 0 13.8975 0 15.4689V24.0141C0 24.8232 0.416562 25.5835 1.0873 25.9984C2.83783 27.0811 3.88287 28.9509 3.88287 31.0001C3.88287 33.0494 2.83783 34.9192 1.08718 36.0019C0.416562 36.4167 0 37.177 0 37.986V46.5313C0 48.1026 1.27839 49.3808 2.84958 49.3808H59.1504C60.7217 49.3808 62 48.1025 62 46.5313V15.4689C62 13.8975 60.7216 12.6191 59.1504 12.6191ZM60.1836 46.5313C60.1836 47.101 59.7202 47.5644 59.1504 47.5644H14.4356V47.502C14.4356 47.0004 14.0291 46.5938 13.5274 46.5938C13.0257 46.5938 12.6192 47.0004 12.6192 47.502V47.5644H2.84958C2.27983 47.5644 1.81641 47.1009 1.81641 46.5313V37.986C1.81641 37.8014 1.90323 37.6329 2.04273 37.5466C4.33225 36.1305 5.69916 33.6832 5.69916 31C5.69916 28.3168 4.33225 25.8695 2.04273 24.4535C1.90323 24.367 1.81641 24.1987 1.81641 24.0139V15.4687C1.81641 14.8989 2.27983 14.4355 2.84958 14.4355H12.6192V14.498C12.6192 14.9995 13.0257 15.4062 13.5274 15.4062C14.0291 15.4062 14.4356 14.9995 14.4356 14.498V14.4355H59.1504C59.7202 14.4355 60.1836 14.899 60.1836 15.4687V46.5313Z" fill="#B3C6CB"/>
    <path d="M13.5274 29.1212C13.0257 29.1212 12.6192 29.5278 12.6192 30.0294V31.9708C12.6192 32.4724 13.0257 32.879 13.5274 32.879C14.0291 32.879 14.4356 32.4724 14.4356 31.9708V30.0294C14.4356 29.5277 14.0291 29.1212 13.5274 29.1212Z" fill="#B3C6CB"/>
    <path d="M13.5274 17.4729C13.0257 17.4729 12.6192 17.8795 12.6192 18.3811V20.3225C12.6192 20.824 13.0257 21.2307 13.5274 21.2307C14.0291 21.2307 14.4356 20.824 14.4356 20.3225V18.3811C14.4356 17.8794 14.0291 17.4729 13.5274 17.4729Z" fill="#B3C6CB"/>
    <path d="M13.5274 23.2969C13.0257 23.2969 12.6192 23.7035 12.6192 24.2051V26.1465C12.6192 26.648 13.0257 27.0547 13.5274 27.0547C14.0291 27.0547 14.4356 26.648 14.4356 26.1465V24.2051C14.4356 23.7035 14.0291 23.2969 13.5274 23.2969Z" fill="#B3C6CB"/>
    <path d="M13.5274 34.9454C13.0257 34.9454 12.6192 35.352 12.6192 35.8536V37.795C12.6192 38.2965 13.0257 38.7032 13.5274 38.7032C14.0291 38.7032 14.4356 38.2965 14.4356 37.795V35.8536C14.4356 35.3519 14.0291 34.9454 13.5274 34.9454Z" fill="#B3C6CB"/>
    <path d="M13.5274 40.7695C13.0257 40.7695 12.6192 41.1761 12.6192 41.6777V43.619C12.6192 44.1206 13.0257 44.5272 13.5274 44.5272C14.0291 44.5272 14.4356 44.1206 14.4356 43.619V41.6777C14.4356 41.1761 14.0291 40.7695 13.5274 40.7695Z" fill="#B3C6CB"/>
    <path d="M32 38C30.9 38 30.01 38.9 30.01 40C30.01 41.1 30.9 42 32 42C33.1 42 34 41.1 34 40C34 38.9 33.1 38 32 38ZM42 38C40.9 38 40.01 38.9 40.01 40C40.01 41.1 40.9 42 42 42C43.1 42 44 41.1 44 40C44 38.9 43.1 38 42 38ZM32.17 34.75L32.2 34.63L33.1 33H40.55C41.3 33 41.96 32.59 42.3 31.97L46.16 24.96L44.42 24H44.41L43.31 26L40.55 31H33.53L33.4 30.73L31.16 26L30.21 24L29.27 22H26V24H28L31.6 31.59L30.25 34.04C30.09 34.32 30 34.65 30 35C30 36.1 30.9 37 32 37H44V35H32.42C32.29 35 32.17 34.89 32.17 34.75Z" fill="#B3C6CB"/>
</svg>