<svg width="62" height="62" viewBox="0 0 62 62" fill="none" xmlns="http://www.w3.org/2000/svg">
    <path d="M48.1953 49.4062C47.6937 49.4062 47.2871 49.8129 47.2871 50.3145V54.6133H14.7129V47.2601L15.7519 47.6997C15.7817 47.7123 15.8121 47.723 15.8427 47.7323C15.8474 47.7337 15.8521 47.7346 15.8569 47.7359C15.8905 47.7454 15.9246 47.7528 15.9588 47.7584C15.9689 47.7601 15.9788 47.7616 15.989 47.7629C16.0278 47.768 16.0668 47.7714 16.1058 47.7714C16.1448 47.7714 16.1838 47.7678 16.2227 47.7629C16.2327 47.7616 16.2428 47.76 16.2527 47.7584C16.287 47.7527 16.3211 47.7454 16.3549 47.7358C16.3595 47.7344 16.3642 47.7336 16.3688 47.7323C16.3995 47.7229 16.4299 47.7123 16.4597 47.6996L25.1782 44.0106C25.5142 43.8684 25.7325 43.5389 25.7325 43.1742V31.4133C25.7325 31.3731 25.7295 31.3333 25.7243 31.2939C25.7231 31.2848 25.7207 31.2761 25.7192 31.2671C25.714 31.2355 25.7078 31.2043 25.6994 31.1736C25.6956 31.1598 25.6908 31.1464 25.6863 31.1328C25.678 31.1077 25.6692 31.0827 25.6588 31.0584C25.6527 31.0441 25.6462 31.0302 25.6394 31.0162C25.6283 30.9933 25.616 30.9709 25.603 30.949C25.595 30.9357 25.5872 30.9224 25.5785 30.9095C25.5639 30.8876 25.5479 30.8667 25.5313 30.8461C25.5223 30.8348 25.5138 30.8233 25.5044 30.8125C25.4833 30.7886 25.4604 30.7663 25.4367 30.7445C25.4302 30.7386 25.4245 30.7319 25.4178 30.7261C25.3889 30.7011 25.3584 30.6778 25.326 30.6563C25.3242 30.6551 25.3223 30.6543 25.3205 30.6531C25.3096 30.6459 25.2976 30.6401 25.2863 30.6333C25.2617 30.6188 25.2369 30.6047 25.2112 30.5926C25.2064 30.5903 25.202 30.5872 25.1971 30.585L16.4788 26.66C16.2416 26.5532 15.9702 26.5532 15.7331 26.66L14.7129 27.1192V11.5645C14.7129 11.0629 14.3063 10.6562 13.8047 10.6562C13.3031 10.6562 12.8965 11.0629 12.8965 11.5645V27.9371L7.01387 30.5851C7.0083 30.5877 7.00358 30.5911 6.99801 30.5937C6.97585 30.6043 6.95441 30.6165 6.93298 30.629C6.9182 30.6376 6.90295 30.6452 6.88866 30.6545C6.88757 30.6552 6.88636 30.6557 6.88527 30.6565C6.85742 30.675 6.83126 30.6953 6.80595 30.7165C6.789 30.7307 6.77338 30.7459 6.75751 30.7613C6.74104 30.7772 6.72421 30.7929 6.70908 30.81C6.69612 30.8247 6.68449 30.8403 6.67251 30.8557C6.65967 30.872 6.64695 30.8884 6.63533 30.9055C6.62419 30.9221 6.61402 30.9391 6.60385 30.9564C6.59355 30.974 6.58386 30.9918 6.57478 31.0099C6.56582 31.0279 6.55735 31.046 6.5496 31.0645C6.54172 31.0836 6.53494 31.1028 6.52828 31.1224C6.52187 31.1412 6.51533 31.1597 6.51024 31.179C6.50443 31.2007 6.50043 31.2227 6.49631 31.2449C6.49292 31.2628 6.48856 31.2803 6.48614 31.2985C6.4813 31.3364 6.47863 31.3749 6.47863 31.4137V31.418C6.47863 31.42 6.47827 31.4218 6.47827 31.4237C6.47827 31.4252 6.47863 31.4265 6.47863 31.4278V43.1744C6.47863 43.5393 6.69697 43.8686 7.033 44.0108L12.8965 46.4915V57.459C12.8965 59.963 14.9335 62 17.4375 62H44.5625C47.0665 62 49.1035 59.963 49.1035 57.459V50.3145C49.1035 49.8129 48.697 49.4062 48.1953 49.4062ZM23.9161 42.5723L17.014 45.4927V35.7046L23.9161 32.7838V42.5723ZM16.1058 28.4843L22.5546 31.3875L16.1057 34.1162L9.65662 31.3875L16.1058 28.4843ZM8.29528 42.5724V32.784L15.1975 35.7045V45.4929L8.29528 42.5724ZM47.2871 57.459C47.2871 58.9614 46.0649 60.1836 44.5625 60.1836H17.4375C15.9351 60.1836 14.7129 58.9614 14.7129 57.459V56.4297H47.2871V57.459Z" fill="#B3C6CB"/>
    <path d="M33.4219 57.3984H28.5781C28.0766 57.3984 27.6699 57.8051 27.6699 58.3066C27.6699 58.8082 28.0766 59.2148 28.5781 59.2148H33.4219C33.9234 59.2148 34.3301 58.8082 34.3301 58.3066C34.3301 57.8051 33.9236 57.3984 33.4219 57.3984Z" fill="#B3C6CB"/>
    <path d="M55.5133 15.9272C55.5122 15.919 55.51 15.9111 55.5087 15.9029C55.5034 15.8704 55.497 15.8383 55.4883 15.807C55.4847 15.7935 55.4799 15.7806 55.4756 15.7674C55.4672 15.7417 55.4583 15.7164 55.4476 15.6917C55.4417 15.6776 55.4351 15.664 55.4285 15.6503C55.4172 15.627 55.4049 15.6045 55.3917 15.5823C55.3838 15.5691 55.3761 15.5561 55.3676 15.5434C55.3528 15.5213 55.3367 15.5002 55.3201 15.4795C55.3111 15.4684 55.3029 15.457 55.2935 15.4462C55.2724 15.4223 55.2494 15.3999 55.2258 15.3782C55.2192 15.3721 55.2135 15.3655 55.2068 15.3597C55.1778 15.3347 55.1473 15.3113 55.115 15.2899C55.1132 15.2887 55.1112 15.2878 55.1094 15.2868C55.0983 15.2795 55.086 15.2734 55.0745 15.2667C55.0502 15.2522 55.0256 15.2384 55.0003 15.2264C54.9953 15.2241 54.991 15.2209 54.9859 15.2187L49.1034 12.5704V4.54102C49.1035 2.03704 47.0664 0 44.5625 0H17.4375C14.9335 0 12.8965 2.03704 12.8965 4.54102V7.68945C12.8965 8.19102 13.3031 8.59766 13.8047 8.59766C14.3063 8.59766 14.7129 8.19102 14.7129 7.68945V4.54102C14.7129 3.03861 15.9351 1.81641 17.4375 1.81641H21.373V3.81445C21.373 5.25002 22.541 6.41797 23.9766 6.41797H38.0234C39.459 6.41797 40.627 5.25002 40.627 3.81445V1.81641H44.5625C46.0649 1.81641 47.2871 3.03861 47.2871 4.54102V11.7526L44.0882 10.3125C43.851 10.2057 43.5796 10.2057 43.3425 10.3125L32.4436 15.2187C32.4377 15.2214 32.4327 15.225 32.427 15.2277C32.4063 15.2375 32.3863 15.2491 32.3663 15.2605C32.3501 15.2698 32.3334 15.2783 32.3179 15.2884C32.317 15.2891 32.3162 15.2894 32.3153 15.2899C32.2945 15.3037 32.2755 15.3194 32.256 15.3348C32.2299 15.3553 32.2054 15.3771 32.1819 15.4002C32.1677 15.4141 32.1531 15.4277 32.1399 15.4425C32.1258 15.4582 32.1132 15.4752 32.1003 15.4919C32.0886 15.507 32.0769 15.5219 32.0662 15.5377C32.0542 15.5552 32.0435 15.5734 32.0328 15.5918C32.0234 15.6081 32.0143 15.6246 32.0059 15.6414C31.9964 15.6606 31.9874 15.6797 31.9792 15.6994C31.9719 15.717 31.9656 15.7349 31.9594 15.7528C31.9525 15.7729 31.9455 15.7928 31.9401 15.8135C31.9348 15.8329 31.9315 15.8527 31.9276 15.8725C31.9236 15.8926 31.9187 15.9123 31.9162 15.9328C31.9115 15.9704 31.9089 16.0086 31.9089 16.047V16.0494C31.9089 16.0519 31.9084 16.0545 31.9084 16.057C31.9084 16.059 31.9089 16.0608 31.9089 16.0626V30.748C31.9089 31.1129 32.1273 31.4422 32.4632 31.5844L34.3428 32.3797C34.805 32.5752 35.3377 32.3592 35.5331 31.8973C35.7286 31.4353 35.5126 30.9024 35.0507 30.707L33.7253 30.1462V17.4175L42.8071 21.2604V33.989L38.6201 32.2174C38.158 32.0218 37.6253 32.2379 37.4297 32.6999C37.2343 33.1618 37.4503 33.6947 37.9123 33.8903L43.3614 36.1959C43.3912 36.2085 43.4216 36.2193 43.4522 36.2285C43.4569 36.2299 43.4616 36.2308 43.4664 36.2321C43.5 36.2417 43.5341 36.2491 43.5683 36.2546C43.5784 36.2563 43.5883 36.2578 43.5985 36.2591C43.6373 36.2642 43.6763 36.2676 43.7153 36.2676C43.7543 36.2676 43.7933 36.2641 43.8322 36.2591C43.8422 36.2578 43.8522 36.2562 43.8622 36.2546C43.8966 36.2489 43.9308 36.2417 43.9645 36.232C43.9691 36.2306 43.9737 36.2299 43.9782 36.2285C44.0089 36.2191 44.0393 36.2085 44.0692 36.1958L47.2872 34.8341V46.4395C47.2872 46.941 47.6939 47.3477 48.1954 47.3477C48.697 47.3477 49.1036 46.941 49.1036 46.4395V34.0656L54.9672 31.5845C55.3033 31.4424 55.5216 31.1129 55.5216 30.7481V16.0471C55.5215 16.0067 55.5183 15.9667 55.5133 15.9272ZM38.8105 3.81445C38.8105 4.24845 38.4574 4.60156 38.0234 4.60156H23.9766C23.5426 4.60156 23.1895 4.24845 23.1895 3.81445V1.81641H38.8105V3.81445ZM43.715 19.6722L35.0861 16.0211L43.7153 12.1366L52.3435 16.0211C52.3475 16.0229 52.3453 16.022 52.3434 16.0211L43.715 19.6722ZM53.7052 30.1462C53.6947 30.1504 53.7048 30.1458 53.6947 30.1504L44.6234 33.989V21.2606L53.7052 17.4175V30.1462Z" fill="#B3C6CB"/>
    <path d="M52.3434 16.021H52.3435C52.3397 16.0195 52.3415 16.0203 52.3434 16.021Z" fill="#B3C6CB"/>
    <path d="M25.5509 4.11719C26.0525 4.11719 26.4591 3.71057 26.4591 3.20898C26.4591 2.7074 26.0525 2.30078 25.5509 2.30078C25.0493 2.30078 24.6427 2.7074 24.6427 3.20898C24.6427 3.71057 25.0493 4.11719 25.5509 4.11719Z" fill="#B3C6CB"/>
    <path d="M27.7306 4.11719C28.2322 4.11719 28.6388 3.71057 28.6388 3.20898C28.6388 2.7074 28.2322 2.30078 27.7306 2.30078C27.229 2.30078 26.8224 2.7074 26.8224 3.20898C26.8224 3.71057 27.229 4.11719 27.7306 4.11719Z" fill="#B3C6CB"/>
</svg>