<svg width="271" height="48" viewBox="0 0 271 48"  xmlns="http://www.w3.org/2000/svg">
    <path d="M9.552 16.176V28.272C9.552 29.776 9.744 30.864 10.128 31.536C10.512 32.208 11.232 32.544 12.288 32.544C13.344 32.544 14.368 32.32 15.36 31.872C15.712 31.744 15.968 31.872 16.128 32.256L16.992 34.464C17.024 34.56 17.04 34.704 17.04 34.896C17.04 35.056 16.88 35.232 16.56 35.424C15.024 36.192 13.2 36.576 11.088 36.576C8.24 36.576 6.368 35.84 5.472 34.368C4.832 33.408 4.464 32.48 4.368 31.584C4.24 30.368 4.176 29.088 4.176 27.744V16.176H1.44C0.96 16.176 0.72 15.936 0.72 15.456V12.96C0.72 12.48 0.96 12.24 1.44 12.24H4.176V5.76C4.176 5.28 4.416 5.04 4.896 5.04H8.832C9.312 5.04 9.552 5.28 9.552 5.76V12.24H14.4C14.88 12.24 15.12 12.48 15.12 12.96V15.456C15.12 15.936 14.88 16.176 14.4 16.176H9.552ZM30.4388 36.576C26.6308 36.576 23.8308 35.472 22.0388 33.264C20.2788 31.024 19.3988 28.08 19.3988 24.432C19.3988 20.752 20.3428 17.712 22.2308 15.312C24.1188 12.912 26.8388 11.712 30.3907 11.712C32.1508 11.712 33.6548 12.048 34.9028 12.72C36.1828 13.36 37.1588 14.24 37.8308 15.36C39.1108 17.536 39.7508 20.048 39.7508 22.896C39.7508 24.24 39.6868 24.976 39.5588 25.104C39.4308 25.232 39.1908 25.296 38.8388 25.296H24.7268C24.8868 27.6 25.4468 29.392 26.4068 30.672C27.3988 31.92 29.0948 32.544 31.4948 32.544C33.2548 32.544 35.0628 32.128 36.9188 31.296C37.3668 31.072 37.6868 31.2 37.8788 31.68L38.7908 33.888C38.9508 34.272 38.8068 34.592 38.3588 34.848C36.2468 36 33.6068 36.576 30.4388 36.576ZM24.7268 21.744H34.7108C34.7748 17.744 33.2068 15.744 30.0068 15.744C28.1188 15.744 26.7748 16.352 25.9748 17.568C25.2068 18.752 24.7908 20.144 24.7268 21.744ZM48.3551 23.808C48.3551 29.632 50.6111 32.544 55.1231 32.544C56.5631 32.544 58.2431 32.112 60.1631 31.248C60.6431 31.056 60.9791 31.2 61.1711 31.68L62.0351 33.792C62.1951 34.24 62.0671 34.576 61.6511 34.8C59.6991 35.984 57.2351 36.576 54.2591 36.576C50.3871 36.576 47.5231 35.488 45.6671 33.312C43.8111 31.104 42.8831 28.128 42.8831 24.384C42.8831 20.608 43.8271 17.552 45.7151 15.216C47.6351 12.88 50.4831 11.712 54.2591 11.712C57.1391 11.712 59.2671 12.496 60.6431 14.064C62.0191 15.632 62.7071 17.632 62.7071 20.064C62.7071 20.48 62.4351 20.688 61.8911 20.688H59.0111C58.4991 20.688 58.2271 20.448 58.1951 19.968C58.0351 17.152 56.6111 15.744 53.9231 15.744C52.0031 15.744 50.5951 16.416 49.6991 17.76C48.8031 19.072 48.3551 21.088 48.3551 23.808ZM64.6163 3.408V0.912C64.6163 0.431998 64.8563 0.191998 65.3363 0.191998H72.5843C73.0643 0.191998 73.3043 0.431998 73.3043 0.912V15.696C75.0963 13.04 77.5763 11.712 80.7443 11.712C85.7043 11.712 88.1843 14.432 88.1843 19.872V32.208H91.0163C91.4963 32.208 91.7363 32.448 91.7363 32.928V35.28C91.7363 35.76 91.4963 36 91.0163 36H80.5043C80.0243 36 79.7843 35.76 79.7843 35.28V32.928C79.7843 32.448 80.0243 32.208 80.5043 32.208H82.8083V22.272C82.8083 20.256 82.5523 18.784 82.0403 17.856C81.5283 16.928 80.4723 16.464 78.8723 16.464C77.2723 16.464 75.9443 16.944 74.8883 17.904C73.8323 18.864 73.3043 19.952 73.3043 21.168V32.208H76.2323C76.7123 32.208 76.9523 32.448 76.9523 32.928V35.28C76.9523 35.76 76.7123 36 76.2323 36H65.3363C64.8563 36 64.6163 35.76 64.6163 35.28V32.928C64.6163 32.448 64.8563 32.208 65.3363 32.208H67.9283V4.128H65.3363C64.8563 4.128 64.6163 3.888 64.6163 3.408ZM93.5906 15.504V12.96C93.5906 12.48 93.8306 12.24 94.3106 12.24H100.839C101.255 12.24 101.511 12.48 101.607 12.96L102.039 15.744C103.831 13.056 106.391 11.712 109.719 11.712C114.679 11.712 117.159 14.432 117.159 19.872V32.208H119.943C120.423 32.208 120.663 32.448 120.663 32.928V35.28C120.663 35.76 120.423 36 119.943 36H109.479C108.999 36 108.759 35.76 108.759 35.28V32.928C108.759 32.448 108.999 32.208 109.479 32.208H111.783V22.272C111.783 20.256 111.527 18.784 111.015 17.856C110.503 16.928 109.447 16.464 107.847 16.464C106.247 16.464 104.919 16.944 103.863 17.904C102.807 18.864 102.279 19.952 102.279 21.168V32.208H105.255C105.735 32.208 105.975 32.448 105.975 32.928V35.28C105.975 35.76 105.735 36 105.255 36H94.3586C93.8786 36 93.6386 35.76 93.6386 35.28V32.928C93.6386 32.448 93.8786 32.208 94.3586 32.208H96.9026V16.176H94.3106C93.8306 16.176 93.5906 15.952 93.5906 15.504ZM123.039 24.48C123.039 22.08 123.407 20 124.143 18.24C124.879 16.48 125.839 15.152 127.023 14.256C129.295 12.56 131.759 11.712 134.415 11.712C136.367 11.712 138.015 12.016 139.359 12.624C140.703 13.232 141.743 13.936 142.479 14.736C143.247 15.536 143.887 16.688 144.399 18.192C144.943 19.696 145.215 21.456 145.215 23.472C145.215 27.76 144.127 31.024 141.951 33.264C139.807 35.472 137.055 36.576 133.695 36.576C130.335 36.576 127.711 35.568 125.823 33.552C123.967 31.504 123.039 28.48 123.039 24.48ZM134.079 32.64C135.999 32.64 137.391 31.936 138.255 30.528C139.151 29.088 139.599 26.96 139.599 24.144C139.599 21.328 139.151 19.216 138.255 17.808C137.391 16.368 135.967 15.648 133.983 15.648C130.303 15.648 128.463 18.24 128.463 23.424C128.463 29.568 130.335 32.64 134.079 32.64ZM156.794 0.912V32.208H159.818C160.298 32.208 160.538 32.448 160.538 32.928V35.28C160.538 35.76 160.298 36 159.818 36H148.394C147.914 36 147.674 35.76 147.674 35.28V32.928C147.674 32.448 147.914 32.208 148.394 32.208H151.418V4.128H148.826C148.346 4.128 148.106 3.888 148.106 3.408V0.912C148.106 0.431998 148.346 0.191998 148.826 0.191998H156.074C156.554 0.191998 156.794 0.431998 156.794 0.912ZM162.696 24.48C162.696 22.08 163.064 20 163.8 18.24C164.536 16.48 165.496 15.152 166.68 14.256C168.952 12.56 171.416 11.712 174.072 11.712C176.024 11.712 177.672 12.016 179.016 12.624C180.36 13.232 181.4 13.936 182.136 14.736C182.904 15.536 183.544 16.688 184.056 18.192C184.6 19.696 184.872 21.456 184.872 23.472C184.872 27.76 183.784 31.024 181.608 33.264C179.464 35.472 176.712 36.576 173.352 36.576C169.992 36.576 167.368 35.568 165.48 33.552C163.624 31.504 162.696 28.48 162.696 24.48ZM173.736 32.64C175.656 32.64 177.048 31.936 177.912 30.528C178.808 29.088 179.256 26.96 179.256 24.144C179.256 21.328 178.808 19.216 177.912 17.808C177.048 16.368 175.624 15.648 173.64 15.648C169.96 15.648 168.12 18.24 168.12 23.424C168.12 29.568 169.992 32.64 173.736 32.64ZM210.083 16.176V33.216C210.083 35.264 210.003 37.168 209.843 38.928C209.587 41.648 208.579 43.76 206.819 45.264C205.091 46.768 202.627 47.52 199.427 47.52C196.227 47.52 193.539 47.04 191.363 46.08C190.979 45.92 190.851 45.6 190.979 45.12L191.843 42.576C191.971 42.128 192.291 42 192.803 42.192C194.755 42.992 196.723 43.392 198.707 43.392C200.723 43.392 202.227 42.912 203.219 41.952C204.211 40.992 204.707 39.296 204.707 36.864V33.12C203.299 35.424 201.027 36.576 197.891 36.576C194.755 36.576 192.355 35.568 190.691 33.552C189.059 31.536 188.243 28.48 188.243 24.384C188.243 20.256 189.203 17.12 191.123 14.976C193.075 12.8 195.507 11.712 198.419 11.712C201.363 11.712 203.731 12.752 205.523 14.832L206.003 12.96C206.163 12.48 206.451 12.24 206.867 12.24H212.723C213.203 12.24 213.443 12.48 213.443 12.96V15.456C213.443 15.936 213.203 16.176 212.723 16.176H210.083ZM204.707 27.024V18.48C204.579 18.288 204.371 18.048 204.083 17.76C203.827 17.472 203.235 17.104 202.307 16.656C201.411 16.176 200.435 15.936 199.379 15.936C197.683 15.936 196.307 16.576 195.251 17.856C194.195 19.104 193.667 21.12 193.667 23.904C193.667 26.688 194.051 28.816 194.819 30.288C195.587 31.728 197.075 32.448 199.283 32.448C200.691 32.448 201.939 31.952 203.027 30.96C204.147 29.968 204.707 28.656 204.707 27.024ZM223.826 32.208H226.85C227.33 32.208 227.57 32.448 227.57 32.928V35.28C227.57 35.76 227.33 36 226.85 36H215.426C214.946 36 214.706 35.76 214.706 35.28V32.928C214.706 32.448 214.946 32.208 215.426 32.208C215.426 32.208 216.434 32.208 218.45 32.208V16.176H215.858C215.378 16.176 215.138 15.936 215.138 15.456V12.96C215.138 12.48 215.378 12.24 215.858 12.24H223.106C223.586 12.24 223.826 12.48 223.826 12.96V32.208ZM218.018 7.968C217.41 7.328 217.105 6.512 217.105 5.52C217.105 4.528 217.41 3.712 218.018 3.072C218.658 2.4 219.49 2.064 220.514 2.064C221.57 2.064 222.402 2.4 223.01 3.072C223.65 3.712 223.97 4.528 223.97 5.52C223.97 6.512 223.65 7.328 223.01 7.968C222.37 8.608 221.522 8.928 220.466 8.928C219.442 8.928 218.626 8.608 218.018 7.968ZM240.767 36.576C236.959 36.576 234.159 35.472 232.367 33.264C230.607 31.024 229.727 28.08 229.727 24.432C229.727 20.752 230.671 17.712 232.559 15.312C234.447 12.912 237.167 11.712 240.719 11.712C242.479 11.712 243.983 12.048 245.231 12.72C246.511 13.36 247.487 14.24 248.159 15.36C249.439 17.536 250.079 20.048 250.079 22.896C250.079 24.24 250.015 24.976 249.887 25.104C249.759 25.232 249.519 25.296 249.167 25.296H235.055C235.215 27.6 235.775 29.392 236.735 30.672C237.727 31.92 239.423 32.544 241.823 32.544C243.583 32.544 245.391 32.128 247.247 31.296C247.695 31.072 248.015 31.2 248.207 31.68L249.119 33.888C249.279 34.272 249.135 34.592 248.687 34.848C246.575 36 243.935 36.576 240.767 36.576ZM235.055 21.744H245.039C245.103 17.744 243.535 15.744 240.335 15.744C238.447 15.744 237.103 16.352 236.303 17.568C235.535 18.752 235.119 20.144 235.055 21.744ZM253.751 19.104C253.751 16.992 254.567 15.232 256.199 13.824C257.831 12.416 259.895 11.712 262.391 11.712C264.887 11.712 267.047 12 268.871 12.576C269.319 12.704 269.543 12.992 269.543 13.44V18.528C269.543 19.008 269.303 19.248 268.823 19.248H266.039C265.527 19.248 265.319 19.008 265.415 18.528L265.655 16.08C264.695 15.568 263.639 15.312 262.487 15.312C259.927 15.312 258.647 16.208 258.647 18C258.647 18.928 259.063 19.664 259.895 20.208C260.727 20.752 261.735 21.2 262.919 21.552C264.103 21.872 265.287 22.256 266.471 22.704C267.687 23.12 268.711 23.856 269.543 24.912C270.375 25.936 270.791 27.248 270.791 28.848C270.791 31.28 269.943 33.184 268.247 34.56C266.551 35.904 264.167 36.576 261.095 36.576C258.951 36.576 256.695 36.256 254.327 35.616C253.911 35.488 253.703 35.184 253.703 34.704V29.616C253.703 29.136 253.943 28.896 254.423 28.896H257.207C257.687 28.896 257.911 29.136 257.879 29.616L257.735 32.112C258.599 32.752 259.831 33.072 261.431 33.072C264.279 33.072 265.703 32.064 265.703 30.048C265.703 29.024 265.287 28.224 264.455 27.648C263.655 27.04 262.663 26.576 261.479 26.256C260.327 25.936 259.159 25.584 257.975 25.2C256.791 24.784 255.783 24.08 254.951 23.088C254.151 22.064 253.751 20.736 253.751 19.104Z" />
</svg>